<?xml version="1.0" standalone="no"?>
<!DOCTYPE svg PUBLIC "-//W3C//DTD SVG 1.1//EN" "http://www.w3.org/Graphics/SVG/1.1/DTD/svg11.dtd" >
<svg xmlns="http://www.w3.org/2000/svg" xmlns:xlink="http://www.w3.org/1999/xlink" version="1.1">
<metadata></metadata>
<defs>
<font id="toronto_subwaybold" horiz-adv-x="1214" >
<font-face units-per-em="2048" ascent="1638" descent="-410" />
<missing-glyph horiz-adv-x="614" />
<glyph unicode="ff" horiz-adv-x="1486" d="M1141 0h-230v737h-419v-737h-230v737h-250v221h250v99q0 182 128.5 310t311.5 128q113 0 207 -51l-108 -191q-52 25 -99 25q-87 0 -148.5 -65t-61.5 -156v-99h419v125q0 182 129 310.5t312 128.5t313 -127l-160 -156q-66 66 -153 66t-149 -65.5t-62 -156.5v-125h346v-221 h-346v-737z" />
<glyph unicode="fi" horiz-adv-x="1337" d="M1190 0h-229v958h229v-958zM1219 1210q0 -59 -42 -100t-102 -41t-101.5 41t-41.5 100t41.5 100.5t101.5 41.5t102 -41.5t42 -100.5zM492 0h-230v737h-250v221h250v125q0 182 128.5 310.5t311.5 128.5q116 0 213 -54l-108 -192q-56 29 -105 29q-87 0 -148.5 -65.5 t-61.5 -156.5v-125h346v-221h-346v-737z" />
<glyph unicode="fl" horiz-adv-x="1337" d="M492 0h-230v737h-250v221h250v125q0 182 128.5 310.5t311.5 128.5q119 0 222 -58l-109 -192q-54 33 -113 33q-87 0 -148.5 -65.5t-61.5 -156.5v-125h346v-221h-346v-737zM1190 0h-229v1300h229v-1300z" />
<glyph unicode="ffi" horiz-adv-x="1986" d="M1839 0h-229v958h229v-958zM1868 1210q0 -59 -42 -100t-102 -41t-101.5 41t-41.5 100t41.5 100.5t101.5 41.5t102 -41.5t42 -100.5zM1141 0h-230v737h-419v-737h-230v737h-250v221h250v99q0 182 128.5 310t311.5 128q113 0 207 -51l-108 -191q-52 25 -99 25 q-87 0 -148.5 -65t-61.5 -156v-99h419v125q0 182 129 310.5t312 128.5q116 0 213 -54l-109 -192q-56 29 -104 29q-87 0 -149 -65.5t-62 -156.5v-125h346v-221h-346v-737z" />
<glyph unicode="ffl" horiz-adv-x="1986" d="M1839 0h-229v1300h229v-1300zM1141 0h-230v737h-419v-737h-230v737h-250v221h250v99q0 182 128.5 310t311.5 128q113 0 207 -51l-108 -191q-52 25 -99 25q-87 0 -148.5 -65t-61.5 -156v-99h419v125q0 182 129 310.5t312 128.5q116 0 213 -54l-109 -192q-56 29 -104 29 q-87 0 -149 -65.5t-62 -156.5v-125h346v-221h-346v-737z" />
<glyph unicode="ft" horiz-adv-x="1478" d="M1190 0h-229v737h-469v-737h-230v737h-250v221h250v125q0 182 128.5 310.5t311.5 128.5q119 0 222 -58l-109 -192q-54 33 -113 33q-87 0 -148.5 -65.5t-61.5 -156.5v-125h469v342h229v-342h233v-221h-233v-737z" />
<glyph unicode="&#xd;" horiz-adv-x="614" />
<glyph unicode=" "  horiz-adv-x="614" />
<glyph unicode="&#x09;" horiz-adv-x="614" />
<glyph unicode="&#xa0;" horiz-adv-x="614" />
<glyph unicode="!" horiz-adv-x="544" d="M387 344h-229v1045h229v-1045zM416 115q0 -59 -42 -100.5t-102 -41.5t-101.5 41.5t-41.5 100.5t41.5 100t101.5 41t102 -41t42 -100z" />
<glyph unicode="&#x22;" horiz-adv-x="741" d="M588 940l-193 51l119 447l195 -52zM219 940l-192 51l118 447l195 -52z" />
<glyph unicode="#" horiz-adv-x="1341" d="M1157 365h-217l-66 -248h-219l66 248h-260l-66 -248h-219l66 248h-181v208h238l66 248h-181v209h236l67 248h220l-68 -248h260l68 248h219l-68 -248h162v-209h-217l-66 -248h160v-208zM778 573l66 248h-260l-66 -248h260z" />
<glyph unicode="$" horiz-adv-x="1060" d="M647 -106h-235v116q-133 34 -217 133t-84 224v20h247v-29q0 -64 49.5 -108.5t120.5 -44.5q72 0 122 44.5t50 108.5q0 76 -61 121l-360 258q-73 53 -116.5 128.5t-43.5 160.5q0 123 82.5 220.5t210.5 131.5v117h235v-117q130 -33 213.5 -130t83.5 -222v-20h-250v28 q0 62 -48.5 106t-117.5 44q-67 0 -114 -44t-47 -106q0 -70 63 -116l367 -261q72 -51 112.5 -127t40.5 -163q0 -127 -85 -225.5t-218 -131.5v-116z" />
<glyph unicode="%" horiz-adv-x="1935" d="M670 -51l-193 110l780 1358l195 -112zM1903 373q0 -166 -117.5 -283t-284.5 -117q-166 0 -282.5 117t-116.5 283t116.5 281.5t282.5 115.5q167 0 284.5 -115.5t117.5 -281.5zM1501 174q82 0 138.5 58t56.5 141t-56.5 139.5t-138.5 56.5q-80 0 -136 -56.5t-56 -139.5 t56 -141t136 -58zM834 995q0 -166 -117.5 -282.5t-284.5 -116.5q-166 0 -282.5 116.5t-116.5 282.5t116.5 282t282.5 116q167 0 284.5 -116t117.5 -282zM432 797q82 0 138.5 57.5t56.5 140.5t-56.5 140t-138.5 57q-80 0 -136 -57t-56 -140t56 -140.5t136 -57.5z" />
<glyph unicode="&#x26;" horiz-adv-x="1230" d="M1206 778h-170v-334q0 -203 -125.5 -337t-347.5 -134q-150 0 -267 68t-179 183t-62 255q0 134 65 247.5t175 180.5q-57 79 -57 185q0 134 95 228.5t230 94.5q90 0 168 -43.5t121 -116.5l-186 -106q-13 27 -42.5 44t-60.5 17q-44 0 -76 -34.5t-32 -83.5t31.5 -82t76.5 -33 h258v182h215v-182h170v-199zM821 444v334h-258q-121 0 -206 -87t-85 -212q0 -126 85.5 -213.5t205.5 -87.5q107 0 182.5 77t75.5 189z" />
<glyph unicode="'" horiz-adv-x="364" d="M219 940l-192 51l118 447l195 -52z" />
<glyph unicode="(" horiz-adv-x="618" d="M594 -291l-195 -119q-301 498 -301 967q0 460 301 967l195 -119q-264 -445 -264 -848q0 -415 264 -848z" />
<glyph unicode=")" horiz-adv-x="618" d="M219 -410l-194 119q264 433 264 848q0 403 -264 848l194 119q301 -507 301 -967q0 -469 -301 -967z" />
<glyph unicode="*" horiz-adv-x="974" d="M795 862l-152 -110l-156 229l-155 -229l-152 110l168 219l-266 78l59 178l260 -94l-8 279h189l-9 -279l261 94l59 -178l-268 -78z" />
<glyph unicode="+" horiz-adv-x="901" d="M561 195h-221v284h-285v221h285v285h221v-285h285v-221h-285v-284z" />
<glyph unicode="," horiz-adv-x="571" d="M283 -172v145h-7q-49 0 -80.5 32.5t-31.5 76.5q0 45 31 76.5t81 31.5q58 0 95 -47.5t37 -119.5q0 -75 -40 -135t-85 -60z" />
<glyph unicode="-" horiz-adv-x="782" d="M727 569h-672v222h672v-222z" />
<glyph unicode="." horiz-adv-x="571" d="M408 92q0 -50 -35 -84.5t-86 -34.5t-87 35t-36 84t36 83t87 34t86 -34t35 -83z" />
<glyph unicode="/" horiz-adv-x="692" d="M172 -383h-229l499 1878h234z" />
<glyph unicode="0" horiz-adv-x="1169" d="M586 -27q-140 0 -258 95t-186 258t-68 356q0 194 68 357.5t186 258.5t258 95q139 0 256.5 -95t185.5 -259t68 -357q0 -192 -68 -355.5t-185.5 -258.5t-256.5 -95zM586 195q74 0 137 66t100 178.5t37 244.5t-37 244t-100 177.5t-137 65.5q-75 0 -138.5 -65.5t-101 -177.5 t-37.5 -244t37.5 -244.5t101 -178.5t138.5 -66z" />
<glyph unicode="1" horiz-adv-x="622" d="M475 0h-233v1137h-201l131 221h303v-1358z" />
<glyph unicode="2" horiz-adv-x="1103" d="M1030 0h-985l670 803q45 54 45 139q0 94 -63 161.5t-152 67.5t-152 -67.5t-63 -161.5v-22h-236v22q0 188 132 319.5t319 131.5q186 0 318 -132t132 -319q0 -162 -98 -280l-369 -441h502v-221z" />
<glyph unicode="3" horiz-adv-x="1042" d="M512 616h-37v199h17q192 0 192 152q0 85 -55.5 144.5t-136.5 59.5q-80 0 -137.5 -60t-57.5 -144h-234q0 178 125.5 302t303.5 124t303 -124t125 -302q0 -150 -89 -232q66 -44 102 -128.5t36 -176.5t-36.5 -176.5t-97.5 -146t-145.5 -98t-177.5 -36.5t-177.5 36.5 t-145.5 98t-97.5 146t-36.5 176.5h234q0 -97 65.5 -166t157.5 -69q91 0 156 69t65 166q0 92 -62 139t-159 47z" />
<glyph unicode="4" horiz-adv-x="1069" d="M854 0h-225v238h-680l905 1159v-946h170v-213h-170v-238zM629 451v311l-244 -311h244z" />
<glyph unicode="5" horiz-adv-x="1071" d="M926 1126h-410l-31 -143q77 0 150 -17t139 -54.5t115.5 -92t78.5 -134t29 -175.5q0 -222 -157.5 -379.5t-378.5 -157.5q-141 0 -261 67.5t-194 180.5l170 150q37 -79 113.5 -127.5t165.5 -48.5q127 0 216 92t89 223q0 106 -87.5 179t-211.5 73q-176 0 -285 -88l148 684 h602v-232z" />
<glyph unicode="6" horiz-adv-x="1157" d="M860 1358l-260 -381q132 -3 243 -71t175.5 -182t64.5 -247q0 -138 -67 -254t-183 -183t-253 -67q-139 0 -255.5 67t-183.5 183t-67 254q0 154 88 285l413 596h285zM580 195q110 0 189 82t79 200q0 114 -79.5 196.5t-188.5 82.5q-112 0 -191.5 -82.5t-79.5 -196.5 q0 -118 79 -200t192 -82z" />
<glyph unicode="7" horiz-adv-x="1067" d="M236 -31l-191 127l674 1041h-606v221h1022z" />
<glyph unicode="8" horiz-adv-x="1050" d="M831 725q134 -131 134 -313q0 -181 -129.5 -310t-311.5 -129q-181 0 -309.5 128.5t-128.5 310.5q0 183 133 313q-98 116 -98 262q0 169 118 287.5t285 118.5q166 0 285 -119t119 -287q0 -148 -97 -262zM524 817q70 0 120 51.5t50 122.5q0 75 -49.5 127.5t-120.5 52.5 t-121.5 -52.5t-50.5 -127.5q0 -71 51 -122.5t121 -51.5zM524 195q86 0 146.5 62.5t60.5 150.5t-60.5 149t-146.5 61t-147.5 -61t-61.5 -149t61.5 -150.5t147.5 -62.5z" />
<glyph unicode="9" horiz-adv-x="1093" d="M383 -31l-182 148l274 338q-169 25 -285 158.5t-116 306.5q0 97 37.5 184.5t101 150.5t151.5 100.5t185 37.5q196 0 333.5 -138t137.5 -335q0 -169 -105 -299zM547 670q97 0 166 73.5t69 176.5q0 104 -69 177.5t-166 73.5t-167.5 -73.5t-70.5 -177.5q0 -102 70.5 -176 t167.5 -74z" />
<glyph unicode=":" horiz-adv-x="571" d="M408 868q0 -50 -35 -84t-86 -34t-87 34.5t-36 83.5t36 83t87 34t86 -34t35 -83zM408 92q0 -50 -35 -84.5t-86 -34.5t-87 35t-36 84t36 83t87 34t86 -34t35 -83z" />
<glyph unicode=";" horiz-adv-x="571" d="M408 868q0 -50 -35 -84t-86 -34t-87 34.5t-36 83.5t36 83t87 34t86 -34t35 -83zM283 -172v145h-7q-49 0 -80.5 32.5t-31.5 76.5q0 45 31 76.5t81 31.5q58 0 95 -47.5t37 -119.5q0 -75 -40 -135t-85 -60z" />
<glyph unicode="&#x3c;" horiz-adv-x="845" d="M680 193l-623 360v72l623 362l108 -194l-352 -205l352 -205z" />
<glyph unicode="=" horiz-adv-x="901" d="M846 705h-791v221h791v-221zM846 254h-791v221h791v-221z" />
<glyph unicode="&#x3e;" horiz-adv-x="845" d="M788 553l-622 -360l-109 190l353 205l-353 205l109 194l622 -362v-72z" />
<glyph unicode="?" horiz-adv-x="1017" d="M618 115q0 -59 -41.5 -100.5t-101.5 -41.5t-101.5 41.5t-41.5 100.5t41.5 100t101.5 41t101.5 -41t41.5 -100zM590 344h-230v344q56 -29 117 -29q106 0 183 79.5t77 189.5q0 113 -77 192.5t-183 79.5q-72 0 -133.5 -38.5t-97.5 -102.5l-197 112q64 111 177.5 177.5 t248.5 66.5q204 0 346 -141.5t142 -345.5q0 -172 -105 -303t-268 -170v-111z" />
<glyph unicode="@" horiz-adv-x="1126" d="M1071 479q0 -138 -67.5 -254.5t-184.5 -184t-256 -67.5t-256 67.5t-184.5 184t-67.5 254.5t67.5 254.5t184.5 184t256 67.5t256 -67.5t184.5 -184t67.5 -254.5zM563 84q162 0 275.5 115t113.5 280q0 166 -114 282t-275 116t-275 -116t-114 -282q0 -165 113.5 -280 t275.5 -115zM801 225h-121v68q-62 -82 -162 -82q-98 0 -166.5 78t-68.5 190t68.5 190.5t166.5 78.5q107 0 162 -84v69h121v-508zM545 322q59 0 100 44.5t41 110.5t-41 112t-100 46q-57 0 -98 -46t-41 -112q0 -65 40.5 -110t98.5 -45z" />
<glyph unicode="A" horiz-adv-x="1353" d="M1348 0h-256l-115 238h-600l-115 -238h-256l670 1391zM877 451l-201 417l-201 -417h402z" />
<glyph unicode="B" horiz-adv-x="1089" d="M588 0h-441v1358h371q163 0 285.5 -116.5t122.5 -278.5q0 -119 -103 -246q78 -57 127 -141.5t49 -178.5q0 -107 -57 -199t-151.5 -145t-202.5 -53zM381 793h137q70 0 121 50.5t51 121.5q0 72 -50.5 122t-121.5 50h-137v-344zM381 221h205q74 0 126 51.5t52 124.5 t-52 125.5t-126 52.5h-205v-354z" />
<glyph unicode="C" horiz-adv-x="1355" d="M1126 344l162 -162q-101 -99 -231 -154t-277 -55q-193 0 -357 95t-259.5 258.5t-95.5 355.5q0 193 95.5 357t259.5 259t357 95q294 0 506 -209l-162 -162q-66 69 -156.5 109t-189.5 40q-195 0 -335 -144.5t-140 -346.5q0 -97 38 -187t101.5 -155t151.5 -104t184 -39 q99 0 190.5 40t157.5 109z" />
<glyph unicode="D" horiz-adv-x="1187" d="M442 0h-295v1358h295q138 0 263.5 -54t216.5 -145t144.5 -217t53.5 -264t-53.5 -263.5t-144.5 -216.5t-216.5 -144.5t-263.5 -53.5zM383 221h53q121 0 225 62.5t164 168t60 226.5t-60 227t-164 169t-225 63h-53v-916z" />
<glyph unicode="E" horiz-adv-x="1153" d="M1016 0h-869v1358h869v-221h-635v-338h526v-221h-526v-357h635v-221z" />
<glyph unicode="F" horiz-adv-x="1116" d="M381 0h-234v1358h869v-221h-635v-338h526v-221h-526v-578z" />
<glyph unicode="G" horiz-adv-x="1386" d="M1024 264v201h-133v221h369v-530q-209 -183 -480 -183q-193 0 -357 95t-259.5 258.5t-95.5 355.5q0 193 95.5 357t259.5 259t357 95q146 0 275.5 -54.5t230.5 -152.5l-162 -164q-146 149 -346 149q-130 0 -240 -67.5t-172.5 -179.5t-62.5 -242q0 -135 65.5 -247.5 t174.5 -176t235 -63.5q137 0 246 69z" />
<glyph unicode="H" horiz-adv-x="1347" d="M1200 0h-233v578h-586v-578h-234v1358h234v-559h586v559h233v-1358z" />
<glyph unicode="I" horiz-adv-x="528" d="M381 0h-234v1358h234v-1358z" />
<glyph unicode="J" horiz-adv-x="925" d="M545 365v993h233v-977q0 -168 -119 -288t-286 -120q-118 0 -217.5 63t-149.5 165l201 98q21 -43 68.5 -73.5t97.5 -30.5q71 0 121.5 50t50.5 120z" />
<glyph unicode="K" horiz-adv-x="1167" d="M975 -31l-594 594v-563h-234v1358h234v-479l508 510l158 -166l-500 -502l586 -584z" />
<glyph unicode="L" horiz-adv-x="1052" d="M1004 0h-857v1358h234v-1137h623v-221z" />
<glyph unicode="M" horiz-adv-x="1722" d="M1698 0h-230l-233 764l-373 -795l-370 795l-238 -764h-229l415 1391l422 -899l422 899z" />
<glyph unicode="N" horiz-adv-x="1417" d="M1270 -33l-889 873v-840h-234v1391l889 -873v840h234v-1391z" />
<glyph unicode="O" horiz-adv-x="1562" d="M1495 682q0 -144 -56.5 -275.5t-152.5 -226.5t-228.5 -151t-277.5 -56q-193 0 -357 95t-259.5 258.5t-95.5 355.5q0 193 95.5 357t259.5 259t357 95q146 0 278 -56.5t228 -151.5t152.5 -226.5t56.5 -276.5zM778 195q131 0 242.5 66t175.5 177.5t64 241.5q0 203 -141 347 t-341 144q-129 0 -238.5 -66t-173 -179t-63.5 -246q0 -130 63.5 -241.5t173 -177.5t238.5 -66z" />
<glyph unicode="P" horiz-adv-x="1083" d="M381 0h-234v1358h349q140 0 260 -69t190 -188t70 -259q0 -141 -70 -260t-190 -187.5t-260 -68.5h-115v-326zM381 547h115q119 0 201.5 86.5t82.5 210.5q0 121 -83 207t-201 86h-115v-590z" />
<glyph unicode="Q" horiz-adv-x="1579" d="M1511 76l-172 -160l-165 176q-177 -119 -394 -119q-193 0 -357 95t-259.5 258.5t-95.5 355.5q0 193 95.5 357t259.5 259t357 95q146 0 278 -56.5t228 -151.5t152.5 -226.5t56.5 -276.5q0 -239 -147 -432zM778 195q131 0 242.5 66t175.5 177.5t64 241.5q0 203 -141 347 t-341 144q-129 0 -238.5 -66t-173 -179t-63.5 -246q0 -130 63.5 -241.5t173 -177.5t238.5 -66z" />
<glyph unicode="R" horiz-adv-x="1122" d="M899 -31l-356 357h-162v-326h-234v1358h349q140 0 260 -69t190 -188t70 -259q0 -132 -63.5 -245.5t-170.5 -184.5l279 -279zM381 547h115q119 0 201.5 86.5t82.5 210.5q0 121 -83 207t-201 86h-115v-590z" />
<glyph unicode="S" horiz-adv-x="1021" d="M645 516l-317 182q-81 46 -131 134t-50 188q0 155 109 264t264 109q104 0 193 -54t137 -143l-207 -113q-40 74 -119 74q-59 0 -100 -40.5t-41 -98.5q0 -37 19 -69t49 -50l329 -192q84 -49 131 -138t47 -194q0 -165 -118 -283.5t-283 -118.5q-60 0 -120 16.5t-108.5 43.5 t-93 59t-77 64.5t-56.5 59.5t-36 44l-13 16l193 119q5 -8 15 -20.5t42 -45.5t65.5 -58t83.5 -45.5t99 -20.5q71 0 121.5 50.5t50.5 121.5q0 44 -21 81.5t-57 57.5z" />
<glyph unicode="T" horiz-adv-x="1118" d="M676 0h-234v1137h-430v221h1094v-221h-430v-1137z" />
<glyph unicode="U" horiz-adv-x="1323" d="M961 504v854h233v-850q0 -146 -71 -269t-193 -194.5t-266 -71.5q-146 0 -269 71.5t-194.5 194.5t-71.5 269v850h233v-854q0 -128 89 -218.5t213 -90.5q122 0 209.5 90.5t87.5 218.5z" />
<glyph unicode="V" horiz-adv-x="1378" d="M690 -31l-684 1389h256l428 -869l426 869h256z" />
<glyph unicode="W" horiz-adv-x="1734" d="M1296 -33l-430 903l-426 -903l-434 1391h234l241 -785l387 818l387 -818l240 785h234z" />
<glyph unicode="X" horiz-adv-x="1376" d="M1364 0h-291l-385 492l-385 -492h-291l531 678l-531 680h291l385 -494l385 494h291l-530 -680z" />
<glyph unicode="Y" horiz-adv-x="1310" d="M772 0h-233v430l-537 928h266l389 -674l387 674h265l-537 -928v-430z" />
<glyph unicode="Z" horiz-adv-x="1148" d="M1071 0h-1020l656 1137h-629v221h1020l-656 -1137h629v-221z" />
<glyph unicode="[" horiz-adv-x="681" d="M614 -383h-467v1878h467v-217h-237v-1444h237v-217z" />
<glyph unicode="\" horiz-adv-x="692" d="M750 -383h-230l-504 1878h232z" />
<glyph unicode="]" horiz-adv-x="681" d="M537 -383h-467v217h237v1444h-237v217h467v-1878z" />
<glyph unicode="^" horiz-adv-x="1165" d="M1161 483l-192 -110l-385 665l-385 -665l-193 110l524 906h107z" />
<glyph unicode="_" horiz-adv-x="618" d="M643 -410h-668v107h668v-107z" />
<glyph unicode="`" horiz-adv-x="819" d="M690 1053l-608 151l61 221l594 -200z" />
<glyph unicode="a" horiz-adv-x="1159" d="M1030 0h-229v106q-130 -133 -301 -133q-121 0 -223.5 67.5t-162 184t-59.5 254.5t59.5 254.5t162 184t223.5 67.5q84 0 162.5 -36t138.5 -99v108h229v-958zM549 190q109 0 186.5 84t77.5 205t-77.5 206t-186.5 85q-108 0 -186 -85t-78 -206t78 -205t186 -84z" />
<glyph unicode="b" horiz-adv-x="1179" d="M377 0h-230v1495h230v-645q129 135 303 135q121 0 223 -67.5t161.5 -184t59.5 -254.5t-59.5 -254.5t-161.5 -184t-223 -67.5q-173 0 -303 133v-106zM631 190q108 0 186 85t78 204q0 121 -78 206t-186 85q-110 0 -188 -85t-78 -206q0 -120 78 -204.5t188 -84.5z" />
<glyph unicode="c" horiz-adv-x="980" d="M768 281l158 -156q-70 -72 -164.5 -112t-198.5 -40q-139 0 -256 67.5t-184.5 184t-67.5 254.5t67.5 254.5t184.5 184t256 67.5q104 0 198.5 -40t164.5 -111l-162 -152q-82 88 -201 88q-116 0 -197 -85t-81 -206q0 -120 80.5 -204.5t197.5 -84.5q121 0 205 91z" />
<glyph unicode="d" horiz-adv-x="1179" d="M1032 0h-229v106q-130 -133 -303 -133q-121 0 -223.5 67.5t-162 184t-59.5 254.5t59.5 254.5t162 184t223.5 67.5q174 0 303 -135v645h229v-1495zM549 190q110 0 188 84.5t78 204.5q0 121 -78 206t-188 85q-108 0 -186 -85t-78 -206q0 -119 78 -204t186 -85z" />
<glyph unicode="e" horiz-adv-x="1095" d="M1036 422h-751q0 -83 82 -157.5t186 -74.5q120 0 213 93l160 -158q-70 -72 -164.5 -112t-198.5 -40q-139 0 -256 67.5t-184.5 184t-67.5 254.5t66 254.5t179.5 184t248.5 67.5q134 0 247 -67.5t178.5 -184t65.5 -254.5zM299 612h498q-36 72 -103.5 117t-144.5 45 q-80 0 -144.5 -43t-105.5 -119z" />
<glyph unicode="f" horiz-adv-x="837" d="M492 0h-230v737h-250v221h250v125q0 182 128.5 310.5t311.5 128.5q184 0 314 -127l-160 -156q-66 66 -154 66q-87 0 -148.5 -65.5t-61.5 -156.5v-125h346v-221h-346v-737z" />
<glyph unicode="g" horiz-adv-x="1177" d="M549 188q109 0 187.5 85t78.5 206t-78.5 206t-187.5 85q-108 0 -186 -85t-78 -206t78 -206t186 -85zM801 90v16q-130 -133 -301 -133q-184 0 -314.5 148.5t-130.5 357.5q0 138 59.5 254.5t162 184t223.5 67.5q172 0 301 -135v108h229v-868q0 -136 -61.5 -249.5 t-171.5 -180t-244 -66.5q-136 0 -250.5 67t-179.5 181l192 115q33 -65 94.5 -105t133.5 -40q107 0 182.5 81t75.5 197z" />
<glyph unicode="h" d="M1092 0h-230v479q0 34 -0.5 53.5t-5 54t-13.5 56t-26.5 48.5t-42 42t-63.5 26t-88 11q-102 0 -174 -85t-72 -206v-479h-230v1495h230v-659q58 73 134 111t159 38q84 0 152 -21.5t111 -54t75 -80.5t47.5 -90t24.5 -94.5t10.5 -82.5t1.5 -64v-498z" />
<glyph unicode="i" horiz-adv-x="544" d="M387 0h-229v958h229v-958zM416 1274q0 -59 -42 -100t-102 -41t-101.5 41t-41.5 100t41.5 100t101.5 41t102 -41t42 -100z" />
<glyph unicode="j" horiz-adv-x="569" d="M440 1274q0 -59 -41.5 -100t-101.5 -41t-101.5 41t-41.5 100t41.5 100t101.5 41t101.5 -41t41.5 -100zM182 0v958h230v-958q0 -167 -120.5 -286.5t-287.5 -119.5q-112 0 -205 55t-147 148l182 107q26 -41 67.5 -65.5t92.5 -24.5q78 0 133 54.5t55 131.5z" />
<glyph unicode="k" horiz-adv-x="956" d="M934 111l-160 -148l-397 402v-365h-230v1495h230v-821l305 311l156 -156l-318 -309z" />
<glyph unicode="l" horiz-adv-x="524" d="M377 0h-230v1495h230v-1495z" />
<glyph unicode="m" horiz-adv-x="1748" d="M1626 0h-229v489q0 56 -8 100.5t-20.5 73.5t-31 50t-35.5 31.5t-38.5 17t-35 7.5t-30.5 1q-83 0 -141 -82.5t-58 -198.5v-489h-227v489q0 44 -2.5 75.5t-13.5 73t-31.5 68t-59 45.5t-92.5 19q-83 0 -139.5 -82.5t-56.5 -198.5v-489h-230v958h230v-131q52 73 120 115.5 t138 42.5q85 0 163 -46.5t117 -133.5q54 80 137 130t169 50q26 0 49 -2t66.5 -12.5t79 -28.5t76.5 -55.5t69 -88t46.5 -130.5t18.5 -179v-489z" />
<glyph unicode="n" d="M1092 0h-230v479q0 34 -0.5 53.5t-5 54t-13.5 56t-26.5 48.5t-42 42t-63.5 26t-88 11q-102 0 -174 -85t-72 -206v-479h-230v958h230v-124q57 75 134 113t161 38q66 0 122 -13.5t96.5 -34.5t72.5 -53t53 -64t36 -72t22.5 -72t11.5 -70.5t5 -60t1 -47.5v-498z" />
<glyph unicode="o" horiz-adv-x="1126" d="M1071 479q0 -138 -67.5 -254.5t-184.5 -184t-256 -67.5t-256 67.5t-184.5 184t-67.5 254.5t67.5 254.5t184.5 184t256 67.5t256 -67.5t184.5 -184t67.5 -254.5zM563 190q116 0 197.5 84t81.5 205t-81.5 206t-197.5 85t-197 -85t-81 -206t81 -205t197 -84z" />
<glyph unicode="p" horiz-adv-x="1179" d="M377 -379h-230v1337h230v-106q130 133 303 133q121 0 223 -67.5t161.5 -184t59.5 -254.5t-59.5 -254.5t-161.5 -184t-223 -67.5q-176 0 -303 136v-488zM631 190q108 0 186 85t78 206q0 119 -78 204t-186 85q-110 0 -188 -84.5t-78 -204.5q0 -121 78 -206t188 -85z" />
<glyph unicode="q" horiz-adv-x="1181" d="M549 190q110 0 188 85t78 206q0 120 -78 204.5t-188 84.5q-108 0 -186 -85t-78 -204q0 -121 78 -206t186 -85zM1282 -219l-266 -160h-213v488q-130 -136 -303 -136q-121 0 -223.5 67.5t-162 184t-59.5 254.5t59.5 254.5t162 184t223.5 67.5q173 0 303 -133v106h229v-1081 l144 92z" />
<glyph unicode="r" horiz-adv-x="901" d="M377 0h-230v958h230v-124q60 75 140 113t167 38q110 0 209 -61l-117 -201q-62 47 -139 47q-108 0 -184 -85t-76 -206v-479z" />
<glyph unicode="s" horiz-adv-x="792" d="M461 313l-230 144q-67 41 -101 106t-34 137q0 119 89 202t218 83q84 0 156 -37.5t111 -105.5l-193 -111q-33 41 -71 41q-32 0 -56 -22t-24 -50q0 -34 24 -49l240 -149q63 -40 96 -102.5t33 -139.5q0 -119 -92 -203t-224 -84q-128 0 -219 82.5t-94 198.5h236 q1 -27 25 -45.5t55 -18.5q33 0 55 21t22 51q0 36 -22 51z" />
<glyph unicode="t" horiz-adv-x="806" d="M518 0h-229v737h-234v221h234v431h229v-431h234v-221h-234v-737z" />
<glyph unicode="u" d="M1067 0h-229v125q-57 -75 -134 -113.5t-161 -38.5t-152 22t-111 54t-74.5 80.5t-46.5 90.5t-24 95t-10.5 82t-1.5 64v497h229v-479q0 -33 0.5 -53t5.5 -54.5t13.5 -56t26 -48.5t42.5 -42t64 -26t88 -11q102 0 174 85t72 206v479h229v-958z" />
<glyph unicode="v" horiz-adv-x="987" d="M494 -31l-486 989h244l242 -503l241 503h244z" />
<glyph unicode="w" horiz-adv-x="1527" d="M1030 -37l-266 551l-266 -551l-490 995h238l252 -512l266 543l266 -543l252 512h238z" />
<glyph unicode="x" horiz-adv-x="1056" d="M1049 0h-275l-246 309l-245 -309h-275l377 479l-377 479h275l245 -309l246 309h275l-377 -479z" />
<glyph unicode="y" horiz-adv-x="1040" d="M360 -410l-202 101l235 481l-385 786h252l262 -552l260 552h250z" />
<glyph unicode="z" horiz-adv-x="956" d="M856 0h-782l428 748h-402v210h783l-434 -745h407v-213z" />
<glyph unicode="{" horiz-adv-x="778" d="M729 -383h-119q-147 0 -247.5 99t-100.5 245v256q0 97 -67 163t-170 66v222q104 0 170.5 65t66.5 164v254q0 146 100.5 245t247.5 99h119v-217h-119q-51 0 -84.5 -35t-33.5 -86v-244q0 -102 -50.5 -197t-130.5 -159q82 -68 131.5 -161t49.5 -195v-246q0 -51 33.5 -86 t84.5 -35h119v-217z" />
<glyph unicode="|" horiz-adv-x="524" d="M377 -379h-230v1874h230v-1874z" />
<glyph unicode="}" horiz-adv-x="778" d="M168 -383h-119v217h119q51 0 85 35t34 86v246q0 102 49 195.5t131 160.5q-80 64 -130 159t-50 197v244q0 51 -34 86t-85 35h-119v217h119q147 0 247.5 -99t100.5 -245v-254q0 -99 67 -164t171 -65v-222q-103 0 -170.5 -66.5t-67.5 -162.5v-256q0 -146 -100.5 -245 t-247.5 -99z" />
<glyph unicode="~" horiz-adv-x="1437" d="M1153 780h229q0 -167 -115 -286t-280 -119q-132 0 -236 74t-141 194q-18 57 -60.5 92t-98.5 35q-68 0 -117 -57t-49 -133h-230q0 167 115.5 286t280.5 119q132 0 235.5 -74t140.5 -194q18 -57 61 -92t99 -35q68 0 117 57t49 133z" />
<glyph unicode="&#xa1;" horiz-adv-x="544" d="M387 -379h-229v1045h229v-1045zM416 895q0 -59 -42 -100t-102 -41t-101.5 41t-41.5 100t41.5 100t101.5 41t102 -41t42 -100z" />
<glyph unicode="&#xa2;" horiz-adv-x="1024" d="M676 27h-230v170q-172 39 -282.5 177t-110.5 320q0 181 111 320t282 174v174h230v-174q135 -26 250 -141l-166 -156q-78 88 -199 88q-113 0 -192.5 -83.5t-79.5 -201.5t79 -200t193 -82q123 0 203 90l162 -160q-104 -110 -250 -145v-170z" />
<glyph unicode="&#xa3;" horiz-adv-x="1064" d="M729 0h-655v209q49 0 88 35t47 86l35 239h-170v222h202l37 251q20 147 136 244.5t272 97.5q51 0 101 -12t74 -24l24 -13l-111 -186q-37 22 -88 22q-68 0 -118.5 -44t-59.5 -111l-33 -225h186v-222h-219l-51 -348h301q46 0 73 21t54 65l203 -108q-124 -199 -328 -199z" />
<glyph unicode="&#xa4;" horiz-adv-x="1126" d="M934 219l-86 86q-128 -86 -285 -86q-159 0 -284 86l-86 -86l-138 137l86 86q-86 125 -86 283q0 153 84 283l-84 84l138 139l86 -86q130 86 284 86q153 0 283 -86l88 86l137 -139l-86 -84q86 -128 86 -283q0 -153 -86 -283l86 -86zM563 422q122 0 206.5 88t84.5 215 t-84.5 216t-206.5 89t-207.5 -89t-85.5 -216t85.5 -215t207.5 -88z" />
<glyph unicode="&#xa5;" horiz-adv-x="1310" d="M772 0h-233v293h-287v110h287v27l-47 80h-240v111h176l-426 737h266l389 -674l387 674h265l-428 -737h161v-111h-225l-45 -80v-27h270v-110h-270v-293z" />
<glyph unicode="&#xa6;" horiz-adv-x="524" d="M377 688h-230v807h230v-807zM377 -379h-230v846h230v-846z" />
<glyph unicode="&#xa7;" horiz-adv-x="997" d="M582 133l-318 182q-77 44 -120.5 133t-43.5 189q0 114 64 203q-47 77 -47 176q0 156 109.5 264.5t267.5 108.5q159 0 267.5 -110.5t108.5 -274.5h-235q0 68 -40.5 111.5t-100.5 43.5q-59 0 -100.5 -42t-41.5 -103q0 -38 18.5 -69.5t49.5 -49.5l330 -193 q80 -47 118.5 -136t38.5 -195q0 -108 -59 -199q47 -80 47 -180q0 -166 -120.5 -284t-287.5 -118q-171 0 -290 119t-119 303h237q0 -87 49.5 -139.5t122.5 -52.5q70 0 121 51.5t51 122.5q0 44 -21 81.5t-56 57.5zM621 520l-297 170q-13 -26 -13 -55q0 -38 20 -75t50 -54 l311 -182q8 32 8 49q0 44 -22.5 86t-56.5 61z" />
<glyph unicode="&#xa8;" horiz-adv-x="819" d="M307 1239q0 -45 -32.5 -77t-79.5 -32q-46 0 -79.5 32.5t-33.5 76.5q0 45 33.5 77t79.5 32q47 0 79.5 -31.5t32.5 -77.5zM737 1239q0 -45 -32.5 -77t-79.5 -32q-46 0 -79.5 32.5t-33.5 76.5q0 45 33.5 77t79.5 32q47 0 79.5 -31.5t32.5 -77.5z" />
<glyph unicode="&#xa9;" horiz-adv-x="1163" d="M1090 1016q0 -138 -67.5 -254.5t-184.5 -184t-256 -67.5t-256 67.5t-184.5 184t-67.5 254.5t67.5 254.5t184.5 184t256 67.5t256 -67.5t184.5 -184t67.5 -254.5zM582 621q162 0 275.5 115t113.5 280t-113.5 281t-275.5 116t-275.5 -116t-113.5 -281t113.5 -280 t275.5 -115zM700 911l82 -84q-76 -79 -190 -79t-192 77.5t-78 190.5t78 190.5t192 77.5q113 0 190 -80l-84 -80q-45 45 -106 45q-63 0 -106.5 -45t-43.5 -108t43.5 -108.5t106.5 -45.5q62 0 108 49z" />
<glyph unicode="&#xaa;" horiz-adv-x="1021" d="M893 547h-195v90q-98 -113 -260 -113q-157 0 -270 125t-113 303q0 179 112.5 304.5t270.5 125.5q164 0 260 -114v90h195v-811zM473 694q99 0 168.5 76t69.5 182q0 109 -69 185.5t-169 76.5q-94 0 -161.5 -77t-67.5 -185q0 -106 67.5 -182t161.5 -76z" />
<glyph unicode="&#xab;" horiz-adv-x="1210" d="M610 0h-276l-277 479l277 479h276l-282 -479zM1153 0h-276l-277 479l277 479h276l-283 -479z" />
<glyph unicode="&#xac;" horiz-adv-x="901" d="M819 360h-229v230h-535v221h764v-451z" />
<glyph unicode="&#xad;" horiz-adv-x="782" d="M727 569h-672v222h672v-222z" />
<glyph unicode="&#xae;" horiz-adv-x="1163" d="M1090 1016q0 -138 -67.5 -254.5t-184.5 -184t-256 -67.5t-256 67.5t-184.5 184t-67.5 254.5t67.5 254.5t184.5 184t256 67.5t256 -67.5t184.5 -184t67.5 -254.5zM582 621q162 0 275.5 115t113.5 280t-113.5 281t-275.5 116t-275.5 -116t-113.5 -281t113.5 -280 t275.5 -115zM702 750l-135 133h-28v-121h-115v508h145q80 0 137.5 -57t57.5 -136q0 -45 -21 -86.5t-57 -66.5l96 -93zM539 993h28q32 0 55 24t23 58q0 35 -23 59.5t-55 24.5h-28v-166z" />
<glyph unicode="&#xaf;" horiz-adv-x="819" d="M737 1130h-655v222h655v-222z" />
<glyph unicode="&#xb0;" horiz-adv-x="684" d="M629 1102q0 -119 -83.5 -202t-203.5 -83t-203.5 83t-83.5 202q0 120 83.5 203.5t203.5 83.5t203.5 -83.5t83.5 -203.5zM342 930q69 0 118.5 50.5t49.5 121.5q0 72 -49.5 123t-118.5 51t-118.5 -51t-49.5 -123q0 -71 49.5 -121.5t118.5 -50.5z" />
<glyph unicode="&#xb1;" horiz-adv-x="901" d="M846 705h-285v-175h-221v175h-285v221h285v174h221v-174h285v-221zM846 254h-791v221h791v-221z" />
<glyph unicode="&#xb2;" horiz-adv-x="739" d="M666 547h-617v37l367 420q49 56 49 90q0 52 -34 88.5t-81 36.5q-49 0 -83 -36t-34 -89h-178q0 123 85.5 209t209.5 86q120 0 206.5 -86.5t86.5 -208.5q0 -62 -22.5 -107t-61.5 -88l-164 -182h271v-170z" />
<glyph unicode="&#xb3;" horiz-adv-x="776" d="M395 893h-28v170h14q37 0 63.5 22.5t26.5 55.5q0 32 -26.5 55t-63.5 23q-38 0 -68 -23t-30 -55v-15h-191q0 116 81 189.5t202 73.5q124 0 203 -72.5t79 -190.5q0 -39 -18.5 -77.5t-42.5 -57.5q42 -28 68 -75.5t26 -106.5q0 -121 -88 -201t-213 -80q-128 0 -215.5 79.5 t-87.5 201.5h193v-14q0 -40 35.5 -68.5t80.5 -28.5q44 0 76.5 28.5t32.5 68.5q0 41 -32 69.5t-77 28.5z" />
<glyph unicode="&#xb4;" horiz-adv-x="819" d="M737 1204l-608 -151l-47 172l594 200z" />
<glyph unicode="&#xb5;" d="M377 -379h-230v1337h230v-479q0 -121 72 -206t174 -85q49 0 88 11t63.5 26t42 42t26.5 48.5t13.5 56t5 54t0.5 53.5v479h230v-497q0 -25 -1 -47t-5.5 -60.5t-12 -70.5t-22.5 -72.5t-36 -72.5t-53.5 -64t-73 -53t-96.5 -34.5t-122 -13.5q-83 0 -159 37.5t-134 108.5v-498z " />
<glyph unicode="&#xb6;" horiz-adv-x="1056" d="M909 0h-229v1137h-111v-1137h-229v768q-119 0 -202 86.5t-83 210.5q0 120 83.5 206.5t201.5 86.5h569v-1358z" />
<glyph unicode="&#xb7;" horiz-adv-x="571" d="M408 682q0 -50 -35 -84.5t-86 -34.5t-87 35t-36 84t36 83t87 34t86 -34t35 -83z" />
<glyph unicode="&#xb8;" horiz-adv-x="819" d="M319 -389l66 117q14 -7 25 -7q22 0 37.5 15t15.5 35t-15.5 34.5t-37.5 14.5h-64v180h127v-61q58 -19 95.5 -65t37.5 -103q0 -74 -57.5 -127.5t-138.5 -53.5q-44 0 -91 21z" />
<glyph unicode="&#xb9;" horiz-adv-x="464" d="M352 547h-194v618h-133l114 193h213v-811z" />
<glyph unicode="&#xba;" horiz-adv-x="972" d="M918 954q0 -180 -126 -305t-307 -125q-180 0 -305 125t-125 305q0 179 125 303.5t305 124.5q181 0 307 -124.5t126 -303.5zM485 702q100 0 171 72.5t71 177.5t-71 178.5t-171 73.5t-170.5 -73.5t-70.5 -178.5t70.5 -177.5t170.5 -72.5z" />
<glyph unicode="&#xbb;" horiz-adv-x="1210" d="M877 0h-277l283 479l-283 479h277l276 -479zM334 0h-277l283 479l-283 479h277l276 -479z" />
<glyph unicode="&#xbc;" horiz-adv-x="1454" d="M369 547h-195v618h-133l115 193h213v-811zM346 -33l-168 96l766 1330l168 -97zM1288 0h-180v135h-383v170l387 506h176v-506h105v-170h-105v-135zM1112 305v227l-174 -227h174z" />
<glyph unicode="&#xbd;" horiz-adv-x="1533" d="M369 547h-195v618h-133l115 193h213v-811zM346 -33l-168 96l766 1330l168 -97zM1460 0h-616v37l366 420q50 57 50 90q0 52 -34 88.5t-81 36.5q-49 0 -83 -36t-34 -89h-178q0 123 85.5 209t209.5 86q121 0 207 -86t86 -209q0 -62 -22.5 -107t-61.5 -88l-164 -182h270v-170 z" />
<glyph unicode="&#xbe;" horiz-adv-x="1712" d="M395 893h-28v170h14q37 0 63.5 22.5t26.5 55.5q0 32 -26.5 55t-63.5 23q-38 0 -68 -23t-30 -55v-15h-191q0 116 81 189.5t202 73.5q124 0 203 -72.5t79 -190.5q0 -39 -18.5 -77.5t-42.5 -57.5q42 -28 68 -75.5t26 -106.5q0 -121 -88 -201t-213 -80q-128 0 -215.5 79.5 t-87.5 201.5h193v-14q0 -40 35.5 -68.5t80.5 -28.5q44 0 76.5 28.5t32.5 68.5q0 41 -32 69.5t-77 28.5zM602 -33l-168 96l766 1330l168 -97zM1546 0h-180v135h-383v170l387 506h176v-506h105v-170h-105v-135zM1370 305v227l-174 -227h174z" />
<glyph unicode="&#xbf;" horiz-adv-x="1017" d="M686 895q0 -59 -41.5 -100t-101.5 -41t-102 41t-42 100t42 100t102 41t101.5 -41t41.5 -100zM772 -49l197 -113q-64 -111 -177.5 -177.5t-248.5 -66.5q-204 0 -346 142t-142 346q0 172 105 303t268 170v111h229v-344q-54 28 -116 28q-106 0 -183 -79t-77 -189 q0 -113 77 -192.5t183 -79.5q72 0 133.5 38.5t97.5 102.5z" />
<glyph unicode="&#xc0;" horiz-adv-x="1353" d="M1348 0h-256l-115 238h-600l-115 -238h-256l670 1391zM877 451l-201 417l-201 -417h402zM956 1462l-608 152l62 221l594 -201z" />
<glyph unicode="&#xc1;" horiz-adv-x="1353" d="M1348 0h-256l-115 238h-600l-115 -238h-256l670 1391zM877 451l-201 417l-201 -417h402zM1004 1614l-609 -152l-47 172l594 201z" />
<glyph unicode="&#xc2;" horiz-adv-x="1353" d="M1348 0h-256l-115 238h-600l-115 -238h-256l670 1391zM877 451l-201 417l-201 -417h402zM909 1466l-233 136l-234 -136l-123 156l304 176h108l301 -176z" />
<glyph unicode="&#xc3;" horiz-adv-x="1353" d="M1034 1651l-96 -97q-63 -63 -154 -63q-88 0 -151 63l-45 45q-7 7 -17 7q-9 0 -16 -7l-96 -98l-137 137l96 97q63 63 153 63q89 0 152 -63l45 -45q7 -7 16 -7q10 0 17 7l96 98zM1348 0h-256l-115 238h-600l-115 -238h-256l670 1391zM877 451l-201 417l-201 -417h402z" />
<glyph unicode="&#xc4;" horiz-adv-x="1353" d="M1348 0h-256l-115 238h-600l-115 -238h-256l670 1391zM877 451l-201 417l-201 -417h402zM573 1649q0 -45 -32.5 -77t-79.5 -32q-46 0 -79.5 32.5t-33.5 76.5q0 45 33.5 76.5t79.5 31.5q47 0 79.5 -31t32.5 -77zM1004 1649q0 -45 -33 -77t-80 -32q-46 0 -79.5 32.5 t-33.5 76.5q0 45 33.5 76.5t79.5 31.5q47 0 80 -31t33 -77z" />
<glyph unicode="&#xc5;" horiz-adv-x="1353" d="M1348 0h-256l-115 238h-600l-115 -238h-256l670 1391zM877 451l-201 417l-201 -417h402zM838 1647q0 -66 -47 -111t-115 -45t-114 45t-46 111t46.5 111.5t113.5 45.5q68 0 115 -45.5t47 -111.5zM733 1647q0 23 -17 39t-40 16t-39 -16t-16 -39t16 -38.5t39 -15.5 q24 0 40.5 15.5t16.5 38.5z" />
<glyph unicode="&#xc6;" horiz-adv-x="1806" d="M801 451v475l-309 -475h309zM1669 0h-868v238h-451l-155 -238h-271l893 1358h852v-221h-635v-338h527v-221h-527v-357h635v-221z" />
<glyph unicode="&#xc7;" horiz-adv-x="1355" d="M627 -389l65 117q14 -7 25 -7q22 0 37.5 15t15.5 35t-15.5 34.5t-37.5 14.5h-64v166q-251 45 -418 241t-167 455q0 193 95.5 357t259.5 259t357 95q294 0 506 -209l-162 -162q-66 69 -156.5 109t-189.5 40q-195 0 -335 -144.5t-140 -346.5q0 -97 38 -187t101.5 -155 t151.5 -104t184 -39q99 0 190.5 40t157.5 109l162 -162q-101 -99 -231 -154t-277 -55v-34q58 -19 95.5 -65t37.5 -103q0 -74 -57.5 -127.5t-138.5 -53.5q-43 0 -90 21z" />
<glyph unicode="&#xc8;" horiz-adv-x="1153" d="M1016 0h-869v1358h869v-221h-635v-338h526v-221h-526v-357h635v-221zM852 1462l-608 152l61 221l594 -201z" />
<glyph unicode="&#xc9;" horiz-adv-x="1153" d="M1016 0h-869v1358h869v-221h-635v-338h526v-221h-526v-357h635v-221zM899 1614l-608 -152l-47 172l594 201z" />
<glyph unicode="&#xca;" horiz-adv-x="1153" d="M1016 0h-869v1358h869v-221h-635v-338h526v-221h-526v-357h635v-221zM817 1466l-233 136l-234 -136l-123 156l303 176h109l301 -176z" />
<glyph unicode="&#xcb;" horiz-adv-x="1153" d="M1016 0h-869v1358h869v-221h-635v-338h526v-221h-526v-357h635v-221zM469 1649q0 -45 -33 -77t-80 -32q-46 0 -79 32.5t-33 76.5q0 45 33 76.5t79 31.5q47 0 80 -31t33 -77zM899 1649q0 -45 -33 -77t-80 -32q-46 0 -79 32.5t-33 76.5q0 45 33 76.5t79 31.5q47 0 80 -31 t33 -77z" />
<glyph unicode="&#xcc;" horiz-adv-x="528" d="M381 0h-234v1358h234v-1358zM547 1462l-608 152l61 221l594 -201z" />
<glyph unicode="&#xcd;" horiz-adv-x="528" d="M381 0h-234v1358h234v-1358zM592 1614l-608 -152l-47 172l593 201z" />
<glyph unicode="&#xce;" horiz-adv-x="528" d="M381 0h-234v1358h234v-1358zM500 1466l-234 136l-233 -136l-123 156l303 176h109l301 -176z" />
<glyph unicode="&#xcf;" horiz-adv-x="528" d="M381 0h-234v1358h234v-1358zM162 1649q0 -45 -33 -77t-80 -32q-46 0 -79 32.5t-33 76.5q0 45 33 76.5t79 31.5q47 0 80 -31t33 -77zM592 1649q0 -45 -33 -77t-80 -32q-46 0 -79 32.5t-33 76.5q0 45 33 76.5t79 31.5q47 0 80 -31t33 -77z" />
<glyph unicode="&#xd0;" horiz-adv-x="1187" d="M442 0h-295v569h-174v222h174v567h295q138 0 263.5 -54t216.5 -145t144.5 -217t53.5 -264t-53.5 -263.5t-144.5 -216.5t-216.5 -144.5t-263.5 -53.5zM383 221h53q121 0 225 62.5t164 168t60 226.5t-60 227t-164 169t-225 63h-53v-346h174v-222h-174v-348z" />
<glyph unicode="&#xd1;" horiz-adv-x="1417" d="M1065 1655l-96 -96q-64 -64 -154 -64q-87 0 -151 64l-46 45q-6 6 -16 6t-16 -6l-97 -99l-137 137l97 97q63 63 153 63q89 0 152 -63l45 -45q6 -6 16 -6t16 6l97 98zM1270 -33l-889 873v-840h-234v1391l889 -873v840h234v-1391z" />
<glyph unicode="&#xd2;" horiz-adv-x="1562" d="M1495 682q0 -144 -56.5 -275.5t-152.5 -226.5t-228.5 -151t-277.5 -56q-193 0 -357 95t-259.5 258.5t-95.5 355.5q0 193 95.5 357t259.5 259t357 95q146 0 278 -56.5t228 -151.5t152.5 -226.5t56.5 -276.5zM778 195q131 0 242.5 66t175.5 177.5t64 241.5q0 203 -141 347 t-341 144q-129 0 -238.5 -66t-173 -179t-63.5 -246q0 -130 63.5 -241.5t173 -177.5t238.5 -66zM1057 1462l-608 152l61 221l594 -201z" />
<glyph unicode="&#xd3;" horiz-adv-x="1562" d="M1495 682q0 -144 -56.5 -275.5t-152.5 -226.5t-228.5 -151t-277.5 -56q-193 0 -357 95t-259.5 258.5t-95.5 355.5q0 193 95.5 357t259.5 259t357 95q146 0 278 -56.5t228 -151.5t152.5 -226.5t56.5 -276.5zM778 195q131 0 242.5 66t175.5 177.5t64 241.5q0 203 -141 347 t-341 144q-129 0 -238.5 -66t-173 -179t-63.5 -246q0 -130 63.5 -241.5t173 -177.5t238.5 -66zM1104 1614l-608 -152l-47 172l593 201z" />
<glyph unicode="&#xd4;" horiz-adv-x="1562" d="M1495 682q0 -144 -56.5 -275.5t-152.5 -226.5t-228.5 -151t-277.5 -56q-193 0 -357 95t-259.5 258.5t-95.5 355.5q0 193 95.5 357t259.5 259t357 95q146 0 278 -56.5t228 -151.5t152.5 -226.5t56.5 -276.5zM778 195q131 0 242.5 66t175.5 177.5t64 241.5q0 203 -141 347 t-341 144q-129 0 -238.5 -66t-173 -179t-63.5 -246q0 -130 63.5 -241.5t173 -177.5t238.5 -66zM1012 1466l-234 136l-233 -136l-123 156l303 176h109l301 -176z" />
<glyph unicode="&#xd5;" horiz-adv-x="1562" d="M1135 1655l-97 -96q-64 -64 -153 -64q-88 0 -152 64l-45 45q-6 6 -16 6q-11 0 -17 -6l-96 -99l-137 137l96 97q63 63 154 63q88 0 151 -63l45 -45q6 -6 17 -6q10 0 16 6l96 98zM1495 682q0 -144 -56.5 -275.5t-152.5 -226.5t-228.5 -151t-277.5 -56q-193 0 -357 95 t-259.5 258.5t-95.5 355.5q0 193 95.5 357t259.5 259t357 95q146 0 278 -56.5t228 -151.5t152.5 -226.5t56.5 -276.5zM778 195q131 0 242.5 66t175.5 177.5t64 241.5q0 203 -141 347t-341 144q-129 0 -238.5 -66t-173 -179t-63.5 -246q0 -130 63.5 -241.5t173 -177.5 t238.5 -66z" />
<glyph unicode="&#xd6;" horiz-adv-x="1562" d="M1495 682q0 -144 -56.5 -275.5t-152.5 -226.5t-228.5 -151t-277.5 -56q-193 0 -357 95t-259.5 258.5t-95.5 355.5q0 193 95.5 357t259.5 259t357 95q146 0 278 -56.5t228 -151.5t152.5 -226.5t56.5 -276.5zM778 195q131 0 242.5 66t175.5 177.5t64 241.5q0 203 -141 347 t-341 144q-129 0 -238.5 -66t-173 -179t-63.5 -246q0 -130 63.5 -241.5t173 -177.5t238.5 -66zM676 1649q0 -45 -33 -77t-80 -32q-46 0 -79 32.5t-33 76.5q0 45 33 76.5t79 31.5q47 0 80 -31t33 -77zM1106 1649q0 -45 -33 -77t-80 -32q-46 0 -79 32.5t-33 76.5q0 45 33 76.5 t79 31.5q47 0 80 -31t33 -77z" />
<glyph unicode="&#xd7;" horiz-adv-x="901" d="M700 193l-249 253l-250 -253l-146 145l254 250l-254 250l146 145l250 -254l249 254l146 -145l-254 -250l254 -250z" />
<glyph unicode="&#xd8;" horiz-adv-x="1562" d="M229 -27l-157 156l133 133q-137 190 -137 420q0 193 95.5 357t259.5 259t357 95q231 0 416 -133l133 133l160 -160l-133 -133q139 -189 139 -418q0 -144 -56.5 -275.5t-152.5 -226.5t-228.5 -151t-277.5 -56q-233 0 -418 133zM1190 934l-664 -664q115 -75 252 -75 q131 0 242.5 66t175.5 177.5t64 241.5t-70 254zM371 430l663 666q-118 75 -256 75q-129 0 -238.5 -66t-173 -179t-63.5 -246t68 -250z" />
<glyph unicode="&#xd9;" horiz-adv-x="1323" d="M961 504v854h233v-850q0 -146 -71 -269t-193 -194.5t-266 -71.5q-146 0 -269 71.5t-194.5 194.5t-71.5 269v850h233v-854q0 -128 89 -218.5t213 -90.5q122 0 209.5 90.5t87.5 218.5zM942 1462l-608 152l61 221l594 -201z" />
<glyph unicode="&#xda;" horiz-adv-x="1323" d="M961 504v854h233v-850q0 -146 -71 -269t-193 -194.5t-266 -71.5q-146 0 -269 71.5t-194.5 194.5t-71.5 269v850h233v-854q0 -128 89 -218.5t213 -90.5q122 0 209.5 90.5t87.5 218.5zM989 1614l-608 -152l-47 172l594 201z" />
<glyph unicode="&#xdb;" horiz-adv-x="1323" d="M961 504v854h233v-850q0 -146 -71 -269t-193 -194.5t-266 -71.5q-146 0 -269 71.5t-194.5 194.5t-71.5 269v850h233v-854q0 -128 89 -218.5t213 -90.5q122 0 209.5 90.5t87.5 218.5zM895 1466l-233 136l-234 -136l-123 156l303 176h109l301 -176z" />
<glyph unicode="&#xdc;" horiz-adv-x="1323" d="M961 504v854h233v-850q0 -146 -71 -269t-193 -194.5t-266 -71.5q-146 0 -269 71.5t-194.5 194.5t-71.5 269v850h233v-854q0 -128 89 -218.5t213 -90.5q122 0 209.5 90.5t87.5 218.5zM559 1649q0 -45 -33 -77t-80 -32q-46 0 -79 32.5t-33 76.5q0 45 33 76.5t79 31.5 q47 0 80 -31t33 -77zM989 1649q0 -45 -32.5 -77t-79.5 -32q-46 0 -79.5 32.5t-33.5 76.5q0 45 33.5 76.5t79.5 31.5q47 0 79.5 -31t32.5 -77z" />
<glyph unicode="&#xdd;" horiz-adv-x="1310" d="M772 0h-233v430l-537 928h266l389 -674l387 674h265l-537 -928v-430zM983 1614l-608 -152l-47 172l594 201z" />
<glyph unicode="&#xde;" horiz-adv-x="1083" d="M381 0h-234v1358h234v-162h115q140 0 260 -69t190 -188t70 -259q0 -141 -70 -260t-190 -187.5t-260 -68.5h-115v-164zM381 385h115q119 0 201.5 86.5t82.5 210.5q0 121 -83 207t-201 86h-115v-590z" />
<glyph unicode="&#xdf;" horiz-adv-x="1175" d="M377 0h-230v1090q0 180 127 306t308 126q180 0 306 -126t126 -306q0 -91 -34.5 -171t-100.5 -122q95 -45 150.5 -148t55.5 -221q0 -189 -132 -322t-322 -133q-123 0 -228 60l111 192q56 -32 117 -32q94 0 160.5 67.5t66.5 165.5t-66.5 165.5t-160.5 67.5h-103v222h54 q84 0 144 62t60 151q0 90 -60 151.5t-144 61.5q-85 0 -145 -61.5t-60 -151.5v-1094z" />
<glyph unicode="&#xe0;" horiz-adv-x="1159" d="M1030 0h-229v106q-130 -133 -301 -133q-121 0 -223.5 67.5t-162 184t-59.5 254.5t59.5 254.5t162 184t223.5 67.5q84 0 162.5 -36t138.5 -99v108h229v-958zM549 190q109 0 186.5 84t77.5 205t-77.5 206t-186.5 85q-108 0 -186 -85t-78 -206t78 -205t186 -84zM838 1053 l-609 151l62 221l594 -200z" />
<glyph unicode="&#xe1;" horiz-adv-x="1159" d="M1030 0h-229v106q-130 -133 -301 -133q-121 0 -223.5 67.5t-162 184t-59.5 254.5t59.5 254.5t162 184t223.5 67.5q84 0 162.5 -36t138.5 -99v108h229v-958zM549 190q109 0 186.5 84t77.5 205t-77.5 206t-186.5 85q-108 0 -186 -85t-78 -206t78 -205t186 -84zM885 1204 l-609 -151l-47 172l594 200z" />
<glyph unicode="&#xe2;" horiz-adv-x="1159" d="M1030 0h-229v106q-130 -133 -301 -133q-121 0 -223.5 67.5t-162 184t-59.5 254.5t59.5 254.5t162 184t223.5 67.5q84 0 162.5 -36t138.5 -99v108h229v-958zM549 190q109 0 186.5 84t77.5 205t-77.5 206t-186.5 85q-108 0 -186 -85t-78 -206t78 -205t186 -84zM791 1057 l-234 135l-233 -135l-123 155l303 177h108l301 -177z" />
<glyph unicode="&#xe3;" horiz-adv-x="1159" d="M913 1245l-96 -96q-64 -64 -153 -64q-88 0 -152 64l-45 45q-6 6 -16 6q-11 0 -17 -6l-96 -98l-137 137l96 96q64 64 154 64q87 0 151 -64l45 -45q6 -6 17 -6q10 0 16 6l96 98zM1030 0h-229v106q-130 -133 -301 -133q-121 0 -223.5 67.5t-162 184t-59.5 254.5t59.5 254.5 t162 184t223.5 67.5q84 0 162.5 -36t138.5 -99v108h229v-958zM549 190q109 0 186.5 84t77.5 205t-77.5 206t-186.5 85q-108 0 -186 -85t-78 -206t78 -205t186 -84z" />
<glyph unicode="&#xe4;" horiz-adv-x="1159" d="M1030 0h-229v106q-130 -133 -301 -133q-121 0 -223.5 67.5t-162 184t-59.5 254.5t59.5 254.5t162 184t223.5 67.5q84 0 162.5 -36t138.5 -99v108h229v-958zM549 190q109 0 186.5 84t77.5 205t-77.5 206t-186.5 85q-108 0 -186 -85t-78 -206t78 -205t186 -84zM455 1239 q0 -45 -33 -77t-80 -32q-46 0 -79.5 32.5t-33.5 76.5q0 45 33.5 77t79.5 32q47 0 80 -31.5t33 -77.5zM885 1239q0 -45 -33 -77t-80 -32q-46 0 -79.5 32.5t-33.5 76.5q0 45 33.5 77t79.5 32q47 0 80 -31.5t33 -77.5z" />
<glyph unicode="&#xe5;" horiz-adv-x="1159" d="M1030 0h-229v106q-130 -133 -301 -133q-121 0 -223.5 67.5t-162 184t-59.5 254.5t59.5 254.5t162 184t223.5 67.5q84 0 162.5 -36t138.5 -99v108h229v-958zM549 190q109 0 186.5 84t77.5 205t-77.5 206t-186.5 85q-108 0 -186 -85t-78 -206t78 -205t186 -84zM719 1237 q0 -66 -47 -111t-115 -45t-114 45t-46 111t46.5 112t113.5 46q68 0 115 -46t47 -112zM614 1237q0 23 -17 39t-40 16t-39 -16t-16 -39t16 -38t39 -15q24 0 40.5 15t16.5 38z" />
<glyph unicode="&#xe6;" horiz-adv-x="1853" d="M1794 422h-752q0 -82 82.5 -157t186.5 -75q120 0 213 93l159 -158q-70 -72 -164 -112t-198 -40q-162 0 -291 90v-63h-229v106q-130 -133 -301 -133q-121 0 -223.5 67.5t-162 184t-59.5 254.5t59.5 254.5t162 184t223.5 67.5q172 0 301 -135v108h229v-59q127 86 277 86 q134 0 247 -67.5t178.5 -184t65.5 -254.5zM549 190q109 0 186.5 84t77.5 205t-77.5 206t-186.5 85q-108 0 -186 -85t-78 -206t78 -205t186 -84zM1057 612h497q-39 75 -104.5 118.5t-142.5 43.5q-163 0 -250 -162z" />
<glyph unicode="&#xe7;" horiz-adv-x="980" d="M406 -389l65 117q14 -7 25 -7q22 0 37.5 15t15.5 35t-15.5 34.5t-37.5 14.5h-64v172q-166 42 -271.5 176t-105.5 311q0 138 67.5 254.5t184.5 184t256 67.5q104 0 198.5 -40t164.5 -111l-162 -152q-82 88 -201 88q-116 0 -197 -85t-81 -206q0 -120 80.5 -204.5 t197.5 -84.5q121 0 205 91l158 -156q-70 -72 -165 -112t-202 -40v-34q58 -19 95.5 -65t37.5 -103q0 -74 -57.5 -127.5t-138.5 -53.5q-43 0 -90 21z" />
<glyph unicode="&#xe8;" horiz-adv-x="1095" d="M1036 422h-751q0 -83 82 -157.5t186 -74.5q120 0 213 93l160 -158q-70 -72 -164.5 -112t-198.5 -40q-139 0 -256 67.5t-184.5 184t-67.5 254.5t66 254.5t179.5 184t248.5 67.5q134 0 247 -67.5t178.5 -184t65.5 -254.5zM299 612h498q-36 72 -103.5 117t-144.5 45 q-80 0 -144.5 -43t-105.5 -119zM834 1053l-609 151l62 221l594 -200z" />
<glyph unicode="&#xe9;" horiz-adv-x="1095" d="M1036 422h-751q0 -83 82 -157.5t186 -74.5q120 0 213 93l160 -158q-70 -72 -164.5 -112t-198.5 -40q-139 0 -256 67.5t-184.5 184t-67.5 254.5t66 254.5t179.5 184t248.5 67.5q134 0 247 -67.5t178.5 -184t65.5 -254.5zM299 612h498q-36 72 -103.5 117t-144.5 45 q-80 0 -144.5 -43t-105.5 -119zM881 1204l-609 -151l-47 172l594 200z" />
<glyph unicode="&#xea;" horiz-adv-x="1095" d="M1036 422h-751q0 -83 82 -157.5t186 -74.5q120 0 213 93l160 -158q-70 -72 -164.5 -112t-198.5 -40q-139 0 -256 67.5t-184.5 184t-67.5 254.5t66 254.5t179.5 184t248.5 67.5q134 0 247 -67.5t178.5 -184t65.5 -254.5zM299 612h498q-36 72 -103.5 117t-144.5 45 q-80 0 -144.5 -43t-105.5 -119zM780 1057l-233 135l-234 -135l-123 155l304 177h108l301 -177z" />
<glyph unicode="&#xeb;" horiz-adv-x="1095" d="M1036 422h-751q0 -83 82 -157.5t186 -74.5q120 0 213 93l160 -158q-70 -72 -164.5 -112t-198.5 -40q-139 0 -256 67.5t-184.5 184t-67.5 254.5t66 254.5t179.5 184t248.5 67.5q134 0 247 -67.5t178.5 -184t65.5 -254.5zM299 612h498q-36 72 -103.5 117t-144.5 45 q-80 0 -144.5 -43t-105.5 -119zM446 1239q0 -45 -32.5 -77t-79.5 -32q-46 0 -79.5 32.5t-33.5 76.5q0 45 33.5 77t79.5 32q47 0 79.5 -31.5t32.5 -77.5zM877 1239q0 -45 -33 -77t-80 -32q-46 0 -79.5 32.5t-33.5 76.5q0 45 33.5 77t79.5 32q47 0 80 -31.5t33 -77.5z" />
<glyph unicode="&#xec;" horiz-adv-x="544" d="M387 0h-229v958h229v-958zM553 1053l-608 151l61 221l594 -200z" />
<glyph unicode="&#xed;" horiz-adv-x="544" d="M387 0h-229v958h229v-958zM602 1204l-608 -151l-47 172l594 200z" />
<glyph unicode="&#xee;" horiz-adv-x="544" d="M387 0h-229v958h229v-958zM506 1057l-234 135l-233 -135l-123 155l303 177h109l301 -177z" />
<glyph unicode="&#xef;" horiz-adv-x="544" d="M387 0h-229v958h229v-958zM170 1239q0 -45 -33 -77t-80 -32q-46 0 -79 32.5t-33 76.5q0 45 33 77t79 32q47 0 80 -31.5t33 -77.5zM600 1239q0 -45 -33 -77t-80 -32q-46 0 -79 32.5t-33 76.5q0 45 33 77t79 32q47 0 80 -31.5t33 -77.5z" />
<glyph unicode="&#xf0;" horiz-adv-x="1157" d="M872 1288l-174 -100l297 -426q88 -131 88 -285q0 -138 -66.5 -254t-183 -183t-255.5 -67q-137 0 -253 67t-183.5 183t-67.5 254q0 203 140.5 348.5t342.5 151.5l-63 92l-195 -111l-57 97l186 108l-131 195h285l51 -76l182 107zM578 195q113 0 191.5 82t78.5 200 q0 115 -79 197t-191 82q-109 0 -189 -82.5t-80 -196.5q0 -117 79.5 -199.5t189.5 -82.5z" />
<glyph unicode="&#xf1;" d="M977 1245l-96 -96q-64 -64 -154 -64q-88 0 -152 64l-45 45q-6 6 -16 6t-16 -6l-97 -98l-137 137l96 96q64 64 154 64q88 0 152 -64l45 -45q6 -6 16 -6t16 6l97 98zM1092 0h-230v479q0 34 -0.5 53.5t-5 54t-13.5 56t-26.5 48.5t-42 42t-63.5 26t-88 11q-102 0 -174 -85 t-72 -206v-479h-230v958h230v-124q57 75 134 113t161 38q66 0 122 -13.5t96.5 -34.5t72.5 -53t53 -64t36 -72t22.5 -72t11.5 -70.5t5 -60t1 -47.5v-498z" />
<glyph unicode="&#xf2;" horiz-adv-x="1126" d="M1071 479q0 -138 -67.5 -254.5t-184.5 -184t-256 -67.5t-256 67.5t-184.5 184t-67.5 254.5t67.5 254.5t184.5 184t256 67.5t256 -67.5t184.5 -184t67.5 -254.5zM563 190q116 0 197.5 84t81.5 205t-81.5 206t-197.5 85t-197 -85t-81 -206t81 -205t197 -84zM846 1053 l-608 151l61 221l594 -200z" />
<glyph unicode="&#xf3;" horiz-adv-x="1126" d="M1071 479q0 -138 -67.5 -254.5t-184.5 -184t-256 -67.5t-256 67.5t-184.5 184t-67.5 254.5t67.5 254.5t184.5 184t256 67.5t256 -67.5t184.5 -184t67.5 -254.5zM563 190q116 0 197.5 84t81.5 205t-81.5 206t-197.5 85t-197 -85t-81 -206t81 -205t197 -84zM891 1204 l-608 -151l-47 172l593 200z" />
<glyph unicode="&#xf4;" horiz-adv-x="1126" d="M1071 479q0 -138 -67.5 -254.5t-184.5 -184t-256 -67.5t-256 67.5t-184.5 184t-67.5 254.5t67.5 254.5t184.5 184t256 67.5t256 -67.5t184.5 -184t67.5 -254.5zM563 190q116 0 197.5 84t81.5 205t-81.5 206t-197.5 85t-197 -85t-81 -206t81 -205t197 -84zM793 1057 l-234 135l-233 -135l-123 155l303 177h108l301 -177z" />
<glyph unicode="&#xf5;" horiz-adv-x="1126" d="M920 1245l-97 -96q-64 -64 -153 -64q-88 0 -152 64l-45 45q-6 6 -16 6q-11 0 -17 -6l-96 -98l-137 137l96 96q64 64 154 64q87 0 151 -64l45 -45q6 -6 17 -6q10 0 16 6l96 98zM1071 479q0 -138 -67.5 -254.5t-184.5 -184t-256 -67.5t-256 67.5t-184.5 184t-67.5 254.5 t67.5 254.5t184.5 184t256 67.5t256 -67.5t184.5 -184t67.5 -254.5zM563 190q116 0 197.5 84t81.5 205t-81.5 206t-197.5 85t-197 -85t-81 -206t81 -205t197 -84z" />
<glyph unicode="&#xf6;" horiz-adv-x="1126" d="M1071 479q0 -138 -67.5 -254.5t-184.5 -184t-256 -67.5t-256 67.5t-184.5 184t-67.5 254.5t67.5 254.5t184.5 184t256 67.5t256 -67.5t184.5 -184t67.5 -254.5zM563 190q116 0 197.5 84t81.5 205t-81.5 206t-197.5 85t-197 -85t-81 -206t81 -205t197 -84zM461 1239 q0 -45 -33 -77t-80 -32q-46 0 -79 32.5t-33 76.5q0 45 33 77t79 32q47 0 80 -31.5t33 -77.5zM891 1239q0 -45 -33 -77t-80 -32q-46 0 -79 32.5t-33 76.5q0 45 33 77t79 32q47 0 80 -31.5t33 -77.5z" />
<glyph unicode="&#xf7;" horiz-adv-x="901" d="M846 467h-791v221h791v-221zM563 299q0 -45 -32.5 -77t-79.5 -32q-46 0 -79.5 32.5t-33.5 76.5q0 45 33.5 77t79.5 32q47 0 79.5 -31.5t32.5 -77.5zM563 877q0 -45 -32.5 -77t-79.5 -32q-46 0 -79.5 32.5t-33.5 76.5q0 45 33.5 76.5t79.5 31.5q47 0 79.5 -31t32.5 -77z " />
<glyph unicode="&#xf8;" horiz-adv-x="1126" d="M199 -27l-142 140l82 84q-84 127 -84 282q0 138 67.5 254.5t184.5 184t256 67.5q150 0 279 -82l82 82l143 -143l-82 -82q86 -130 86 -281q0 -138 -67.5 -254.5t-184.5 -184t-256 -67.5q-153 0 -280 84zM307 365l375 376q-56 29 -119 29q-116 0 -197 -85t-81 -206 q0 -59 22 -114zM819 594l-377 -377q62 -27 121 -27q116 0 197.5 84t81.5 205q0 57 -23 115z" />
<glyph unicode="&#xf9;" d="M1067 0h-229v125q-57 -75 -134 -113.5t-161 -38.5t-152 22t-111 54t-74.5 80.5t-46.5 90.5t-24 95t-10.5 82t-1.5 64v497h229v-479q0 -33 0.5 -53t5.5 -54.5t13.5 -56t26 -48.5t42.5 -42t64 -26t88 -11q102 0 174 85t72 206v479h229v-958zM874 1053l-608 151l62 221 l594 -200z" />
<glyph unicode="&#xfa;" d="M1067 0h-229v125q-57 -75 -134 -113.5t-161 -38.5t-152 22t-111 54t-74.5 80.5t-46.5 90.5t-24 95t-10.5 82t-1.5 64v497h229v-479q0 -33 0.5 -53t5.5 -54.5t13.5 -56t26 -48.5t42.5 -42t64 -26t88 -11q102 0 174 85t72 206v479h229v-958zM922 1204l-609 -151l-47 172 l594 200z" />
<glyph unicode="&#xfb;" d="M1067 0h-229v125q-57 -75 -134 -113.5t-161 -38.5t-152 22t-111 54t-74.5 80.5t-46.5 90.5t-24 95t-10.5 82t-1.5 64v497h229v-479q0 -33 0.5 -53t5.5 -54.5t13.5 -56t26 -48.5t42.5 -42t64 -26t88 -11q102 0 174 85t72 206v479h229v-958zM829 1057l-233 135l-234 -135 l-122 155l303 177h108l301 -177z" />
<glyph unicode="&#xfc;" d="M1067 0h-229v125q-57 -75 -134 -113.5t-161 -38.5t-152 22t-111 54t-74.5 80.5t-46.5 90.5t-24 95t-10.5 82t-1.5 64v497h229v-479q0 -33 0.5 -53t5.5 -54.5t13.5 -56t26 -48.5t42.5 -42t64 -26t88 -11q102 0 174 85t72 206v479h229v-958zM494 1239q0 -45 -33 -77 t-80 -32q-46 0 -79.5 32.5t-33.5 76.5q0 45 33.5 77t79.5 32q47 0 80 -31.5t33 -77.5zM924 1239q0 -45 -33 -77t-80 -32q-46 0 -79.5 32.5t-33.5 76.5q0 45 33.5 77t79.5 32q47 0 80 -31.5t33 -77.5z" />
<glyph unicode="&#xfd;" horiz-adv-x="1114" d="M397 -410l-202 101l235 481l-385 786h252l262 -552l260 552h250zM885 1204l-609 -151l-47 172l594 200z" />
<glyph unicode="&#xfe;" horiz-adv-x="1179" d="M377 -379h-230v1874h230v-639q132 129 301 129q121 0 223.5 -67.5t162.5 -184t60 -254.5t-60 -254.5t-162.5 -184t-223.5 -67.5q-173 0 -301 131v-483zM631 190q108 0 186 85t78 206q0 119 -78 204t-186 85q-110 0 -188 -84.5t-78 -204.5q0 -121 78 -206t188 -85z" />
<glyph unicode="&#xff;" horiz-adv-x="1114" d="M397 -410l-202 101l235 481l-385 786h252l262 -552l260 552h250zM457 1239q0 -45 -33 -77t-80 -32q-46 0 -79.5 32.5t-33.5 76.5q0 45 33.5 77t79.5 32q47 0 80 -31.5t33 -77.5zM887 1239q0 -45 -33 -77t-80 -32q-46 0 -79 32.5t-33 76.5q0 45 33 77t79 32q47 0 80 -31.5 t33 -77.5z" />
<glyph unicode="&#x100;" horiz-adv-x="1353" d="M1348 0h-256l-115 238h-600l-115 -238h-256l670 1391zM877 451l-201 417l-201 -417h402zM1006 1540h-656v221h656v-221z" />
<glyph unicode="&#x101;" horiz-adv-x="1159" d="M1030 0h-229v106q-130 -133 -301 -133q-121 0 -223.5 67.5t-162 184t-59.5 254.5t59.5 254.5t162 184t223.5 67.5q84 0 162.5 -36t138.5 -99v108h229v-958zM549 190q109 0 186.5 84t77.5 205t-77.5 206t-186.5 85q-108 0 -186 -85t-78 -206t78 -205t186 -84zM885 1130 h-656v222h656v-222z" />
<glyph unicode="&#x102;" horiz-adv-x="1353" d="M1348 0h-256l-115 238h-600l-115 -238h-256l670 1391zM877 451l-201 417l-201 -417h402zM831 1817l195 -48q-31 -120 -128 -197t-220 -77t-220 77t-128 197l194 48q14 -56 56.5 -92.5t97.5 -36.5t97 36.5t56 92.5z" />
<glyph unicode="&#x103;" horiz-adv-x="1159" d="M1030 0h-229v106q-130 -133 -301 -133q-121 0 -223.5 67.5t-162 184t-59.5 254.5t59.5 254.5t162 184t223.5 67.5q84 0 162.5 -36t138.5 -99v108h229v-958zM549 190q109 0 186.5 84t77.5 205t-77.5 206t-186.5 85q-108 0 -186 -85t-78 -206t78 -205t186 -84zM711 1407 l194 -47q-31 -120 -128 -197.5t-220 -77.5t-220 77.5t-128 197.5l194 47q14 -56 56.5 -92.5t97.5 -36.5t97.5 36.5t56.5 92.5z" />
<glyph unicode="&#x104;" horiz-adv-x="1353" d="M1348 0h-256l-115 238h-600l-115 -238h-256l670 1391zM877 451l-201 417l-201 -417h402zM1333 -209v-8q0 -79 -57 -136t-135 -57q-79 0 -135 57t-56 136q0 114 142 217h163q-56 -48 -85.5 -83t-33 -46t-3.5 -23q0 -40 37.5 -66t80.5 -26q44 0 82 35z" />
<glyph unicode="&#x105;" horiz-adv-x="1159" d="M1030 0h-229v106q-130 -133 -301 -133q-121 0 -223.5 67.5t-162 184t-59.5 254.5t59.5 254.5t162 184t223.5 67.5q84 0 162.5 -36t138.5 -99v108h229v-958zM549 190q109 0 186.5 84t77.5 205t-77.5 206t-186.5 85q-108 0 -186 -85t-78 -206t78 -205t186 -84zM1042 -209 v-8q0 -79 -57 -136t-135 -57q-79 0 -135 57t-56 136q0 114 142 217h164q-123 -106 -123 -152q0 -40 37.5 -66t81.5 -26q43 0 81 35z" />
<glyph unicode="&#x106;" horiz-adv-x="1355" d="M1126 344l162 -162q-101 -99 -231 -154t-277 -55q-193 0 -357 95t-259.5 258.5t-95.5 355.5q0 193 95.5 357t259.5 259t357 95q294 0 506 -209l-162 -162q-66 69 -156.5 109t-189.5 40q-195 0 -335 -144.5t-140 -346.5q0 -97 38 -187t101.5 -155t151.5 -104t184 -39 q99 0 190.5 40t157.5 109zM1106 1614l-608 -152l-47 172l593 201z" />
<glyph unicode="&#x107;" horiz-adv-x="980" d="M768 281l158 -156q-70 -72 -164.5 -112t-198.5 -40q-139 0 -256 67.5t-184.5 184t-67.5 254.5t67.5 254.5t184.5 184t256 67.5q104 0 198.5 -40t164.5 -111l-162 -152q-82 88 -201 88q-116 0 -197 -85t-81 -206q0 -120 80.5 -204.5t197.5 -84.5q121 0 205 91zM891 1204 l-608 -151l-47 172l593 200z" />
<glyph unicode="&#x108;" horiz-adv-x="1355" d="M1126 344l162 -162q-101 -99 -231 -154t-277 -55q-193 0 -357 95t-259.5 258.5t-95.5 355.5q0 193 95.5 357t259.5 259t357 95q294 0 506 -209l-162 -162q-66 69 -156.5 109t-189.5 40q-195 0 -335 -144.5t-140 -346.5q0 -97 38 -187t101.5 -155t151.5 -104t184 -39 q99 0 190.5 40t157.5 109zM1012 1466l-234 136l-233 -136l-123 156l303 176h109l301 -176z" />
<glyph unicode="&#x109;" horiz-adv-x="980" d="M768 281l158 -156q-70 -72 -164.5 -112t-198.5 -40q-139 0 -256 67.5t-184.5 184t-67.5 254.5t67.5 254.5t184.5 184t256 67.5q104 0 198.5 -40t164.5 -111l-162 -152q-82 88 -201 88q-116 0 -197 -85t-81 -206q0 -120 80.5 -204.5t197.5 -84.5q121 0 205 91zM795 1057 l-234 135l-233 -135l-123 155l303 177h108l302 -177z" />
<glyph unicode="&#x10a;" horiz-adv-x="1355" d="M1126 344l162 -162q-101 -99 -231 -154t-277 -55q-193 0 -357 95t-259.5 258.5t-95.5 355.5q0 193 95.5 357t259.5 259t357 95q294 0 506 -209l-162 -162q-66 69 -156.5 109t-189.5 40q-195 0 -335 -144.5t-140 -346.5q0 -97 38 -187t101.5 -155t151.5 -104t184 -39 q99 0 190.5 40t157.5 109zM901 1651q0 -50 -35 -84.5t-86 -34.5t-87 35t-36 84t36 82.5t87 33.5t86 -33.5t35 -82.5z" />
<glyph unicode="&#x10b;" horiz-adv-x="980" d="M768 281l158 -156q-70 -72 -164.5 -112t-198.5 -40q-139 0 -256 67.5t-184.5 184t-67.5 254.5t67.5 254.5t184.5 184t256 67.5q104 0 198.5 -40t164.5 -111l-162 -152q-82 88 -201 88q-116 0 -197 -85t-81 -206q0 -120 80.5 -204.5t197.5 -84.5q121 0 205 91zM684 1241 q0 -50 -35 -84.5t-86 -34.5t-87 35t-36 84t36 83t87 34t86 -34t35 -83z" />
<glyph unicode="&#x10c;" horiz-adv-x="1355" d="M1126 344l162 -162q-101 -99 -231 -154t-277 -55q-193 0 -357 95t-259.5 258.5t-95.5 355.5q0 193 95.5 357t259.5 259t357 95q294 0 506 -209l-162 -162q-66 69 -156.5 109t-189.5 40q-195 0 -335 -144.5t-140 -346.5q0 -97 38 -187t101.5 -155t151.5 -104t184 -39 q99 0 190.5 40t157.5 109zM1135 1671l-301 -176h-109l-303 176l123 156l233 -135l234 135z" />
<glyph unicode="&#x10d;" horiz-adv-x="980" d="M768 281l158 -156q-70 -72 -164.5 -112t-198.5 -40q-139 0 -256 67.5t-184.5 184t-67.5 254.5t67.5 254.5t184.5 184t256 67.5q104 0 198.5 -40t164.5 -111l-162 -152q-82 88 -201 88q-116 0 -197 -85t-81 -206q0 -120 80.5 -204.5t197.5 -84.5q121 0 205 91zM918 1262 l-302 -177h-108l-303 177l123 155l233 -135l234 135z" />
<glyph unicode="&#x10e;" horiz-adv-x="1187" d="M442 0h-295v1358h295q138 0 263.5 -54t216.5 -145t144.5 -217t53.5 -264t-53.5 -263.5t-144.5 -216.5t-216.5 -144.5t-263.5 -53.5zM383 221h53q121 0 225 62.5t164 168t60 226.5t-60 227t-164 169t-225 63h-53v-916zM834 1671l-302 -176h-108l-303 176l123 156l233 -135 l234 135z" />
<glyph unicode="&#x10f;" horiz-adv-x="1458" d="M1032 0h-229v106q-130 -133 -303 -133q-121 0 -223.5 67.5t-162 184t-59.5 254.5t59.5 254.5t162 184t223.5 67.5q174 0 303 -135v645h229v-1495zM549 190q110 0 188 84.5t78 204.5q0 121 -78 206t-188 85q-108 0 -186 -85t-78 -206q0 -119 78 -204t186 -85zM1309 1217 v176h-9q-60 0 -97.5 37.5t-37.5 91.5q0 55 38 93t97 38q70 0 114 -57.5t44 -145.5q0 -91 -47 -162t-102 -71z" />
<glyph unicode="&#x110;" horiz-adv-x="1187" d="M442 0h-295v569h-94v222h94v567h295q138 0 263.5 -54t216.5 -145t144.5 -217t53.5 -264t-53.5 -263.5t-144.5 -216.5t-216.5 -144.5t-263.5 -53.5zM383 221h53q121 0 225 62.5t164 168t60 226.5t-60 227t-164 169t-225 63h-53v-346h326v-222h-326v-348z" />
<glyph unicode="&#x111;" horiz-adv-x="1179" d="M1032 0h-229v102q-132 -129 -301 -129q-121 0 -224 67.5t-163 184t-60 254.5t60 254.5t163 184t224 67.5q173 0 301 -131v276h-328v222h328v143h229v-143h98v-222h-98v-1130zM549 190q110 0 188 84.5t78 204.5q0 121 -78 206t-188 85q-108 0 -186 -85t-78 -206 q0 -119 78 -204t186 -85z" />
<glyph unicode="&#x112;" horiz-adv-x="1153" d="M1016 0h-869v1358h869v-221h-635v-338h526v-221h-526v-357h635v-221zM911 1540h-655v221h655v-221z" />
<glyph unicode="&#x113;" horiz-adv-x="1095" d="M1036 422h-751q0 -83 82 -157.5t186 -74.5q120 0 213 93l160 -158q-70 -72 -164.5 -112t-198.5 -40q-139 0 -256 67.5t-184.5 184t-67.5 254.5t66 254.5t179.5 184t248.5 67.5q134 0 247 -67.5t178.5 -184t65.5 -254.5zM299 612h498q-36 72 -103.5 117t-144.5 45 q-80 0 -144.5 -43t-105.5 -119zM874 1130h-655v222h655v-222z" />
<glyph unicode="&#x114;" horiz-adv-x="1153" d="M1016 0h-869v1358h869v-221h-635v-338h526v-221h-526v-357h635v-221zM737 1817l195 -48q-31 -120 -128 -197t-220 -77t-220 77t-128 197l194 48q14 -56 56.5 -92.5t97.5 -36.5t97 36.5t56 92.5z" />
<glyph unicode="&#x115;" horiz-adv-x="1095" d="M1036 422h-751q0 -83 82 -157.5t186 -74.5q120 0 213 93l160 -158q-70 -72 -164.5 -112t-198.5 -40q-139 0 -256 67.5t-184.5 184t-67.5 254.5t66 254.5t179.5 184t248.5 67.5q134 0 247 -67.5t178.5 -184t65.5 -254.5zM299 612h498q-36 72 -103.5 117t-144.5 45 q-80 0 -144.5 -43t-105.5 -119zM700 1407l195 -47q-31 -120 -128 -197.5t-220 -77.5t-220 77.5t-128 197.5l194 47q14 -56 56.5 -92.5t97.5 -36.5t97 36.5t56 92.5z" />
<glyph unicode="&#x116;" horiz-adv-x="1153" d="M1016 0h-869v1358h869v-221h-635v-338h526v-221h-526v-357h635v-221zM705 1651q0 -50 -35 -84.5t-86 -34.5t-87 35t-36 84t36 82.5t87 33.5t86 -33.5t35 -82.5z" />
<glyph unicode="&#x117;" horiz-adv-x="1095" d="M1036 422h-751q0 -83 82 -157.5t186 -74.5q120 0 213 93l160 -158q-70 -72 -164.5 -112t-198.5 -40q-139 0 -256 67.5t-184.5 184t-67.5 254.5t66 254.5t179.5 184t248.5 67.5q134 0 247 -67.5t178.5 -184t65.5 -254.5zM299 612h498q-36 72 -103.5 117t-144.5 45 q-80 0 -144.5 -43t-105.5 -119zM668 1241q0 -50 -35 -84.5t-86 -34.5t-87 35t-36 84t36 83t87 34t86 -34t35 -83z" />
<glyph unicode="&#x118;" horiz-adv-x="1153" d="M989 -209v-8q0 -79 -57 -136t-135 -57q-79 0 -135 57t-56 136q0 114 142 217h163q-123 -106 -123 -152q0 -40 37.5 -66t81.5 -26t82 35zM1016 0h-869v1358h869v-221h-635v-338h526v-221h-526v-357h635v-221z" />
<glyph unicode="&#x119;" horiz-adv-x="1095" d="M805 -209v-8q0 -79 -57.5 -136t-135.5 -57q-79 0 -134.5 57t-55.5 136q0 101 108 192q-201 12 -338 157t-137 347q0 138 66 254.5t179.5 184t248.5 67.5q134 0 247 -67.5t178.5 -184t65.5 -254.5l-4 -57h-751q0 -83 82 -157.5t186 -74.5q120 0 213 93l160 -158 q-85 -88 -201 -125q-121 -106 -121 -152q0 -40 37.5 -66t81.5 -26t82 35zM301 612h494q-40 73 -105 117.5t-141 44.5q-157 0 -248 -162z" />
<glyph unicode="&#x11a;" horiz-adv-x="1153" d="M1016 0h-869v1358h869v-221h-635v-338h526v-221h-526v-357h635v-221zM940 1671l-301 -176h-109l-303 176l123 156l234 -135l233 135z" />
<glyph unicode="&#x11b;" horiz-adv-x="1095" d="M1036 422h-751q0 -83 82 -157.5t186 -74.5q120 0 213 93l160 -158q-70 -72 -164.5 -112t-198.5 -40q-139 0 -256 67.5t-184.5 184t-67.5 254.5t66 254.5t179.5 184t248.5 67.5q134 0 247 -67.5t178.5 -184t65.5 -254.5zM299 612h498q-36 72 -103.5 117t-144.5 45 q-80 0 -144.5 -43t-105.5 -119zM903 1262l-301 -177h-108l-304 177l123 155l234 -135l233 135z" />
<glyph unicode="&#x11c;" horiz-adv-x="1386" d="M1024 264v201h-133v221h369v-530q-209 -183 -480 -183q-193 0 -357 95t-259.5 258.5t-95.5 355.5q0 193 95.5 357t259.5 259t357 95q146 0 275.5 -54.5t230.5 -152.5l-162 -164q-146 149 -346 149q-130 0 -240 -67.5t-172.5 -179.5t-62.5 -242q0 -135 65.5 -247.5 t174.5 -176t235 -63.5q137 0 246 69zM1012 1466l-234 136l-233 -136l-123 156l303 176h109l301 -176z" />
<glyph unicode="&#x11d;" horiz-adv-x="1177" d="M549 188q109 0 187.5 85t78.5 206t-78.5 206t-187.5 85q-108 0 -186 -85t-78 -206t78 -206t186 -85zM801 90v16q-130 -133 -301 -133q-184 0 -314.5 148.5t-130.5 357.5q0 138 59.5 254.5t162 184t223.5 67.5q172 0 301 -135v108h229v-868q0 -136 -61.5 -249.5 t-171.5 -180t-244 -66.5q-136 0 -250.5 67t-179.5 181l192 115q33 -65 94.5 -105t133.5 -40q107 0 182.5 81t75.5 197zM788 1057l-233 135l-233 -135l-123 155l303 177h108l301 -177z" />
<glyph unicode="&#x11e;" horiz-adv-x="1386" d="M1024 264v201h-133v221h369v-530q-209 -183 -480 -183q-193 0 -357 95t-259.5 258.5t-95.5 355.5q0 193 95.5 357t259.5 259t357 95q146 0 275.5 -54.5t230.5 -152.5l-162 -164q-146 149 -346 149q-130 0 -240 -67.5t-172.5 -179.5t-62.5 -242q0 -135 65.5 -247.5 t174.5 -176t235 -63.5q137 0 246 69zM932 1817l194 -48q-31 -120 -128 -197t-220 -77t-220 77t-128 197l195 48q14 -56 56 -92.5t97 -36.5t97.5 36.5t56.5 92.5z" />
<glyph unicode="&#x11f;" horiz-adv-x="1177" d="M549 188q109 0 187.5 85t78.5 206t-78.5 206t-187.5 85q-108 0 -186 -85t-78 -206t78 -206t186 -85zM801 90v16q-130 -133 -301 -133q-184 0 -314.5 148.5t-130.5 357.5q0 138 59.5 254.5t162 184t223.5 67.5q172 0 301 -135v108h229v-868q0 -136 -61.5 -249.5 t-171.5 -180t-244 -66.5q-136 0 -250.5 67t-179.5 181l192 115q33 -65 94.5 -105t133.5 -40q107 0 182.5 81t75.5 197zM709 1407l194 -47q-31 -120 -128 -197.5t-220 -77.5t-220 77.5t-128 197.5l194 47q14 -56 56.5 -92.5t97.5 -36.5t97.5 36.5t56.5 92.5z" />
<glyph unicode="&#x120;" horiz-adv-x="1386" d="M1024 264v201h-133v221h369v-530q-209 -183 -480 -183q-193 0 -357 95t-259.5 258.5t-95.5 355.5q0 193 95.5 357t259.5 259t357 95q146 0 275.5 -54.5t230.5 -152.5l-162 -164q-146 149 -346 149q-130 0 -240 -67.5t-172.5 -179.5t-62.5 -242q0 -135 65.5 -247.5 t174.5 -176t235 -63.5q137 0 246 69zM899 1651q0 -50 -35 -84.5t-86 -34.5t-87 35t-36 84t36 82.5t87 33.5t86 -33.5t35 -82.5z" />
<glyph unicode="&#x121;" horiz-adv-x="1177" d="M549 188q109 0 187.5 85t78.5 206t-78.5 206t-187.5 85q-108 0 -186 -85t-78 -206t78 -206t186 -85zM801 90v16q-130 -133 -301 -133q-184 0 -314.5 148.5t-130.5 357.5q0 138 59.5 254.5t162 184t223.5 67.5q172 0 301 -135v108h229v-868q0 -136 -61.5 -249.5 t-171.5 -180t-244 -66.5q-136 0 -250.5 67t-179.5 181l192 115q33 -65 94.5 -105t133.5 -40q107 0 182.5 81t75.5 197zM676 1241q0 -50 -35 -84.5t-86 -34.5t-87 35t-36 84t36 83t87 34t86 -34t35 -83z" />
<glyph unicode="&#x122;" horiz-adv-x="1386" d="M1024 264v201h-133v221h369v-530q-209 -183 -480 -183q-193 0 -357 95t-259.5 258.5t-95.5 355.5q0 193 95.5 357t259.5 259t357 95q146 0 275.5 -54.5t230.5 -152.5l-162 -164q-146 149 -346 149q-130 0 -240 -67.5t-172.5 -179.5t-62.5 -242q0 -135 65.5 -247.5 t174.5 -176t235 -63.5q137 0 246 69zM645 -389l66 117q14 -7 24 -7q22 0 37.5 15t15.5 35t-15.5 34.5t-37.5 14.5h-63v131h63q81 0 139 -53t58 -127t-58 -127.5t-139 -53.5q-43 0 -90 21z" />
<glyph unicode="&#x123;" horiz-adv-x="1177" d="M549 188q109 0 187.5 85t78.5 206t-78.5 206t-187.5 85q-108 0 -186 -85t-78 -206t78 -206t186 -85zM801 90v16q-130 -133 -301 -133q-184 0 -314.5 148.5t-130.5 357.5q0 138 59.5 254.5t162 184t223.5 67.5q172 0 301 -135v108h229v-868q0 -136 -61.5 -249.5 t-171.5 -180t-244 -66.5q-136 0 -250.5 67t-179.5 181l192 115q33 -65 94.5 -105t133.5 -40q107 0 182.5 81t75.5 197zM612 1126h-63q-81 0 -139 53.5t-58 127.5t58 127t139 53q43 0 90 -21l-66 -116q-12 6 -24 6q-22 0 -37.5 -14.5t-15.5 -34.5t15.5 -35t37.5 -15h63v-131z " />
<glyph unicode="&#x124;" horiz-adv-x="1347" d="M1200 0h-233v578h-586v-578h-234v1358h234v-559h586v559h233v-1358zM907 1466l-233 136l-234 -136l-123 156l304 176h108l301 -176z" />
<glyph unicode="&#x125;" d="M1092 0h-230v479q0 34 -0.5 53.5t-5 54t-13.5 56t-26.5 48.5t-42 42t-63.5 26t-88 11q-102 0 -174 -85t-72 -206v-479h-230v1495h230v-659q58 73 134 111t159 38q84 0 152 -21.5t111 -54t75 -80.5t47.5 -90t24.5 -94.5t10.5 -82.5t1.5 -64v-498zM907 1466l-233 136 l-234 -136l-123 156l304 176h108l301 -176z" />
<glyph unicode="&#x126;" horiz-adv-x="1347" d="M1200 0h-233v578h-586v-578h-234v987h-157v209h157v162h234v-162h586v162h233v-162h158v-209h-158v-987zM967 799v188h-586v-188h586z" />
<glyph unicode="&#x127;" d="M1092 0h-230v479q0 34 -0.5 53.5t-5 54t-13.5 56t-26.5 48.5t-42 42t-63.5 26t-88 11q-102 0 -174 -85t-72 -206v-479h-230v1126h-159v207h159v162h230v-162h266v-207h-266v-290q58 73 134 111t159 38q84 0 152 -21.5t111 -54t75 -80.5t47.5 -90t24.5 -94.5t10.5 -82.5 t1.5 -64v-498z" />
<glyph unicode="&#x128;" horiz-adv-x="528" d="M625 1655l-97 -96q-64 -64 -153 -64q-88 0 -152 64l-45 45q-6 6 -16 6q-11 0 -17 -6l-96 -99l-137 137l96 97q63 63 154 63q88 0 151 -63l45 -45q6 -6 17 -6q10 0 16 6l96 98zM381 0h-234v1358h234v-1358z" />
<glyph unicode="&#x129;" horiz-adv-x="544" d="M629 1245l-97 -96q-64 -64 -153 -64q-88 0 -152 64l-45 45q-6 6 -16 6t-16 -6l-97 -98l-137 137l96 96q64 64 154 64q87 0 151 -64l45 -45q6 -6 17 -6q10 0 16 6l97 98zM387 0h-229v958h229v-958z" />
<glyph unicode="&#x12a;" horiz-adv-x="528" d="M381 0h-234v1358h234v-1358zM594 1540h-655v221h655v-221z" />
<glyph unicode="&#x12b;" horiz-adv-x="544" d="M387 0h-229v958h229v-958zM600 1130h-655v222h655v-222z" />
<glyph unicode="&#x12c;" horiz-adv-x="528" d="M381 0h-234v1358h234v-1358zM420 1817l194 -48q-31 -120 -128 -197t-220 -77t-220 77t-128 197l195 48q14 -56 56 -92.5t97 -36.5t97.5 36.5t56.5 92.5z" />
<glyph unicode="&#x12d;" horiz-adv-x="544" d="M387 0h-229v958h229v-958zM426 1407l195 -47q-31 -120 -128.5 -197.5t-220.5 -77.5t-220 77.5t-128 197.5l195 47q14 -56 56 -92.5t97 -36.5t97.5 36.5t56.5 92.5z" />
<glyph unicode="&#x12e;" horiz-adv-x="528" d="M459 -209v-8q0 -79 -57.5 -136t-135.5 -57q-79 0 -134.5 57t-55.5 136q0 115 141 217h164q-123 -106 -123 -152q0 -40 37.5 -66t81.5 -26t82 35zM381 0h-234v1358h234v-1358z" />
<glyph unicode="&#x12f;" horiz-adv-x="544" d="M465 -209v-8q0 -79 -57.5 -136t-135.5 -57q-79 0 -134.5 57t-55.5 136q0 115 141 217h164q-123 -106 -123 -152q0 -40 37.5 -66t81.5 -26t82 35zM387 0h-229v958h229v-958zM416 1274q0 -59 -42 -100t-102 -41t-101.5 41t-41.5 100t41.5 100t101.5 41t102 -41t42 -100z " />
<glyph unicode="&#x130;" horiz-adv-x="528" d="M381 0h-234v1358h234v-1358zM387 1651q0 -50 -35 -84.5t-86 -34.5t-87 35t-36 84t36 82.5t87 33.5t86 -33.5t35 -82.5z" />
<glyph unicode="&#x131;" horiz-adv-x="524" d="M377 0h-230v958h230v-958z" />
<glyph unicode="&#x132;" horiz-adv-x="1056" d="M381 0h-234v1358h234v-1358zM676 -18v1376h233v-1360q0 -168 -119 -288t-286 -120q-118 0 -217.5 63t-149.5 165l201 98q21 -43 68.5 -73.5t97.5 -30.5q71 0 121.5 50t50.5 120z" />
<glyph unicode="&#x133;" horiz-adv-x="956" d="M827 1274q0 -59 -41.5 -100t-101.5 -41t-101.5 41t-41.5 100t41.5 100t101.5 41t101.5 -41t41.5 -100zM569 0v958h230v-958q0 -167 -120.5 -286.5t-287.5 -119.5q-112 0 -205 55t-147 148l182 107q26 -41 67.5 -65.5t92.5 -24.5q78 0 133 54.5t55 131.5zM387 0h-229v958 h229v-958zM416 1274q0 -59 -42 -100t-102 -41t-101.5 41t-41.5 100t41.5 100t101.5 41t102 -41t42 -100z" />
<glyph unicode="&#x134;" horiz-adv-x="925" d="M545 365v993h233v-977q0 -168 -119 -288t-286 -120q-118 0 -217.5 63t-149.5 165l201 98q21 -43 68.5 -73.5t97.5 -30.5q71 0 121.5 50t50.5 120zM895 1466l-233 136l-234 -136l-123 156l303 176h109l301 -176z" />
<glyph unicode="&#x135;" horiz-adv-x="569" d="M182 0v958h230v-958q0 -167 -120.5 -286.5t-287.5 -119.5q-112 0 -205 55t-147 148l182 107q26 -41 67.5 -65.5t92.5 -24.5q78 0 133 54.5t55 131.5zM532 1057l-233 135l-233 -135l-123 155l303 177h108l301 -177z" />
<glyph unicode="&#x136;" horiz-adv-x="1187" d="M975 -31l-594 594v-563h-234v1358h234v-479l508 510l158 -166l-500 -502l586 -584zM473 -389l66 117q14 -7 24 -7q22 0 37.5 15t15.5 35t-15.5 34.5t-37.5 14.5h-63v131h63q81 0 139 -53t58 -127t-58 -127.5t-139 -53.5q-43 0 -90 21z" />
<glyph unicode="&#x137;" horiz-adv-x="956" d="M934 111l-160 -148l-397 402v-365h-230v1495h230v-821l305 311l156 -156l-318 -309zM371 -389l65 117q14 -7 25 -7q22 0 37.5 15t15.5 35t-15.5 34.5t-37.5 14.5h-64v131h64q81 0 138.5 -53t57.5 -127t-57.5 -127.5t-138.5 -53.5q-43 0 -90 21z" />
<glyph unicode="&#x138;" horiz-adv-x="956" d="M930 111l-160 -148l-393 397v-360h-230v958h230v-280l301 307l156 -156l-318 -309z" />
<glyph unicode="&#x139;" horiz-adv-x="1052" d="M1004 0h-857v1358h234v-1137h623v-221zM737 1614l-608 -152l-47 172l594 201z" />
<glyph unicode="&#x13a;" horiz-adv-x="524" d="M377 0h-230v1495h230v-1495zM598 1755l-608 -151l-47 172l594 200z" />
<glyph unicode="&#x13b;" horiz-adv-x="1052" d="M1004 0h-857v1358h234v-1137h623v-221zM436 -389l66 117q14 -7 24 -7q22 0 38 15t16 35t-16 34.5t-38 14.5h-63v131h63q81 0 139 -53t58 -127t-58 -127.5t-139 -53.5q-43 0 -90 21z" />
<glyph unicode="&#x13c;" horiz-adv-x="524" d="M377 0h-230v1495h230v-1495zM121 -389l65 117q14 -7 25 -7q22 0 37.5 15t15.5 35t-15.5 34.5t-37.5 14.5h-64v131h64q81 0 139 -53t58 -127t-58 -127.5t-139 -53.5q-43 0 -90 21z" />
<glyph unicode="&#x13d;" horiz-adv-x="1052" d="M1004 0h-857v1358h234v-1137h623v-221zM692 1085v177h-8q-60 0 -97.5 37.5t-37.5 91.5q0 55 38 93t97 38q70 0 114 -57.5t44 -145.5q0 -90 -47.5 -162t-102.5 -72z" />
<glyph unicode="&#x13e;" horiz-adv-x="858" d="M377 0h-230v1495h230v-1495zM653 1085v177h-8q-60 0 -97.5 37.5t-37.5 91.5q0 55 38 93t97 38q70 0 114 -57.5t44 -145.5q0 -90 -47.5 -162t-102.5 -72z" />
<glyph unicode="&#x13f;" horiz-adv-x="1052" d="M1004 0h-857v1358h234v-1137h623v-221zM911 733q0 -50 -34.5 -84.5t-85.5 -34.5t-87 35t-36 84t36 83t87 34t85.5 -33.5t34.5 -83.5z" />
<glyph unicode="&#x140;" horiz-adv-x="749" d="M377 0h-230v1495h230v-1495zM754 748q0 -50 -35 -84.5t-86 -34.5t-87 35t-36 84t36 82.5t87 33.5t86 -33.5t35 -82.5z" />
<glyph unicode="&#x141;" horiz-adv-x="1052" d="M1004 0h-857v461l-63 -37l-111 190l174 103v641h234v-506l225 133l111 -194l-336 -195v-375h623v-221z" />
<glyph unicode="&#x142;" horiz-adv-x="524" d="M377 0h-230v557l-63 -37l-111 191l174 102v682h230v-547l63 37l111 -194l-174 -101v-690z" />
<glyph unicode="&#x143;" horiz-adv-x="1417" d="M1270 -33l-889 873v-840h-234v1391l889 -873v840h234v-1391zM1036 1614l-608 -152l-47 172l594 201z" />
<glyph unicode="&#x144;" d="M1092 0h-230v479q0 34 -0.5 53.5t-5 54t-13.5 56t-26.5 48.5t-42 42t-63.5 26t-88 11q-102 0 -174 -85t-72 -206v-479h-230v958h230v-124q57 75 134 113t161 38q66 0 122 -13.5t96.5 -34.5t72.5 -53t53 -64t36 -72t22.5 -72t11.5 -70.5t5 -60t1 -47.5v-498zM948 1204 l-608 -151l-47 172l594 200z" />
<glyph unicode="&#x145;" horiz-adv-x="1417" d="M1270 -33l-889 873v-840h-234v1391l889 -873v840h234v-1391zM569 -389l66 117q14 -7 24 -7q22 0 38 15t16 35t-16 34.5t-38 14.5h-63v131h63q81 0 139 -53t58 -127t-58 -127.5t-139 -53.5q-43 0 -90 21z" />
<glyph unicode="&#x146;" d="M1092 0h-230v479q0 34 -0.5 53.5t-5 54t-13.5 56t-26.5 48.5t-42 42t-63.5 26t-88 11q-102 0 -174 -85t-72 -206v-479h-230v958h230v-124q57 75 134 113t161 38q66 0 122 -13.5t96.5 -34.5t72.5 -53t53 -64t36 -72t22.5 -72t11.5 -70.5t5 -60t1 -47.5v-498zM487 -389 l66 117q14 -7 25 -7q22 0 37.5 15t15.5 35t-15.5 34.5t-37.5 14.5h-64v131h64q81 0 138.5 -53t57.5 -127t-57.5 -127.5t-138.5 -53.5q-44 0 -91 21z" />
<glyph unicode="&#x147;" horiz-adv-x="1417" d="M1270 -33l-889 873v-840h-234v1391l889 -873v840h234v-1391zM1065 1671l-301 -176h-109l-303 176l123 156l234 -135l233 135z" />
<glyph unicode="&#x148;" d="M1092 0h-230v479q0 34 -0.5 53.5t-5 54t-13.5 56t-26.5 48.5t-42 42t-63.5 26t-88 11q-102 0 -174 -85t-72 -206v-479h-230v958h230v-124q57 75 134 113t161 38q66 0 122 -13.5t96.5 -34.5t72.5 -53t53 -64t36 -72t22.5 -72t11.5 -70.5t5 -60t1 -47.5v-498zM977 1262 l-301 -177h-109l-303 177l123 155l234 -135l233 135z" />
<glyph unicode="&#x149;" horiz-adv-x="1470" d="M1348 0h-230v479q0 34 -0.5 53.5t-5 54t-13.5 56t-26.5 48.5t-42 42t-63.5 26t-88 11q-102 0 -174 -85t-72 -206v-479h-230v958h230v-124q57 75 134 113t161 38q66 0 122 -13.5t96.5 -34.5t72.5 -53t53 -64t36 -72t22.5 -72t11.5 -70.5t5 -60t1 -47.5v-498zM199 1085v177 h-9q-60 0 -97.5 37.5t-37.5 91.5q0 55 38 93t97 38q70 0 114 -57.5t44 -145.5q0 -91 -47 -162.5t-102 -71.5z" />
<glyph unicode="&#x14a;" horiz-adv-x="1417" d="M1036 -18v215l-655 643v-840h-234v1391l889 -873v840h234v-1358q0 -173 -121.5 -291.5t-284.5 -118.5q-118 0 -216.5 63t-149.5 165l200 98q21 -43 68.5 -73.5t97.5 -30.5q71 0 121.5 50t50.5 120z" />
<glyph unicode="&#x14b;" d="M862 0v479q0 34 -0.5 53.5t-5 54t-13.5 56t-26.5 48.5t-42 42t-63.5 26t-88 11q-102 0 -174 -85t-72 -206v-479h-230v958h230v-118q58 71 134 108t159 37q84 0 152 -21.5t111 -54t75 -80.5t47.5 -90t24.5 -94.5t10.5 -82.5t1.5 -64v-498q0 -167 -120.5 -286.5 t-287.5 -119.5q-112 0 -205 55t-147 148l182 107q26 -41 67.5 -65.5t92.5 -24.5q78 0 133 54.5t55 131.5z" />
<glyph unicode="&#x14c;" horiz-adv-x="1562" d="M1495 682q0 -144 -56.5 -275.5t-152.5 -226.5t-228.5 -151t-277.5 -56q-193 0 -357 95t-259.5 258.5t-95.5 355.5q0 193 95.5 357t259.5 259t357 95q146 0 278 -56.5t228 -151.5t152.5 -226.5t56.5 -276.5zM778 195q131 0 242.5 66t175.5 177.5t64 241.5q0 203 -141 347 t-341 144q-129 0 -238.5 -66t-173 -179t-63.5 -246q0 -130 63.5 -241.5t173 -177.5t238.5 -66zM1106 1540h-655v221h655v-221z" />
<glyph unicode="&#x14d;" horiz-adv-x="1126" d="M1071 479q0 -138 -67.5 -254.5t-184.5 -184t-256 -67.5t-256 67.5t-184.5 184t-67.5 254.5t67.5 254.5t184.5 184t256 67.5t256 -67.5t184.5 -184t67.5 -254.5zM563 190q116 0 197.5 84t81.5 205t-81.5 206t-197.5 85t-197 -85t-81 -206t81 -205t197 -84zM891 1130h-655 v222h655v-222z" />
<glyph unicode="&#x14e;" horiz-adv-x="1562" d="M1495 682q0 -144 -56.5 -275.5t-152.5 -226.5t-228.5 -151t-277.5 -56q-193 0 -357 95t-259.5 258.5t-95.5 355.5q0 193 95.5 357t259.5 259t357 95q146 0 278 -56.5t228 -151.5t152.5 -226.5t56.5 -276.5zM778 195q131 0 242.5 66t175.5 177.5t64 241.5q0 203 -141 347 t-341 144q-129 0 -238.5 -66t-173 -179t-63.5 -246q0 -130 63.5 -241.5t173 -177.5t238.5 -66zM932 1817l194 -48q-31 -120 -128 -197t-220 -77t-220 77t-128 197l195 48q14 -56 56 -92.5t97 -36.5t97.5 36.5t56.5 92.5z" />
<glyph unicode="&#x14f;" horiz-adv-x="1126" d="M1071 479q0 -138 -67.5 -254.5t-184.5 -184t-256 -67.5t-256 67.5t-184.5 184t-67.5 254.5t67.5 254.5t184.5 184t256 67.5t256 -67.5t184.5 -184t67.5 -254.5zM563 190q116 0 197.5 84t81.5 205t-81.5 206t-197.5 85t-197 -85t-81 -206t81 -205t197 -84zM717 1407 l194 -47q-31 -120 -128 -197.5t-220 -77.5t-220 77.5t-128 197.5l195 47q14 -56 56 -92.5t97 -36.5t97.5 36.5t56.5 92.5z" />
<glyph unicode="&#x150;" horiz-adv-x="1562" d="M1495 682q0 -144 -56.5 -275.5t-152.5 -226.5t-228.5 -151t-277.5 -56q-193 0 -357 95t-259.5 258.5t-95.5 355.5q0 193 95.5 357t259.5 259t357 95q146 0 278 -56.5t228 -151.5t152.5 -226.5t56.5 -276.5zM778 195q131 0 242.5 66t175.5 177.5t64 241.5q0 203 -141 347 t-341 144q-129 0 -238.5 -66t-173 -179t-63.5 -246q0 -130 63.5 -241.5t173 -177.5t238.5 -66zM543 1485l-125 125l196 196l125 -125zM942 1487l-121 123l197 196l121 -123z" />
<glyph unicode="&#x151;" horiz-adv-x="1126" d="M1071 479q0 -138 -67.5 -254.5t-184.5 -184t-256 -67.5t-256 67.5t-184.5 184t-67.5 254.5t67.5 254.5t184.5 184t256 67.5t256 -67.5t184.5 -184t67.5 -254.5zM563 190q116 0 197.5 84t81.5 205t-81.5 206t-197.5 85t-197 -85t-81 -206t81 -205t197 -84zM328 1075 l-125 125l196 197l125 -125zM727 1077l-121 123l197 197l121 -123z" />
<glyph unicode="&#x152;" horiz-adv-x="2246" d="M2109 0h-868v143q-195 -170 -463 -170q-193 0 -356.5 95t-258.5 258.5t-95 355.5q0 193 95 357t258.5 259t356.5 95q263 0 463 -172v137h868v-221h-634v-338h526v-221h-526v-357h634v-221zM778 195q131 0 242.5 66t175.5 177.5t64 241.5q0 203 -141 347t-341 144 q-129 0 -238.5 -66t-173 -179t-63.5 -246q0 -130 63.5 -241.5t173 -177.5t238.5 -66z" />
<glyph unicode="&#x153;" horiz-adv-x="1882" d="M1823 422h-752q0 -83 82 -157.5t186 -74.5q120 0 213 93l160 -158q-70 -72 -164 -112t-198 -40q-118 0 -221 49.5t-173 135.5q-72 -87 -174 -136t-219 -49q-139 0 -256 67.5t-184.5 184t-67.5 254.5t67.5 254.5t184.5 184t256 67.5q116 0 217.5 -48.5t173.5 -133.5 q69 85 168.5 133.5t212.5 48.5q134 0 247 -67.5t179 -184t66 -254.5zM563 190q116 0 197.5 84t81.5 205t-81.5 206t-197.5 85t-197 -85t-81 -206t81 -205t197 -84zM1085 612h498q-39 74 -105 118t-143 44q-163 0 -250 -162z" />
<glyph unicode="&#x154;" horiz-adv-x="1122" d="M899 -31l-356 357h-162v-326h-234v1358h349q140 0 260 -69t190 -188t70 -259q0 -132 -63.5 -245.5t-170.5 -184.5l279 -279zM381 547h115q119 0 201.5 86.5t82.5 210.5q0 121 -83 207t-201 86h-115v-590zM872 1614l-608 -152l-47 172l594 201z" />
<glyph unicode="&#x155;" horiz-adv-x="923" d="M377 0h-230v958h230v-124q60 75 140 113t167 38q110 0 209 -61l-117 -201q-62 47 -139 47q-108 0 -184 -85t-76 -206v-479zM774 1204l-608 -151l-47 172l594 200z" />
<glyph unicode="&#x156;" horiz-adv-x="1122" d="M899 -31l-356 357h-162v-326h-234v1358h349q140 0 260 -69t190 -188t70 -259q0 -132 -63.5 -245.5t-170.5 -184.5l279 -279zM381 547h115q119 0 201.5 86.5t82.5 210.5q0 121 -83 207t-201 86h-115v-590zM412 -389l65 117q14 -7 25 -7q22 0 37.5 15t15.5 35t-15.5 34.5 t-37.5 14.5h-64v131h64q81 0 138.5 -53t57.5 -127t-57.5 -127.5t-138.5 -53.5q-43 0 -90 21z" />
<glyph unicode="&#x157;" horiz-adv-x="923" d="M377 0h-230v958h230v-124q60 75 140 113t167 38q110 0 209 -61l-117 -201q-62 47 -139 47q-108 0 -184 -85t-76 -206v-479zM342 -389l66 117q14 -7 24 -7q22 0 37.5 15t15.5 35t-15.5 34.5t-37.5 14.5h-63v131h63q81 0 139 -53t58 -127t-58 -127.5t-139 -53.5 q-43 0 -90 21z" />
<glyph unicode="&#x158;" horiz-adv-x="1122" d="M899 -31l-356 357h-162v-326h-234v1358h349q140 0 260 -69t190 -188t70 -259q0 -132 -63.5 -245.5t-170.5 -184.5l279 -279zM381 547h115q119 0 201.5 86.5t82.5 210.5q0 121 -83 207t-201 86h-115v-590zM901 1671l-301 -176h-108l-304 176l123 156l234 -135l233 135z " />
<glyph unicode="&#x159;" horiz-adv-x="923" d="M377 0h-230v958h230v-124q60 75 140 113t167 38q110 0 209 -61l-117 -201q-62 47 -139 47q-108 0 -184 -85t-76 -206v-479zM850 1262l-301 -177h-109l-303 177l123 155l234 -135l233 135z" />
<glyph unicode="&#x15a;" horiz-adv-x="1021" d="M645 516l-317 182q-81 46 -131 134t-50 188q0 155 109 264t264 109q104 0 193 -54t137 -143l-207 -113q-40 74 -119 74q-59 0 -100 -40.5t-41 -98.5q0 -37 19 -69t49 -50l329 -192q84 -49 131 -138t47 -194q0 -165 -118 -283.5t-283 -118.5q-60 0 -120 16.5t-108.5 43.5 t-93 59t-77 64.5t-56.5 59.5t-36 44l-13 16l193 119q5 -8 15 -20.5t42 -45.5t65.5 -58t83.5 -45.5t99 -20.5q71 0 121.5 50.5t50.5 121.5q0 44 -21 81.5t-57 57.5zM848 1614l-608 -152l-47 172l593 201z" />
<glyph unicode="&#x15b;" horiz-adv-x="792" d="M461 313l-230 144q-67 41 -101 106t-34 137q0 119 89 202t218 83q84 0 156 -37.5t111 -105.5l-193 -111q-33 41 -71 41q-32 0 -56 -22t-24 -50q0 -34 24 -49l240 -149q63 -40 96 -102.5t33 -139.5q0 -119 -92 -203t-224 -84q-128 0 -219 82.5t-94 198.5h236 q1 -27 25 -45.5t55 -18.5q33 0 55 21t22 51q0 36 -22 51zM721 1204l-608 -151l-47 172l593 200z" />
<glyph unicode="&#x15c;" horiz-adv-x="1021" d="M645 516l-317 182q-81 46 -131 134t-50 188q0 155 109 264t264 109q104 0 193 -54t137 -143l-207 -113q-40 74 -119 74q-59 0 -100 -40.5t-41 -98.5q0 -37 19 -69t49 -50l329 -192q84 -49 131 -138t47 -194q0 -165 -118 -283.5t-283 -118.5q-60 0 -120 16.5t-108.5 43.5 t-93 59t-77 64.5t-56.5 59.5t-36 44l-13 16l193 119q5 -8 15 -20.5t42 -45.5t65.5 -58t83.5 -45.5t99 -20.5q71 0 121.5 50.5t50.5 121.5q0 44 -21 81.5t-57 57.5zM754 1466l-234 136l-233 -136l-123 156l303 176h108l302 -176z" />
<glyph unicode="&#x15d;" horiz-adv-x="792" d="M461 313l-230 144q-67 41 -101 106t-34 137q0 119 89 202t218 83q84 0 156 -37.5t111 -105.5l-193 -111q-33 41 -71 41q-32 0 -56 -22t-24 -50q0 -34 24 -49l240 -149q63 -40 96 -102.5t33 -139.5q0 -119 -92 -203t-224 -84q-128 0 -219 82.5t-94 198.5h236 q1 -27 25 -45.5t55 -18.5q33 0 55 21t22 51q0 36 -22 51zM637 1057l-234 135l-233 -135l-123 155l303 177h109l301 -177z" />
<glyph unicode="&#x15e;" horiz-adv-x="1021" d="M422 -367l55 97q15 -9 31 -9q25 0 43 18.5t18 43.5q0 26 -18 43.5t-43 17.5h-51v142q-67 15 -133.5 50.5t-113 75.5t-83.5 77.5t-55 62.5l-19 24l193 119q5 -8 15 -20.5t42 -45.5t65.5 -58t83.5 -45.5t99 -20.5q71 0 121.5 50.5t50.5 121.5q0 44 -21 81.5t-57 57.5 l-317 182q-81 46 -131 134t-50 188q0 155 109 264t264 109q104 0 193 -54t137 -143l-207 -113q-40 74 -119 74q-59 0 -100 -40.5t-41 -98.5q0 -37 19 -69t49 -50l329 -192q84 -49 131 -138t47 -194q0 -165 -117.5 -282.5t-281.5 -119.5v-30q54 -10 89.5 -55.5t35.5 -104.5 q0 -69 -53.5 -120.5t-122.5 -51.5q-44 0 -86 22z" />
<glyph unicode="&#x15f;" horiz-adv-x="792" d="M332 -367l55 97q15 -9 31 -9q25 0 43 18.5t18 43.5q0 26 -18 43.5t-43 17.5h-51v131q-117 12 -195.5 91.5t-81.5 187.5h236q1 -27 25 -45.5t55 -18.5q33 0 55 21t22 51q0 36 -22 51l-230 144q-67 41 -101 106t-34 137q0 119 89 202t218 83q84 0 156 -37.5t111 -105.5 l-193 -111q-33 41 -71 41q-32 0 -56 -22t-24 -50q0 -34 24 -49l240 -149q63 -40 96 -102.5t33 -139.5q0 -102 -71 -181t-179 -99v-37q54 -10 89.5 -55.5t35.5 -104.5q0 -69 -53.5 -120.5t-122.5 -51.5q-44 0 -86 22z" />
<glyph unicode="&#x160;" horiz-adv-x="1021" d="M645 516l-317 182q-81 46 -131 134t-50 188q0 155 109 264t264 109q104 0 193 -54t137 -143l-207 -113q-40 74 -119 74q-59 0 -100 -40.5t-41 -98.5q0 -37 19 -69t49 -50l329 -192q84 -49 131 -138t47 -194q0 -165 -118 -283.5t-283 -118.5q-60 0 -120 16.5t-108.5 43.5 t-93 59t-77 64.5t-56.5 59.5t-36 44l-13 16l193 119q5 -8 15 -20.5t42 -45.5t65.5 -58t83.5 -45.5t99 -20.5q71 0 121.5 50.5t50.5 121.5q0 44 -21 81.5t-57 57.5zM877 1671l-302 -176h-108l-303 176l123 156l233 -135l234 135z" />
<glyph unicode="&#x161;" horiz-adv-x="792" d="M461 313l-230 144q-67 41 -101 106t-34 137q0 119 89 202t218 83q84 0 156 -37.5t111 -105.5l-193 -111q-33 41 -71 41q-32 0 -56 -22t-24 -50q0 -34 24 -49l240 -149q63 -40 96 -102.5t33 -139.5q0 -119 -92 -203t-224 -84q-128 0 -219 82.5t-94 198.5h236 q1 -27 25 -45.5t55 -18.5q33 0 55 21t22 51q0 36 -22 51zM760 1262l-301 -177h-109l-303 177l123 155l233 -135l234 135z" />
<glyph unicode="&#x162;" horiz-adv-x="1118" d="M676 0h-234v1137h-430v221h1094v-221h-430v-1137zM416 -389l65 117q14 -7 25 -7q22 0 37.5 15t15.5 35t-15.5 34.5t-37.5 14.5h-64v180h127v-61q58 -19 95.5 -65t37.5 -103q0 -74 -57.5 -127.5t-138.5 -53.5q-43 0 -90 21z" />
<glyph unicode="&#x163;" horiz-adv-x="806" d="M518 0h-229v737h-234v221h234v431h229v-431h234v-221h-234v-737zM262 -389l66 117q14 -7 24 -7q22 0 38 15t16 35t-16 34.5t-38 14.5h-63v180h127v-61q58 -19 95.5 -65t37.5 -103q0 -74 -58 -127.5t-139 -53.5q-43 0 -90 21z" />
<glyph unicode="&#x164;" horiz-adv-x="1118" d="M676 0h-234v1137h-430v221h1094v-221h-430v-1137zM915 1671l-301 -176h-108l-303 176l123 156l233 -135l234 135z" />
<glyph unicode="&#x165;" horiz-adv-x="1011" d="M518 0h-229v737h-234v221h234v431h229v-431h234v-221h-234v-737zM807 1085v177h-8q-60 0 -97.5 37.5t-37.5 91.5q0 55 38 93t97 38q70 0 113.5 -57t43.5 -146q0 -91 -47 -162.5t-102 -71.5z" />
<glyph unicode="&#x166;" horiz-adv-x="1118" d="M676 0h-234v569h-211v222h211v346h-430v221h1094v-221h-430v-346h211v-222h-211v-569z" />
<glyph unicode="&#x167;" horiz-adv-x="806" d="M518 0h-229v369h-228v182h228v186h-234v221h234v431h229v-431h234v-221h-234v-186h227v-182h-227v-369z" />
<glyph unicode="&#x168;" horiz-adv-x="1323" d="M1018 1655l-96 -96q-64 -64 -154 -64q-88 0 -152 64l-45 45q-6 6 -16 6t-16 -6l-97 -99l-137 137l96 97q63 63 154 63q89 0 152 -63l45 -45q6 -6 16 -6t16 6l97 98zM961 504v854h233v-850q0 -146 -71 -269t-193 -194.5t-266 -71.5q-146 0 -269 71.5t-194.5 194.5 t-71.5 269v850h233v-854q0 -128 89 -218.5t213 -90.5q122 0 209.5 90.5t87.5 218.5z" />
<glyph unicode="&#x169;" d="M952 1245l-96 -96q-64 -64 -154 -64q-87 0 -151 64l-45 45q-6 6 -17 6q-10 0 -16 -6l-96 -98l-137 137l96 96q64 64 153 64q88 0 152 -64l45 -45q6 -6 16 -6q11 0 17 6l96 98zM1067 0h-229v125q-57 -75 -134 -113.5t-161 -38.5t-152 22t-111 54t-74.5 80.5t-46.5 90.5 t-24 95t-10.5 82t-1.5 64v497h229v-479q0 -33 0.5 -53t5.5 -54.5t13.5 -56t26 -48.5t42.5 -42t64 -26t88 -11q102 0 174 85t72 206v479h229v-958z" />
<glyph unicode="&#x16a;" horiz-adv-x="1323" d="M961 504v854h233v-850q0 -146 -71 -269t-193 -194.5t-266 -71.5q-146 0 -269 71.5t-194.5 194.5t-71.5 269v850h233v-854q0 -128 89 -218.5t213 -90.5q122 0 209.5 90.5t87.5 218.5zM989 1540h-655v221h655v-221z" />
<glyph unicode="&#x16b;" d="M1067 0h-229v125q-57 -75 -134 -113.5t-161 -38.5t-152 22t-111 54t-74.5 80.5t-46.5 90.5t-24 95t-10.5 82t-1.5 64v497h229v-479q0 -33 0.5 -53t5.5 -54.5t13.5 -56t26 -48.5t42.5 -42t64 -26t88 -11q102 0 174 85t72 206v479h229v-958zM924 1130h-656v222h656v-222z " />
<glyph unicode="&#x16c;" horiz-adv-x="1323" d="M961 504v854h233v-850q0 -146 -71 -269t-193 -194.5t-266 -71.5q-146 0 -269 71.5t-194.5 194.5t-71.5 269v850h233v-854q0 -128 89 -218.5t213 -90.5q122 0 209.5 90.5t87.5 218.5zM815 1817l195 -48q-31 -120 -128 -197t-220 -77t-220.5 77t-128.5 197l195 48 q14 -56 56.5 -92.5t97.5 -36.5t97 36.5t56 92.5z" />
<glyph unicode="&#x16d;" d="M1067 0h-229v125q-57 -75 -134 -113.5t-161 -38.5t-152 22t-111 54t-74.5 80.5t-46.5 90.5t-24 95t-10.5 82t-1.5 64v497h229v-479q0 -33 0.5 -53t5.5 -54.5t13.5 -56t26 -48.5t42.5 -42t64 -26t88 -11q102 0 174 85t72 206v479h229v-958zM750 1407l194 -47 q-31 -120 -128 -197.5t-220 -77.5t-220 77.5t-128 197.5l194 47q14 -56 56.5 -92.5t97.5 -36.5t97.5 36.5t56.5 92.5z" />
<glyph unicode="&#x16e;" horiz-adv-x="1323" d="M961 504v854h233v-850q0 -146 -71 -269t-193 -194.5t-266 -71.5q-146 0 -269 71.5t-194.5 194.5t-71.5 269v850h233v-854q0 -128 89 -218.5t213 -90.5q122 0 209.5 90.5t87.5 218.5zM823 1647q0 -66 -46.5 -111t-114.5 -45t-114 45t-46 111t46.5 111.5t113.5 45.5 q68 0 114.5 -45.5t46.5 -111.5zM719 1647q0 23 -17 39t-40 16t-39.5 -16t-16.5 -39t16.5 -38.5t39.5 -15.5q24 0 40.5 15.5t16.5 38.5z" />
<glyph unicode="&#x16f;" d="M1067 0h-229v125q-57 -75 -134 -113.5t-161 -38.5t-152 22t-111 54t-74.5 80.5t-46.5 90.5t-24 95t-10.5 82t-1.5 64v497h229v-479q0 -33 0.5 -53t5.5 -54.5t13.5 -56t26 -48.5t42.5 -42t64 -26t88 -11q102 0 174 85t72 206v479h229v-958zM754 1237q0 -66 -47 -111 t-115 -45t-114 45t-46 111t46.5 112t113.5 46q68 0 115 -46t47 -112zM649 1237q0 23 -17 39t-40 16t-39 -16t-16 -39t16 -38t39 -15q24 0 40.5 15t16.5 38z" />
<glyph unicode="&#x170;" horiz-adv-x="1323" d="M961 504v854h233v-850q0 -146 -71 -269t-193 -194.5t-266 -71.5q-146 0 -269 71.5t-194.5 194.5t-71.5 269v850h233v-854q0 -128 89 -218.5t213 -90.5q122 0 209.5 90.5t87.5 218.5zM426 1485l-125 125l197 196l125 -125zM825 1487l-120 123l196 196l121 -123z" />
<glyph unicode="&#x171;" d="M1067 0h-229v125q-57 -75 -134 -113.5t-161 -38.5t-152 22t-111 54t-74.5 80.5t-46.5 90.5t-24 95t-10.5 82t-1.5 64v497h229v-479q0 -33 0.5 -53t5.5 -54.5t13.5 -56t26 -48.5t42.5 -42t64 -26t88 -11q102 0 174 85t72 206v479h229v-958zM360 1075l-124 125l196 197 l125 -125zM760 1077l-121 123l197 197l120 -123z" />
<glyph unicode="&#x172;" horiz-adv-x="1323" d="M860 -209v-8q0 -79 -57 -136t-135 -57q-79 0 -135 57t-56 136q0 103 113 197q-197 25 -329 175t-132 353v850h233v-854q0 -128 89 -218.5t213 -90.5q122 0 209.5 90.5t87.5 218.5v854h233v-850q0 -195 -123 -341.5t-309 -182.5q-103 -93 -103 -136q0 -40 37.5 -66 t81.5 -26t82 35z" />
<glyph unicode="&#x173;" d="M1067 0h-229v125q-57 -75 -134 -113.5t-161 -38.5t-152 22t-111 54t-74.5 80.5t-46.5 90.5t-24 95t-10.5 82t-1.5 64v497h229v-479q0 -33 0.5 -53t5.5 -54.5t13.5 -56t26 -48.5t42.5 -42t64 -26t88 -11q102 0 174 85t72 206v479h229v-958zM1081 -209v-8q0 -79 -57 -136 t-135 -57q-79 0 -135 57t-56 136q0 114 142 217h164q-123 -106 -123 -152q0 -40 37.5 -66t80.5 -26q44 0 82 35z" />
<glyph unicode="&#x174;" horiz-adv-x="1734" d="M1296 -33l-430 903l-426 -903l-434 1391h234l241 -785l387 818l387 -818l240 785h234zM1102 1466l-234 136l-233 -136l-123 156l303 176h109l301 -176z" />
<glyph unicode="&#x175;" horiz-adv-x="1601" d="M1067 -37l-266 551l-266 -551l-490 995h238l252 -512l266 543l266 -543l252 512h237zM1034 1057l-233 135l-234 -135l-123 155l304 177h108l301 -177z" />
<glyph unicode="&#x176;" horiz-adv-x="1310" d="M772 0h-233v430l-537 928h266l389 -674l387 674h265l-537 -928v-430zM889 1466l-234 136l-233 -136l-123 156l303 176h109l301 -176z" />
<glyph unicode="&#x177;" horiz-adv-x="1114" d="M397 -410l-202 101l235 481l-385 786h252l262 -552l260 552h250zM793 1057l-234 135l-233 -135l-123 155l303 177h108l301 -177z" />
<glyph unicode="&#x178;" horiz-adv-x="1310" d="M772 0h-233v430l-537 928h266l389 -674l387 674h265l-537 -928v-430zM555 1649q0 -45 -33 -77t-80 -32q-46 0 -79 32.5t-33 76.5q0 45 33 76.5t79 31.5q47 0 80 -31t33 -77zM985 1649q0 -45 -33 -77t-80 -32q-46 0 -79 32.5t-33 76.5q0 45 33 76.5t79 31.5q47 0 80 -31 t33 -77z" />
<glyph unicode="&#x179;" horiz-adv-x="1148" d="M1071 0h-1020l656 1137h-629v221h1020l-656 -1137h629v-221zM903 1614l-608 -152l-47 172l594 201z" />
<glyph unicode="&#x17a;" horiz-adv-x="956" d="M856 0h-782l428 748h-402v210h783l-434 -745h407v-213zM807 1204l-608 -151l-47 172l593 200z" />
<glyph unicode="&#x17b;" horiz-adv-x="1148" d="M1071 0h-1020l656 1137h-629v221h1020l-656 -1137h629v-221zM696 1651q0 -50 -35 -84.5t-86 -34.5t-86.5 34.5t-35.5 84.5q0 49 35.5 82.5t86.5 33.5t86 -33.5t35 -82.5z" />
<glyph unicode="&#x17c;" horiz-adv-x="956" d="M856 0h-782l428 748h-402v210h783l-434 -745h407v-213zM600 1241q0 -50 -35 -84.5t-86 -34.5t-87 35t-36 84t36 83t87 34t86 -34t35 -83z" />
<glyph unicode="&#x17d;" horiz-adv-x="1148" d="M1071 0h-1020l656 1137h-629v221h1020l-656 -1137h629v-221zM932 1671l-301 -176h-109l-303 176l123 156l233 -135l234 135z" />
<glyph unicode="&#x17e;" horiz-adv-x="956" d="M856 0h-782l428 748h-402v210h783l-434 -745h407v-213zM836 1262l-301 -177h-109l-303 177l123 155l233 -135l234 135z" />
<glyph unicode="&#x17f;" horiz-adv-x="614" d="M377 0h-230v1083q0 182 129 310.5t312 128.5t313 -127l-160 -156q-66 66 -153 66t-149 -65.5t-62 -156.5v-1083z" />
<glyph unicode="&#x192;" horiz-adv-x="1003" d="M862 737h-373l-225 -841q-34 -130 -144.5 -216t-248.5 -86q-69 0 -131 21t-100.5 50.5t-67.5 59.5t-41 51l-12 21l182 107q2 -4 6 -10t18.5 -21.5t32 -27.5t46.5 -21.5t61 -9.5q67 0 117 38t65 97l209 788h-219v221h278l64 240q37 141 154.5 232.5t269.5 91.5 q55 0 107.5 -13t88 -32t63.5 -37.5t41 -31.5l13 -13l-160 -156q-7 7 -19 18t-52 29.5t-82 18.5q-71 0 -128.5 -45t-76.5 -115l-49 -187h313v-221z" />
<glyph unicode="&#x1fa;" horiz-adv-x="1353" d="M1348 0h-256l-115 238h-600l-115 -238h-256l610 1268q-45 18 -72.5 56.5t-27.5 88.5q0 66 46.5 112t113.5 46q68 0 115 -46t47 -112q0 -50 -28.5 -88.5t-74.5 -56.5zM877 451l-201 417l-201 -417h402zM733 1413q0 23 -17 39t-40 16t-39 -16t-16 -39t16 -38t39 -15 q24 0 40.5 15t16.5 38zM1004 1755l-609 -151l-47 172l594 200z" />
<glyph unicode="&#x1fb;" horiz-adv-x="1159" d="M1030 0h-229v106q-130 -133 -301 -133q-121 0 -223.5 67.5t-162 184t-59.5 254.5t59.5 254.5t162 184t223.5 67.5q84 0 162.5 -36t138.5 -99v108h229v-958zM549 190q109 0 186.5 84t77.5 205t-77.5 206t-186.5 85q-108 0 -186 -85t-78 -206t78 -205t186 -84zM719 1237 q0 -66 -47 -111t-115 -45t-114 45t-46 111t46.5 112t113.5 46q68 0 115 -46t47 -112zM614 1237q0 23 -17 39t-40 16t-39 -16t-16 -39t16 -38t39 -15q24 0 40.5 15t16.5 38zM885 1614l-609 -152l-47 172l594 201z" />
<glyph unicode="&#x1fc;" horiz-adv-x="1806" d="M801 451v475l-309 -475h309zM1669 0h-868v238h-451l-155 -238h-271l893 1358h852v-221h-635v-338h527v-221h-527v-357h635v-221zM1245 1604l-608 -152l-47 172l594 201z" />
<glyph unicode="&#x1fd;" horiz-adv-x="1853" d="M1794 422h-752q0 -82 82.5 -157t186.5 -75q120 0 213 93l159 -158q-70 -72 -164 -112t-198 -40q-162 0 -291 90v-63h-229v106q-130 -133 -301 -133q-121 0 -223.5 67.5t-162 184t-59.5 254.5t59.5 254.5t162 184t223.5 67.5q172 0 301 -135v108h229v-59q127 86 277 86 q134 0 247 -67.5t178.5 -184t65.5 -254.5zM549 190q109 0 186.5 84t77.5 205t-77.5 206t-186.5 85q-108 0 -186 -85t-78 -206t78 -205t186 -84zM1057 612h497q-39 75 -104.5 118.5t-142.5 43.5q-163 0 -250 -162zM1245 1204l-608 -151l-47 172l594 200z" />
<glyph unicode="&#x1fe;" horiz-adv-x="1562" d="M1108 1614l-608 -152l-47 172l594 201zM229 -27l-157 156l133 133q-137 190 -137 420q0 193 95.5 357t259.5 259t357 95q231 0 416 -133l133 133l160 -160l-133 -133q139 -189 139 -418q0 -144 -56.5 -275.5t-152.5 -226.5t-228.5 -151t-277.5 -56q-233 0 -418 133z M1190 934l-664 -664q115 -75 252 -75q131 0 242.5 66t175.5 177.5t64 241.5t-70 254zM371 430l663 666q-118 75 -256 75q-129 0 -238.5 -66t-173 -179t-63.5 -246t68 -250z" />
<glyph unicode="&#x1ff;" horiz-adv-x="1126" d="M891 1204l-608 -151l-47 172l593 200zM199 -27l-142 140l82 84q-84 127 -84 282q0 138 67.5 254.5t184.5 184t256 67.5q150 0 279 -82l82 82l143 -143l-82 -82q86 -130 86 -281q0 -138 -67.5 -254.5t-184.5 -184t-256 -67.5q-153 0 -280 84zM307 365l375 376 q-56 29 -119 29q-116 0 -197 -85t-81 -206q0 -59 22 -114zM819 594l-377 -377q62 -27 121 -27q116 0 197.5 84t81.5 205q0 57 -23 115z" />
<glyph unicode="&#x218;" horiz-adv-x="1021" d="M412 -389l65 117q14 -7 25 -7q22 0 37.5 15t15.5 35t-15.5 34.5t-37.5 14.5h-64v131h64q81 0 138.5 -53t57.5 -127t-57.5 -127.5t-138.5 -53.5q-43 0 -90 21zM645 516l-317 182q-81 46 -131 134t-50 188q0 155 109 264t264 109q104 0 193 -54t137 -143l-207 -113 q-40 74 -119 74q-59 0 -100 -40.5t-41 -98.5q0 -37 19 -69t49 -50l329 -192q84 -49 131 -138t47 -194q0 -165 -118 -283.5t-283 -118.5q-60 0 -120 16.5t-108.5 43.5t-93 59t-77 64.5t-56.5 59.5t-36 44l-13 16l193 119q5 -8 15 -20.5t42 -45.5t65.5 -58t83.5 -45.5 t99 -20.5q71 0 121.5 50.5t50.5 121.5q0 44 -21 81.5t-57 57.5z" />
<glyph unicode="&#x219;" horiz-adv-x="792" d="M461 313l-230 144q-67 41 -101 106t-34 137q0 119 89 202t218 83q84 0 156 -37.5t111 -105.5l-193 -111q-33 41 -71 41q-32 0 -56 -22t-24 -50q0 -34 24 -49l240 -149q63 -40 96 -102.5t33 -139.5q0 -119 -92 -203t-224 -84q-128 0 -219 82.5t-94 198.5h236 q1 -27 25 -45.5t55 -18.5q33 0 55 21t22 51q0 36 -22 51zM283 -389l65 117q14 -7 25 -7q22 0 37.5 15t15.5 35t-15.5 34.5t-37.5 14.5h-64v131h64q81 0 138.5 -53t57.5 -127t-57.5 -127.5t-138.5 -53.5q-43 0 -90 21z" />
<glyph unicode="&#x21a;" horiz-adv-x="1118" d="M676 0h-234v1137h-430v221h1094v-221h-430v-1137zM412 -389l65 117q14 -7 25 -7q22 0 37.5 15t15.5 35t-15.5 34.5t-37.5 14.5h-64v131h64q81 0 138.5 -53t57.5 -127t-57.5 -127.5t-138.5 -53.5q-43 0 -90 21z" />
<glyph unicode="&#x21b;" horiz-adv-x="806" d="M518 0h-229v737h-234v221h234v431h229v-431h234v-221h-234v-737zM258 -389l66 117q14 -7 24 -7q22 0 37.5 15t15.5 35t-15.5 34.5t-37.5 14.5h-63v131h63q81 0 139 -53t58 -127t-58 -127.5t-139 -53.5q-43 0 -90 21z" />
<glyph unicode="&#x237;" horiz-adv-x="569" d="M182 0v958h230v-958q0 -167 -120.5 -286.5t-287.5 -119.5q-112 0 -205 55t-147 148l182 107q26 -41 67.5 -65.5t92.5 -24.5q78 0 133 54.5t55 131.5z" />
<glyph unicode="&#x2c6;" horiz-adv-x="819" d="M643 1057l-233 135l-234 -135l-123 155l303 177h109l301 -177z" />
<glyph unicode="&#x2c7;" horiz-adv-x="819" d="M766 1262l-301 -177h-109l-303 177l123 155l234 -135l233 135z" />
<glyph unicode="&#x2c9;" horiz-adv-x="618" d="M643 1130h-668v107h668v-107z" />
<glyph unicode="&#x2d8;" horiz-adv-x="819" d="M563 1407l195 -47q-31 -120 -128 -197.5t-220 -77.5t-220.5 77.5t-128.5 197.5l195 47q14 -56 56.5 -92.5t97.5 -36.5t97 36.5t56 92.5z" />
<glyph unicode="&#x2d9;" horiz-adv-x="819" d="M530 1241q0 -50 -34.5 -84.5t-85.5 -34.5t-87 35t-36 84t36 83t87 34t85.5 -33.5t34.5 -83.5z" />
<glyph unicode="&#x2da;" horiz-adv-x="819" d="M571 1237q0 -66 -46.5 -111t-114.5 -45t-114 45t-46 111t46.5 112t113.5 46t114 -46t47 -112zM467 1237q0 23 -17 39t-40 16t-39.5 -16t-16.5 -39t16 -38t40 -15t40.5 15t16.5 38z" />
<glyph unicode="&#x2db;" horiz-adv-x="819" d="M602 -209v-8q0 -79 -57 -136t-135 -57q-79 0 -135 57t-56 136q0 115 141 217h164q-123 -106 -123 -152q0 -40 37.5 -66t81.5 -26t82 35z" />
<glyph unicode="&#x2dc;" horiz-adv-x="819" d="M766 1245l-96 -96q-64 -64 -154 -64q-87 0 -151 64l-46 45q-6 6 -16 6t-16 -6l-97 -98l-137 137l97 96q64 64 153 64q88 0 152 -64l45 -45q6 -6 16 -6t16 6l97 98z" />
<glyph unicode="&#x2dd;" horiz-adv-x="819" d="M174 1075l-125 125l197 197l125 -125zM573 1077l-120 123l196 197l121 -123z" />
<glyph unicode="&#x300;" horiz-adv-x="0" d="M281 1053l-609 151l62 221l594 -200z" />
<glyph unicode="&#x301;" horiz-adv-x="0" d="M328 1204l-609 -151l-47 172l594 200z" />
<glyph unicode="&#x302;" horiz-adv-x="0" d="M233 1057l-233 135l-233 -135l-123 155l303 177h108l301 -177z" />
<glyph unicode="&#x303;" horiz-adv-x="0" d="M356 1245l-96 -96q-64 -64 -154 -64q-87 0 -151 64l-45 45q-6 6 -16 6q-11 0 -17 -6l-96 -98l-137 137l96 96q64 64 154 64q87 0 151 -64l45 -45q6 -6 16 -6q11 0 17 6l96 98z" />
<glyph unicode="&#x304;" horiz-adv-x="0" d="M328 1130h-656v222h656v-222z" />
<glyph unicode="&#x305;" horiz-adv-x="0" d="M334 1130h-668v107h668v-107z" />
<glyph unicode="&#x306;" horiz-adv-x="0" d="M154 1407l194 -47q-31 -120 -128 -197.5t-220 -77.5t-220 77.5t-128 197.5l194 47q14 -56 56.5 -92.5t97.5 -36.5t97.5 36.5t56.5 92.5z" />
<glyph unicode="&#x307;" horiz-adv-x="0" d="M121 1241q0 -50 -35 -84.5t-86 -34.5t-87 35t-36 84t36 83t87 34t86 -34t35 -83z" />
<glyph unicode="&#x308;" horiz-adv-x="0" d="M-102 1239q0 -45 -33 -77t-80 -32q-46 0 -79.5 32.5t-33.5 76.5q0 45 33.5 77t79.5 32q47 0 80 -31.5t33 -77.5zM328 1239q0 -45 -33 -77t-80 -32q-46 0 -79.5 32.5t-33.5 76.5q0 45 33.5 77t79.5 32q47 0 80 -31.5t33 -77.5z" />
<glyph unicode="&#x30a;" horiz-adv-x="0" d="M162 1237q0 -66 -47 -111t-115 -45t-114 45t-46 111t46.5 112t113.5 46q68 0 115 -46t47 -112zM57 1237q0 23 -17 39t-40 16t-39 -16t-16 -39t16 -38t39 -15q24 0 40.5 15t16.5 38z" />
<glyph unicode="&#x30b;" horiz-adv-x="0" d="M-236 1075l-124 125l196 197l125 -125zM164 1077l-121 123l197 197l120 -123z" />
<glyph unicode="&#x30c;" horiz-adv-x="0" d="M356 1262l-301 -177h-108l-303 177l123 155l233 -135l233 135z" />
<glyph unicode="&#x312;" horiz-adv-x="0" d="M106 1126h-63q-81 0 -139 53.5t-58 127.5t58 127t139 53q43 0 90 -21l-65 -116q-12 6 -25 6q-22 0 -37.5 -14.5t-15.5 -34.5t15.5 -35t37.5 -15h63v-131z" />
<glyph unicode="&#x313;" horiz-adv-x="0" d="M-205 1085v177h-8q-60 0 -97.5 37.5t-37.5 91.5q0 55 38 93t97 38q70 0 114 -57.5t44 -145.5q0 -90 -47.5 -162t-102.5 -72z" />
<glyph unicode="&#x326;" horiz-adv-x="819" d="M276 -389l66 117q14 -7 25 -7q22 0 37.5 15t15.5 35t-15.5 34.5t-37.5 14.5h-64v131h64q81 0 138.5 -53t57.5 -127t-57.5 -127.5t-138.5 -53.5q-44 0 -91 21z" />
<glyph unicode="&#x327;" horiz-adv-x="0" d="M-90 -389l65 117q14 -7 25 -7q22 0 37.5 15t15.5 35t-15.5 34.5t-37.5 14.5h-63v180h126v-61q59 -19 96.5 -65t37.5 -103q0 -74 -58 -127.5t-139 -53.5q-43 0 -90 21z" />
<glyph unicode="&#x328;" horiz-adv-x="0" d="M193 -209v-8q0 -79 -57.5 -136t-135.5 -57q-79 0 -134.5 57t-55.5 136q0 115 141 217h164q-123 -106 -123 -152q0 -40 37.5 -66t81.5 -26t82 35z" />
<glyph unicode="&#x394;" horiz-adv-x="1314" d="M963 217l-306 649l-305 -649h611zM1309 0h-1303l651 1391z" />
<glyph unicode="&#x3a9;" horiz-adv-x="1562" d="M1516 0h-553v231q132 56 214.5 179t82.5 270q0 203 -141 347t-341 144q-129 0 -238.5 -66t-173 -179t-63.5 -246q0 -148 82 -270.5t213 -178.5v-231h-551v221h209q-88 79 -138 203t-50 258q0 193 95.5 357t259.5 259t357 95q146 0 278 -56.5t228 -151.5t152.5 -226.5 t56.5 -276.5q0 -133 -50 -256.5t-138 -204.5h209v-221z" />
<glyph unicode="&#x3bc;" d="M377 -379h-230v1337h230v-479q0 -121 72 -206t174 -85q49 0 88 11t63.5 26t42 42t26.5 48.5t13.5 56t5 54t0.5 53.5v479h230v-497q0 -25 -1 -47t-5.5 -60.5t-12 -70.5t-22.5 -72.5t-36 -72.5t-53.5 -64t-73 -53t-96.5 -34.5t-122 -13.5q-83 0 -159 37.5t-134 108.5v-498z " />
<glyph unicode="&#x3c0;" horiz-adv-x="1347" d="M1096 0h-230v748h-385v-748h-229v748h-197v210h1237v-210h-196v-748z" />
<glyph unicode="&#x1e80;" horiz-adv-x="1734" d="M1296 -33l-430 903l-426 -903l-434 1391h234l241 -785l387 818l387 -818l240 785h234zM1147 1462l-608 152l61 221l594 -201z" />
<glyph unicode="&#x1e81;" horiz-adv-x="1601" d="M1067 -37l-266 551l-266 -551l-490 995h238l252 -512l266 543l266 -543l252 512h237zM1081 1053l-608 151l62 221l593 -200z" />
<glyph unicode="&#x1e82;" horiz-adv-x="1734" d="M1296 -33l-430 903l-426 -903l-434 1391h234l241 -785l387 818l387 -818l240 785h234zM1194 1614l-608 -152l-47 172l594 201z" />
<glyph unicode="&#x1e83;" horiz-adv-x="1601" d="M1067 -37l-266 551l-266 -551l-490 995h238l252 -512l266 543l266 -543l252 512h237zM1128 1204l-608 -151l-47 172l594 200z" />
<glyph unicode="&#x1e84;" horiz-adv-x="1734" d="M1296 -33l-430 903l-426 -903l-434 1391h234l241 -785l387 818l387 -818l240 785h234zM764 1649q0 -45 -33 -77t-80 -32q-46 0 -79 32.5t-33 76.5q0 45 33 76.5t79 31.5q47 0 80 -31t33 -77zM1194 1649q0 -45 -33 -77t-80 -32q-46 0 -79 32.5t-33 76.5q0 45 33 76.5 t79 31.5q47 0 80 -31t33 -77z" />
<glyph unicode="&#x1e85;" horiz-adv-x="1601" d="M1067 -37l-266 551l-266 -551l-490 995h238l252 -512l266 543l266 -543l252 512h237zM698 1239q0 -45 -32.5 -77t-79.5 -32q-46 0 -79.5 32.5t-33.5 76.5q0 45 33.5 77t79.5 32q47 0 79.5 -31.5t32.5 -77.5zM1128 1239q0 -45 -32.5 -77t-79.5 -32q-46 0 -79.5 32.5 t-33.5 76.5q0 45 33.5 77t79.5 32q47 0 79.5 -31.5t32.5 -77.5z" />
<glyph unicode="&#x1ef2;" horiz-adv-x="1310" d="M772 0h-233v430l-537 928h266l389 -674l387 674h265l-537 -928v-430zM936 1464l-608 152l61 221l594 -201z" />
<glyph unicode="&#x1ef3;" horiz-adv-x="1114" d="M397 -410l-202 101l235 481l-385 786h252l262 -552l260 552h250zM840 1053l-609 151l62 221l594 -200z" />
<glyph unicode="&#x2000;" horiz-adv-x="988" />
<glyph unicode="&#x2001;" horiz-adv-x="1976" />
<glyph unicode="&#x2002;" horiz-adv-x="988" />
<glyph unicode="&#x2003;" horiz-adv-x="1976" />
<glyph unicode="&#x2004;" horiz-adv-x="658" />
<glyph unicode="&#x2005;" horiz-adv-x="494" />
<glyph unicode="&#x2006;" horiz-adv-x="329" />
<glyph unicode="&#x2007;" horiz-adv-x="329" />
<glyph unicode="&#x2008;" horiz-adv-x="247" />
<glyph unicode="&#x2009;" horiz-adv-x="395" />
<glyph unicode="&#x200a;" horiz-adv-x="109" />
<glyph unicode="&#x2010;" horiz-adv-x="782" d="M727 569h-672v222h672v-222z" />
<glyph unicode="&#x2011;" horiz-adv-x="782" d="M727 569h-672v222h672v-222z" />
<glyph unicode="&#x2012;" horiz-adv-x="782" d="M727 569h-672v222h672v-222z" />
<glyph unicode="&#x2013;" horiz-adv-x="1490" d="M1436 569h-1381v222h1381v-222z" />
<glyph unicode="&#x2014;" horiz-adv-x="1783" d="M1729 569h-1674v222h1674v-222z" />
<glyph unicode="&#x2018;" horiz-adv-x="403" d="M205 1346h8q60 0 97.5 -37.5t37.5 -91.5q0 -55 -38 -93.5t-97 -38.5q-70 0 -114 57.5t-44 145.5q0 90 47.5 162t102.5 72v-176z" />
<glyph unicode="&#x2019;" horiz-adv-x="403" d="M199 1085v177h-9q-60 0 -97.5 37.5t-37.5 91.5q0 55 38 93t97 38q70 0 114 -57.5t44 -145.5q0 -91 -47 -162.5t-102 -71.5z" />
<glyph unicode="&#x201a;" horiz-adv-x="403" d="M199 -203v176h-9q-60 0 -97.5 37.5t-37.5 91.5q0 55 38 93t97 38q70 0 114 -57t44 -145q0 -91 -47 -162.5t-102 -71.5z" />
<glyph unicode="&#x201c;" horiz-adv-x="819" d="M621 1346h8q60 0 97.5 -37.5t37.5 -91.5q0 -55 -38 -93.5t-97 -38.5q-70 0 -114 57.5t-44 145.5q0 90 47.5 162t102.5 72v-176zM205 1346h8q60 0 97.5 -37.5t37.5 -91.5q0 -55 -38 -93.5t-97 -38.5q-70 0 -114 57.5t-44 145.5q0 90 47.5 162t102.5 72v-176z" />
<glyph unicode="&#x201d;" horiz-adv-x="819" d="M199 1085v177h-9q-60 0 -97.5 37.5t-37.5 91.5q0 55 38 93t97 38q70 0 114 -57.5t44 -145.5q0 -91 -47 -162.5t-102 -71.5zM614 1085v177h-8q-60 0 -97.5 37.5t-37.5 91.5q0 55 38 93t97 38q70 0 114 -57.5t44 -145.5q0 -90 -47.5 -162t-102.5 -72z" />
<glyph unicode="&#x201e;" horiz-adv-x="819" d="M199 -203v176h-9q-60 0 -97.5 37.5t-37.5 91.5q0 55 38 93t97 38q70 0 114 -57t44 -145q0 -91 -47 -162.5t-102 -71.5zM614 -203v176h-8q-60 0 -97.5 37.5t-37.5 91.5q0 55 38 93t97 38q70 0 114 -57t44 -145q0 -90 -47.5 -162t-102.5 -72z" />
<glyph unicode="&#x2020;" horiz-adv-x="974" d="M588 479h-201l14 586l-319 94l59 178l260 -94l-8 279h189l-9 -279l261 94l59 -178l-320 -94z" />
<glyph unicode="&#x2021;" horiz-adv-x="974" d="M834 664l-261 94l9 -279h-189l8 279l-260 -94l-59 178l319 94v129l-319 94l59 178l260 -94l-8 279h189l-9 -279l261 94l59 -178l-320 -94v-129l320 -94z" />
<glyph unicode="&#x2022;" horiz-adv-x="638" d="M541 682q0 -88 -66 -149.5t-160 -61.5q-89 0 -153 61.5t-64 149.5q0 91 64 155t153 64q94 0 160 -64t66 -155z" />
<glyph unicode="&#x2026;" horiz-adv-x="1331" d="M389 82q0 -45 -33 -77t-80 -32q-46 0 -79 32.5t-33 76.5q0 45 33 76.5t79 31.5q47 0 80 -31t33 -77zM778 82q0 -45 -32.5 -77t-79.5 -32q-46 0 -79.5 32.5t-33.5 76.5q0 45 33.5 76.5t79.5 31.5q47 0 79.5 -31t32.5 -77zM1167 82q0 -45 -32.5 -77t-79.5 -32 q-46 0 -79.5 32.5t-33.5 76.5q0 45 33.5 76.5t79.5 31.5q47 0 79.5 -31t32.5 -77z" />
<glyph unicode="&#x202f;" horiz-adv-x="395" />
<glyph unicode="&#x2030;" horiz-adv-x="2764" d="M612 -27l-192 111l827 1438l195 -113zM1831 373q0 -166 -117 -283t-284 -117q-166 0 -283 117t-117 283q0 165 117 281t283 116q167 0 284 -115.5t117 -281.5zM1430 174q82 0 138 58t56 141t-56 139.5t-138 56.5q-80 0 -136.5 -56.5t-56.5 -139.5t56.5 -141t136.5 -58z M834 1126q0 -166 -117.5 -282.5t-284.5 -116.5q-166 0 -282.5 116.5t-116.5 282.5t116.5 282t282.5 116q167 0 284.5 -116t117.5 -282zM432 928q82 0 138.5 57.5t56.5 140.5t-56.5 140t-138.5 57q-80 0 -136 -57t-56 -140t56 -140.5t136 -57.5zM2732 373q0 -166 -117 -283 t-284 -117q-166 0 -283 117t-117 283q0 165 117 281t283 116q167 0 284 -115.5t117 -281.5zM2331 174q82 0 138 58t56 141t-56 139.5t-138 56.5q-80 0 -136.5 -56.5t-56.5 -139.5t56.5 -141t136.5 -58z" />
<glyph unicode="&#x2039;" horiz-adv-x="647" d="M610 0h-276l-277 479l277 479h276l-282 -479z" />
<glyph unicode="&#x203a;" horiz-adv-x="647" d="M334 0h-277l283 479l-283 479h277l276 -479z" />
<glyph unicode="&#x2044;" horiz-adv-x="344" d="M-127 -33l-168 96l766 1330l168 -97z" />
<glyph unicode="&#x205f;" horiz-adv-x="494" />
<glyph unicode="&#x2071;" horiz-adv-x="452" d="M324 547h-195v811h195v-811zM346 1657q0 -51 -34.5 -85t-88.5 -34q-48 0 -82.5 34.5t-34.5 84.5q0 47 35 82t82 35q53 0 88 -34.5t35 -82.5z" />
<glyph unicode="&#x207f;" horiz-adv-x="1052" d="M924 547h-195v409q0 28 -0.5 45t-4.5 46.5t-11.5 48t-22.5 41t-36 36t-53.5 22.5t-74.5 9q-86 0 -147.5 -72.5t-61.5 -175.5v-409h-194v811h194v-103q42 61 108 94t140 33q72 0 129.5 -18.5t94 -46t63.5 -68t40.5 -76t21 -80t9 -70t1.5 -54.5v-422z" />
<glyph unicode="&#x20a3;" horiz-adv-x="1097" d="M659 164h-217v-164h-233v164h-168v221h168v973h868v-221h-635v-338h527v-221h-527v-193h217v-221z" />
<glyph unicode="&#x20a4;" horiz-adv-x="1064" d="M729 0h-655v209q49 0 88 35t47 86l10 73h-145v222h178l16 116h-194v222h227l12 79q20 147 136 244.5t272 97.5q51 0 101 -12t74 -24l24 -13l-111 -186q-37 22 -88 22q-68 0 -118.5 -44t-59.5 -111l-8 -53h161v-222h-194l-17 -116h211v-222h-243l-27 -182h301q46 0 73 21 t54 65l203 -108q-124 -199 -328 -199z" />
<glyph unicode="&#x20a7;" horiz-adv-x="2304" d="M1972 313l-229 144q-67 41 -101 106t-34 137q0 25 2 37h-199v-737h-229v737h-176q-37 -178 -181 -294.5t-329 -116.5h-115v-326h-234v1358h349q181 0 323 -114t182 -286h181v431h229v-431h234v-122q39 69 110.5 109t159.5 40q83 0 155 -37.5t111 -105.5l-192 -111 q-33 41 -72 41q-32 0 -56 -22t-24 -50q0 -33 25 -49l239 -149q63 -40 96 -102.5t33 -139.5q0 -119 -91.5 -203t-223.5 -84q-128 0 -219 82.5t-94 198.5h235q1 -27 25 -45.5t55 -18.5q33 0 55.5 21t22.5 51q0 36 -23 51zM381 547h115q119 0 201.5 86.5t82.5 210.5 q0 121 -83 207t-201 86h-115v-590z" />
<glyph unicode="&#x20ac;" horiz-adv-x="1439" d="M1294 377v-299q-168 -105 -372 -105q-205 0 -379 111t-264 289h-224l78 217h82q-6 45 -6 92v33h-154l78 217h121q82 200 265.5 330.5t402.5 130.5q260 0 460 -166l-88 -236q-69 85 -166.5 134t-207.5 49q-125 0 -234 -66.5t-172 -175.5h760l-76 -217h-752q-2 -12 -2 -35 t2 -45.5t4 -33.5l3 -11h698l-78 -217h-522q67 -84 163.5 -132t205.5 -48q111 0 207.5 48.5t166.5 135.5z" />
<glyph unicode="&#x20ba;" horiz-adv-x="1058" d="M203 -16v698l-137 -49v176l137 49v109l-137 -49v176l137 49v250h233v-164l223 82v-176l-223 -82v-109l223 82v-176l-223 -82v-559q158 42 260.5 174t102.5 299h235q0 -144 -56.5 -275.5t-152.5 -226.5t-228.5 -151t-277.5 -56q-48 0 -116 11z" />
<glyph unicode="&#x20bd;" horiz-adv-x="1107" d="M700 178h-294v-178h-234v178h-117v221h117v74h-117v221h117v664h422q183 0 314.5 -130t131.5 -313q0 -90 -35.5 -172.5t-95.5 -141t-142.5 -93.5t-172.5 -35h-188v-74h294v-221zM406 694h186q88 0 150.5 65.5t62.5 158.5q0 89 -62.5 154t-150.5 65h-186v-443z" />
<glyph unicode="&#x2113;" horiz-adv-x="927" d="M721 283l182 -107q-54 -93 -147 -148t-205 -55q-114 0 -209.5 58t-148.5 155l-60 -61l-158 154l168 176v581q0 148 105 252.5t254 104.5t253.5 -104.5t104.5 -252.5q0 -144 -98 -245l-389 -414q0 -76 55 -130t133 -54q51 0 92.5 24.5t67.5 65.5zM373 696l231 246 q37 40 37 94q0 58 -40 98t-99 40q-53 0 -91 -36t-38 -89v-353z" />
<glyph unicode="&#x2120;" horiz-adv-x="1284" d="M305 950l-117 60q-75 40 -75 123q0 64 45 109.5t108 45.5q44 0 82 -24.5t62 -65.5l-103 -55q-17 33 -39 33q-15 0 -26 -13t-11 -28q0 -20 19 -31l119 -62q36 -18 56.5 -54.5t20.5 -78.5q0 -66 -48.5 -113.5t-116.5 -47.5q-33 0 -66.5 13t-58 31.5t-43.5 37t-29 31.5 l-10 13l98 62q6 -9 16.5 -22t38.5 -34.5t52 -21.5q20 0 34.5 14.5t14.5 36.5q0 31 -23 41zM1210 762h-118l-84 239l-136 -258l-135 258l-84 -239h-118l174 522l163 -313l164 313z" />
<glyph unicode="&#x2122;" horiz-adv-x="1271" d="M338 762h-117v399h-147v109h411v-109h-147v-399zM1198 762h-119l-84 239l-135 -258l-135 258l-84 -239h-119l174 522l164 -313l164 313z" />
<glyph unicode="&#x2126;" horiz-adv-x="1562" d="M1516 0h-553v231q132 56 214.5 179t82.5 270q0 203 -141 347t-341 144q-129 0 -238.5 -66t-173 -179t-63.5 -246q0 -148 82 -270.5t213 -178.5v-231h-551v221h209q-88 79 -138 203t-50 258q0 193 95.5 357t259.5 259t357 95q146 0 278 -56.5t228 -151.5t152.5 -226.5 t56.5 -276.5q0 -133 -50 -256.5t-138 -204.5h209v-221z" />
<glyph unicode="&#x212e;" horiz-adv-x="1744" d="M1382 713v379q0 31 -24 55q-202 209 -486 209q-143 0 -257 -53.5t-216 -155.5q-24 -24 -24 -55v-379q0 -11 10 -11h987q10 0 10 11zM1374 246h133q-106 -129 -268 -204t-367 -75q-161 0 -308 56.5t-253.5 152.5t-169.5 228.5t-63 277.5q0 107 33.5 210.5t101.5 194.5 t161.5 160t222 109.5t275.5 40.5q158 0 301.5 -51t253.5 -143t175 -232.5t65 -308.5h-1282q-10 0 -10 -11v-383q0 -34 24 -55q103 -99 216.5 -152t256.5 -53q147 0 276.5 63t225.5 175z" />
<glyph unicode="&#x2153;" horiz-adv-x="1558" d="M369 547h-195v618h-133l115 193h213v-811zM346 -33l-168 96l766 1330l168 -97zM1161 344h-28v170h14q37 0 63.5 22.5t26.5 55.5q0 32 -26.5 55t-63.5 23q-38 0 -68 -23t-30 -55v-14h-191q0 116 80.5 189t202.5 73q124 0 203 -72t79 -190q0 -39 -19 -78t-42 -58 q42 -28 68 -75.5t26 -106.5q0 -121 -88 -200.5t-213 -79.5q-128 0 -215.5 79.5t-87.5 200.5h192v-14q0 -40 35.5 -68t81.5 -28q44 0 76.5 28t32.5 68q0 41 -32 69.5t-77 28.5z" />
<glyph unicode="&#x2154;" horiz-adv-x="1828" d="M678 547h-617v37l367 420q49 56 49 90q0 52 -34 88.5t-81 36.5q-49 0 -82.5 -36t-33.5 -89h-178q0 123 85 209t209 86q120 0 206.5 -86.5t86.5 -208.5q0 -62 -22.5 -107t-61.5 -88l-163 -182h270v-170zM616 -33l-167 96l765 1330l168 -97zM1432 344h-29v170h14 q37 0 63.5 22.5t26.5 55.5q0 32 -26.5 55t-63.5 23q-38 0 -68 -23t-30 -55v-14h-191q0 116 80.5 189t202.5 73q124 0 203.5 -72.5t79.5 -189.5q0 -39 -19 -78t-43 -58q42 -28 68 -75.5t26 -106.5q0 -121 -88 -200.5t-213 -79.5q-128 0 -215.5 79.5t-87.5 200.5h193v-14 q0 -40 35.5 -68t81.5 -28q44 0 76 28t32 68q0 41 -31.5 69.5t-76.5 28.5z" />
<glyph unicode="&#x2155;" horiz-adv-x="1478" d="M352 547h-194v618h-133l114 193h213v-811zM330 -33l-168 96l766 1330l168 -97zM1346 635h-213l-15 -68q116 -7 195.5 -93.5t79.5 -201.5q0 -121 -93 -206.5t-225 -85.5q-87 0 -161 36.5t-119 98.5l129 116q57 -88 151 -88q60 0 99.5 37t39.5 94t-39.5 95.5t-99.5 38.5 q-71 0 -114 -50l-72 23l92 430h365v-176z" />
<glyph unicode="&#x2156;" horiz-adv-x="1753" d="M666 547h-617v37l367 420q49 56 49 90q0 52 -34 88.5t-81 36.5q-49 0 -83 -36t-34 -89h-178q0 123 85.5 209t209.5 86q120 0 206.5 -86.5t86.5 -208.5q0 -62 -22.5 -107t-61.5 -88l-164 -182h271v-170zM604 -33l-168 96l766 1330l168 -97zM1620 635h-213l-14 -68 q116 -7 195 -93.5t79 -201.5q0 -122 -92.5 -207t-224.5 -85q-87 0 -161.5 36.5t-119.5 98.5l129 116q57 -88 152 -88q60 0 99.5 37t39.5 94t-39.5 95.5t-99.5 38.5q-72 0 -115 -50l-72 23l92 430h365v-176z" />
<glyph unicode="&#x2157;" horiz-adv-x="1751" d="M395 893h-28v170h14q37 0 63.5 22.5t26.5 55.5q0 32 -26.5 55t-63.5 23q-38 0 -68 -23t-30 -55v-15h-191q0 116 81 189.5t202 73.5q124 0 203 -72.5t79 -190.5q0 -39 -18.5 -77.5t-42.5 -57.5q42 -28 68 -75.5t26 -106.5q0 -121 -88 -201t-213 -80q-128 0 -215.5 79.5 t-87.5 201.5h193v-14q0 -40 35.5 -68.5t80.5 -28.5q44 0 76.5 28.5t32.5 68.5q0 41 -32 69.5t-77 28.5zM602 -33l-168 96l766 1330l168 -97zM1618 635h-213l-14 -68q116 -7 195 -93.5t79 -201.5q0 -122 -92.5 -207t-224.5 -85q-87 0 -161.5 36.5t-119.5 98.5l129 116 q57 -88 152 -88q60 0 99.5 37t39.5 94t-39.5 95.5t-99.5 38.5q-72 0 -115 -50l-72 23l92 430h365v-176z" />
<glyph unicode="&#x2158;" horiz-adv-x="1816" d="M612 547h-180v135h-383v170l387 506h176v-506h105v-170h-105v-135zM436 852v227l-174 -227h174zM668 -33l-168 96l766 1330l168 -97zM1683 635h-213l-14 -68q116 -7 195.5 -93.5t79.5 -201.5q0 -121 -93 -206.5t-225 -85.5q-87 0 -161 36.5t-119 98.5l129 116 q57 -88 151 -88q60 0 99.5 37t39.5 94t-39.5 95.5t-99.5 38.5q-72 0 -115 -50l-71 23l92 430h364v-176z" />
<glyph unicode="&#x2159;" horiz-adv-x="1486" d="M352 547h-194v618h-133l114 193h213v-811zM330 -33l-168 96l766 1330l168 -97zM1288 811l-162 -233q114 -4 194.5 -93t80.5 -204q0 -124 -92.5 -212.5t-223.5 -88.5q-130 0 -222.5 88t-92.5 213q0 92 57 172l250 358h211zM1085 152q51 0 87 37.5t36 91.5q0 53 -36 91 t-87 38t-86.5 -38t-35.5 -91q0 -54 35.5 -91.5t86.5 -37.5z" />
<glyph unicode="&#x215a;" horiz-adv-x="1693" d="M1495 811l-162 -233q114 -4 194.5 -93t80.5 -204q0 -124 -92.5 -212.5t-223.5 -88.5q-130 0 -222.5 88t-92.5 213q0 92 57 172l250 358h211zM1292 152q51 0 87 37.5t36 91.5q0 53 -36 91t-87 38t-87 -38t-36 -91q0 -54 36 -91.5t87 -37.5zM578 1182h-213l-15 -68 q116 -7 195.5 -93.5t79.5 -201.5q0 -122 -93 -207.5t-225 -85.5q-86 0 -160.5 37t-119.5 99l129 116q57 -88 151 -88q60 0 99.5 37t39.5 94t-39.5 95t-99.5 38q-72 0 -114 -49l-72 23l92 430h365v-176zM537 -33l-168 96l766 1330l168 -97z" />
<glyph unicode="&#x215b;" horiz-adv-x="1515" d="M352 547h-194v618h-133l114 193h213v-811zM330 -33l-168 96l766 1330l168 -97zM1337 436q93 -83 93 -190q0 -110 -87.5 -188t-209.5 -78q-123 0 -210 78t-87 188t90 190q-68 75 -68 158q0 103 80.5 174.5t194.5 71.5q111 0 191.5 -72t80.5 -174q0 -87 -68 -158zM1227 596 q0 37 -28 64.5t-66 27.5q-40 0 -68.5 -27.5t-28.5 -64.5q0 -38 28.5 -65t68.5 -27q38 0 66 27t28 65zM1245 242q0 44 -33.5 75t-78.5 31q-47 0 -80 -31t-33 -75q0 -43 33 -75t80 -32q44 0 78 32t34 75z" />
<glyph unicode="&#x215c;" horiz-adv-x="1787" d="M395 893h-28v170h14q37 0 63.5 22.5t26.5 55.5q0 32 -26.5 55t-63.5 23q-38 0 -68 -23t-30 -55v-15h-191q0 116 81 189.5t202 73.5q124 0 203 -72.5t79 -190.5q0 -39 -18.5 -77.5t-42.5 -57.5q42 -28 68 -75.5t26 -106.5q0 -121 -88 -201t-213 -80q-128 0 -215.5 79.5 t-87.5 201.5h193v-14q0 -40 35.5 -68.5t80.5 -28.5q44 0 76.5 28.5t32.5 68.5q0 41 -32 69.5t-77 28.5zM602 -33l-168 96l766 1330l168 -97zM1610 436q92 -82 92 -190q0 -110 -87.5 -188t-209.5 -78q-123 0 -210 78t-87 188t90 190q-68 75 -68 158q0 103 80.5 174.5 t194.5 71.5q111 0 191.5 -72t80.5 -174q0 -88 -67 -158zM1499 596q0 37 -28 64.5t-66 27.5q-39 0 -67.5 -27.5t-28.5 -64.5q0 -38 28 -65t68 -27q38 0 66 27t28 65zM1518 242q0 44 -34 75t-79 31q-47 0 -80 -31t-33 -75q0 -43 33 -75t80 -32q44 0 78.5 32t34.5 75z" />
<glyph unicode="&#x215d;" horiz-adv-x="1722" d="M578 1182h-213l-15 -68q116 -7 195.5 -93.5t79.5 -201.5q0 -122 -93 -207.5t-225 -85.5q-86 0 -160.5 37t-119.5 99l129 116q57 -88 151 -88q60 0 99.5 37t39.5 94t-39.5 95t-99.5 38q-72 0 -114 -49l-72 23l92 430h365v-176zM537 -33l-168 96l766 1330l168 -97z M1544 436q92 -82 92 -190q0 -110 -87.5 -188t-209.5 -78q-123 0 -210 78t-87 188q0 109 91 190q-68 75 -68 158q0 103 80 174.5t194 71.5q111 0 192 -72t81 -174q0 -87 -68 -158zM1434 596q0 37 -28.5 64.5t-66.5 27.5q-39 0 -67.5 -27.5t-28.5 -64.5q0 -38 28 -65t68 -27 q39 0 67 27t28 65zM1452 242q0 44 -34 75t-79 31q-47 0 -79.5 -31t-32.5 -75q0 -43 32.5 -75t79.5 -32q44 0 78.5 32t34.5 75z" />
<glyph unicode="&#x215e;" horiz-adv-x="1536" d="M209 520l-148 96l365 566h-330v176h658zM350 -33l-168 96l766 1330l168 -97zM1358 436q92 -82 92 -190q0 -110 -87.5 -188t-209.5 -78q-123 0 -210 78t-87 188t90 190q-67 74 -67 158q0 103 80 174.5t194 71.5q111 0 191.5 -72t80.5 -174q0 -88 -67 -158zM1247 596 q0 37 -28 64.5t-66 27.5q-39 0 -67.5 -27.5t-28.5 -64.5q0 -38 28 -65t68 -27q38 0 66 27t28 65zM1266 242q0 44 -34 75t-79 31q-47 0 -80 -31t-33 -75q0 -43 33 -75t80 -32q44 0 78.5 32t34.5 75z" />
<glyph unicode="&#x2190;" horiz-adv-x="1826" d="M1759 289h-608v-455l-1083 846l1083 846v-455h608v-782z" />
<glyph unicode="&#x2191;" horiz-adv-x="1826" d="M1305 -166h-783v608h-454l845 1084l846 -1084h-454v-608z" />
<glyph unicode="&#x2192;" horiz-adv-x="1826" d="M1759 680l-1083 -846v455h-608v782h608v455z" />
<glyph unicode="&#x2193;" horiz-adv-x="1826" d="M913 -166l-845 1084h454v608h783v-608h454z" />
<glyph unicode="&#x2196;" horiz-adv-x="1826" d="M1098 -195l-430 431l-322 -322l-168 1364l1364 -168l-321 -322l430 -430z" />
<glyph unicode="&#x2197;" horiz-adv-x="1826" d="M1481 -86l-322 322l-430 -431l-553 553l430 430l-321 322l1364 168z" />
<glyph unicode="&#x2198;" horiz-adv-x="1826" d="M1649 82l-1364 168l321 321l-430 430l553 553l430 -430l322 322z" />
<glyph unicode="&#x2199;" horiz-adv-x="1826" d="M1542 250l-1364 -168l168 1364l322 -322l430 430l553 -553l-430 -430z" />
<glyph unicode="&#x2202;" horiz-adv-x="1218" d="M1137 809l-74 -418q-32 -182 -173 -300t-323 -118q-142 0 -261 71.5t-185 188t-66 248.5q0 141 71 258t188.5 182.5t252.5 65.5q193 0 344 -135q4 24 4 51q0 108 -72.5 189.5t-178.5 81.5q-61 0 -115.5 -29t-91.5 -80l-170 145q70 84 169 131.5t208 47.5 q140 0 251.5 -67.5t170.5 -177.5t59 -239q0 -52 -8 -96zM565 193q117 0 199 83t82 201q0 119 -82 203t-199 84t-198.5 -84t-81.5 -203t81.5 -201.5t198.5 -82.5z" />
<glyph unicode="&#x2206;" horiz-adv-x="1314" d="M963 217l-306 649l-305 -649h611zM1309 0h-1303l651 1391z" />
<glyph unicode="&#x220f;" horiz-adv-x="1347" d="M1200 -406h-233v1545h-586v-1545h-234v1545h-92v219h1237v-219h-92v-1545z" />
<glyph unicode="&#x2211;" horiz-adv-x="1089" d="M1032 0h-977l396 684l-394 674h977v-211h-596l267 -463l-275 -471h602v-213z" />
<glyph unicode="&#x2212;" horiz-adv-x="901" d="M846 467h-791v221h791v-221z" />
<glyph unicode="&#x221a;" horiz-adv-x="1568" d="M797 -238h-111l-354 603l-205 -119l-102 194l399 232l305 -520l719 1538l203 -105z" />
<glyph unicode="&#x221e;" horiz-adv-x="1204" d="M688 360l-92 91l-86 -86q-84 -84 -197 -84q-118 0 -201 89.5t-83 217.5t83 217.5t201 89.5q116 0 189 -76l94 -94l96 96q82 82 195 82q120 0 205.5 -92.5t85.5 -222.5t-85.5 -222t-205.5 -92q-110 0 -199 86zM731 586l98 -97q26 -26 58 -26q39 0 66.5 35.5t27.5 87.5 t-27.5 88.5t-66.5 36.5q-31 0 -58 -27zM369 498l90 90l-90 90q-21 24 -56 24q-37 0 -62.5 -33.5t-25.5 -80.5t25.5 -81t62.5 -34q31 0 56 25z" />
<glyph unicode="&#x222b;" horiz-adv-x="925" d="M332 -270v1384q0 112 59 206.5t156.5 148t208.5 53.5q60 0 101.5 -40.5t41.5 -97.5t-41.5 -97t-101.5 -40t-102 40t-42 97q0 10 -7.5 18.5t-16.5 8.5q-10 0 -18.5 -8.5t-8.5 -18.5v-1384q0 -112 -59 -206.5t-156.5 -148t-208.5 -53.5q-60 0 -101.5 40.5t-41.5 97.5 t41.5 97t101.5 40t102 -40t42 -97q0 -10 7.5 -18.5t16.5 -8.5q11 0 19 8.5t8 18.5z" />
<glyph unicode="&#x2248;" horiz-adv-x="901" d="M846 948v-237q-9 -9 -26 -21.5t-65.5 -33.5t-92.5 -21q-70 0 -208.5 49t-207.5 49q-44 0 -92 -23.5t-74 -47.5l-25 -23v238q10 8 27 20.5t66.5 33.5t93.5 21q70 0 208 -48t207 -48q44 0 91.5 23t72.5 46zM846 541v-238q-9 -9 -26 -21.5t-65.5 -33.5t-92.5 -21 q-70 0 -208 49.5t-208 49.5q-44 0 -92 -24t-74 -48l-25 -23v238q10 9 27 21.5t66.5 33.5t93.5 21q70 0 208 -48t207 -48q44 0 91.5 23t72.5 46z" />
<glyph unicode="&#x2260;" horiz-adv-x="901" d="M846 254h-381l-45 -172l-215 57l31 115h-181v221h238l61 230h-299v221h359l45 170l217 -58l-31 -112h201v-221h-260l-62 -230h322v-221z" />
<glyph unicode="&#x2264;" horiz-adv-x="901" d="M846 82h-791v221h791v-221zM758 338l-709 360v72l709 363l108 -201l-399 -199l399 -198z" />
<glyph unicode="&#x2265;" horiz-adv-x="901" d="M846 82h-791v221h791v-221zM852 698l-709 -360l-108 197l399 198l-399 199l108 201l709 -363v-72z" />
<glyph unicode="&#x25ca;" horiz-adv-x="1427" d="M1110 680l-395 397l-398 -397l398 -395zM715 -27l-709 707l709 709l706 -709z" />
<glyph unicode="&#x25fc;" horiz-adv-x="962" d="M0 963h963v-963h-963v963z" />
<glyph unicode="&#xe0b0;" horiz-adv-x="3784" d="M1454 254h-960l-238 307h1030zM3316 209l311 397h-1104l211 383h-205l127 336h-1528l127 -336h-204l211 -383h-1104l311 -397h1010q43 -83 156.5 -136t256.5 -53t257 53t157 136h1010zM2591 1280l-359 -952q-45 -120 -136 -193.5t-204 -73.5t-204 73.5t-136 193.5 l-358 952h1397zM1929 496v22q-53 3 -74.5 28.5t-21.5 78.5v401h145q59 0 111 -59l16 14l-71 86h-508l-72 -86l16 -14q52 59 111 59h145v-401q0 -53 -21.5 -78.5t-74.5 -28.5v-22h299zM1774 481h-160v51q44 0 69 19q-20 27 -20 55q0 53 49 96v99q-89 -26 -140.5 -78.5 t-51.5 -116.5q0 -78 83.5 -141t217.5 -78q42 14 51 64q-51 9 -98 30zM2249 518l-35 33q-9 -10 -25.5 -24.5t-69 -43t-108.5 -37.5q6 -32 29 -49q52 13 98.5 39t65 41.5t45.5 40.5zM2091 344v23q-53 3 -74.5 28t-21.5 78v401h145q59 0 111 -59l16 14l-72 86h-348v-41h41v-331 q19 -11 58 -11v-51h-58v-8q0 -53 -21.5 -78t-74.5 -28v-23h299zM1712 870v45h-24l-72 -86l16 -14q36 43 80 55zM1874 760v63h-27v-65q19 2 27 2zM2009 809v-53q135 -17 199 -97l45 27l-90 111q-19 -19 -37 -19q-22 0 -60 13.5t-57 17.5zM3342 168h-1013q-56 -85 -174 -136.5 t-263 -51.5t-262 51.5t-174 136.5h-1014l-376 479h1118l-209 383h215l-127 336h1659l-127 -336h215l-209 -383h1118zM3291 254h-960l168 307h1030z" />
<glyph unicode="&#xe0b1;" horiz-adv-x="3784" d="M1454 254h-960l-238 307h1030zM3316 209l311 397h-1104l211 383h-205l127 336h-1528l127 -336h-204l211 -383h-1104l311 -397h1010q43 -83 156.5 -136t256.5 -53t257 53t157 136h1010zM2591 1280l-359 -952q-45 -120 -136 -193.5t-204 -73.5t-204 73.5t-136 193.5 l-358 952h1397zM3342 168h-1013q-56 -85 -174 -136.5t-263 -51.5t-262 51.5t-174 136.5h-1014l-376 479h1118l-209 383h215l-127 336h1659l-127 -336h215l-209 -383h1118zM3291 254h-960l168 307h1030z" />
<glyph unicode="&#xe0b2;" horiz-adv-x="3563" d="M1806 786v17q-40 3 -56.5 22t-16.5 58v301h118q43 0 82 -45l13 10l-54 65h-397l-53 -65l12 -10q39 45 84 45h115v-301q0 -39 -16 -58t-54 -22v-17h223zM1954 674v16q-70 5 -70 78v301h115q47 0 84 -43l12 12l-53 62h-297v-31h59v-252q5 -4 15 -4v-39h-15v-6 q0 -37 -16.5 -56t-56.5 -22v-16h223zM1642 1059v41l-51 -62l13 -12q11 18 38 33zM1505 209h553q-52 -71 -123.5 -110.5t-152.5 -39.5t-152.5 40t-124.5 110zM2226 606h-889l-250 674h1389zM3121 168h-901q-51 -84 -173 -136t-265 -52q-145 0 -267 51.5t-174 136.5h-899 l-376 479h1009l-213 383h217l-129 336h1663l-129 -336h215l-213 -383h1012zM3095 209l311 397h-993l210 383h-206l129 336h-1528l129 -336h-207l209 -383h-991l311 -397h899q45 -83 158.5 -136t255.5 -53t255 53t158 136h900zM3070 254h-2576l-238 307h3052zM1690 774h-119 v39q28 0 49 14q-14 21 -14 41q0 46 36 82v64q-45 -14 -76 -35t-44 -44t-18 -38.5t-5 -28.5q0 -62 71.5 -109.5t176.5 -56.5q39 9 45 48q-58 6 -102 24zM1792 1001v31l-47 -2v-33q24 4 47 4zM1896 1020v-29q103 -22 146 -78l26 17l-67 84q-15 -15 -29 -15q-15 0 -40 9t-36 12 zM2064 803l-24 24q-6 -7 -18 -17t-49.5 -30t-76.5 -26q3 -26 19 -39q80 24 149 88zM1337 385v133h-49v-133q0 -55 -45 -55q-43 0 -43 55v133h-47v-133q0 -45 23.5 -72.5t66.5 -27.5q44 0 69 27.5t25 72.5zM1620 430h-51v43h51q33 0 33 -22q0 -21 -33 -21zM2060 291l58 227 h-47l-33 -129l-35 129h-45l-35 -129l-33 129h-47l58 -227h45l34 129l35 -129h45zM2445 291l-90 227h-49l-88 -227h47l19 47h96l18 -47h47zM2361 383h-61l31 76zM2691 291v92l94 135h-49l-67 -98l-68 98h-51l94 -135v-92h47zM1620 336h-51v49h51q37 0 37 -25q0 -24 -37 -24z M1522 291h98q84 0 84 67q0 32 -25 50q19 15 19 41q0 69 -78 69h-98v-227zM956 446l25 37q-4 5 -12 12t-32 19t-48 12q-98 0 -98 -67q0 -30 23 -47t50.5 -21.5t50.5 -12.5t23 -22q0 -26 -45 -26q-41 0 -80 45l-27 -39q6 -6 16 -14.5t38.5 -22.5t52.5 -14q39 0 66.5 17.5 t27.5 53.5q0 28 -23 45t-50.5 22t-50.5 14t-23 22q0 22 49 22q20 0 39 -10t28 -25z" />
<glyph unicode="&#xe0b3;" horiz-adv-x="1968" d="M1399 209l428 780h-207l129 336h-1528l129 -336h-207l428 -780q45 -83 158.5 -136t255.5 -53t255.5 53t158.5 136zM1679 1280l-354 -952q-44 -119 -135.5 -193t-204.5 -74t-204.5 74t-135.5 193l-354 952h1388zM1903 1030l-473 -854q-47 -87 -171.5 -141.5t-273.5 -54.5 q-148 0 -271.5 54t-172.5 142l-475 854h217l-129 336h1663l-129 -336h215z" />
<glyph unicode="&#xe0b4;" horiz-adv-x="3784" d="M3316 209l311 397h-3469l311 -397h2847zM3342 168h-2900l-376 479h3653zM3291 254h-2797l-238 307h3273z" />
<glyph unicode="&#xe0b5;" horiz-adv-x="1531" d="M383 1245q0 15 -11 26t-26 11t-26 -11t-11 -26t11 -26t26 -11t26 11t11 26zM477 1264q0 15 -11 25.5t-26 10.5t-26 -10.5t-11 -25.5t11 -26t26 -11t26 11t11 26zM950 1202v90h-368v-90h368zM336 123h-96v117h96v-117zM457 0h-74v236h74v-236zM1020 131h-508v174h508v-174 zM563 793v245q0 19 -12 31t-31 12h-246q-19 0 -31 -12t-12 -31v-245q0 -19 12 -31t31 -12h246q19 0 31 12t12 31zM852 768v293q0 20 -18 20h-136q-18 0 -18 -20v-293q0 -18 18 -18h136q18 0 18 18zM1186 1208q15 0 26 11t11 26t-11 26t-26 11t-26 -11t-11 -26t11 -26t26 -11 zM1092 1227q15 0 25.5 11t10.5 26t-10.5 25.5t-25.5 10.5t-26 -10.5t-11 -25.5t11 -26t26 -11zM1292 123h-96v117h96v-117zM1149 0h-74v236h74v-236zM1380 262h-293v90h-643v-90h-292v926q54 66 134 115t154 63h652q74 -14 154 -63t134 -115v-926zM1300 793v245q0 19 -12 31 t-31 12h-245q-19 0 -31 -12t-12 -31v-245q0 -19 12 -31t31 -12h245q19 0 31 12t12 31zM932 406v319h-33v-23l-117 -28v39h-32v-39l-117 28v23h-33v-319h33v45l117 -29v-31h32v31l117 29v-45h33zM899 481l-117 -28v79l117 29v-80zM899 592l-117 -29v80l117 29v-80zM750 453 l-117 28v80l117 -29v-79zM750 563l-117 29v80l117 -29v-80z" />
<glyph unicode="&#xe0b6;" horiz-adv-x="1488" d="M846 438q0 41 -30 71t-73 30q-41 0 -69.5 -29.5t-28.5 -71.5t28 -70t70 -28q43 0 73 28t30 70zM780 1257q0 14 -11 24.5t-26 10.5q-13 0 -23.5 -10.5t-10.5 -24.5q0 -12 10.5 -22t23.5 -10q15 0 26 10t11 22zM1061 1153h-633q-23 0 -38 -15t-15 -38t15 -37t38 -14h633 q23 0 38 14t15 37t-15 38t-38 15zM774 612h361q15 0 27 11t12 26q0 37 -15 82.5t-47.5 94t-78 88t-113.5 65t-146 25.5v-392zM1112 100l-219 58h-297l-219 -58v-100h-29v29h-37v63l-118 -8v1067q0 25 16 50.5t45 35.5l336 115v71q0 25 16.5 42.5t42.5 17.5h68v200h55v-200 h68q26 0 42.5 -17.5t16.5 -42.5v-71l336 -115q29 -10 45 -35.5t16 -50.5v-1067l-118 8v-63h-37v-29h-29v100zM715 612v392q-78 0 -146 -25.5t-113.5 -65t-78 -88t-47.5 -94t-15 -82.5q0 -15 12 -26t27 -11h361z" />
<glyph unicode="&#xe0b7;" horiz-adv-x="1488" d="M745 279q43 0 72 29.5t29 70.5t-29 69.5t-72 28.5q-40 0 -69 -28.5t-29 -69.5t29 -70.5t69 -29.5zM1282 57l-147 -10v-47h-66v47q-72 12 -127 43h-389q-24 -14 -55.5 -24.5t-51.5 -14.5l-20 -4v-47h-66v47l-149 10q-11 94 -20.5 240.5t-6.5 255.5l13 594q1 33 17 53.5 t62 40.5t134 41q55 13 97 20.5t57 9.5l14 1l6 22h20v70q0 24 17.5 40.5t44.5 16.5h53v211q4 6 12 6q5 0 15 -13t28 -13v-191h55q27 0 44.5 -16.5t17.5 -40.5v-70h18l6 -22q45 -2 170 -31q88 -21 133.5 -41t61 -40.5t16.5 -53.5l13 -594q8 -207 -27 -496zM786 1206 q0 15 -12 27t-29 12q-15 0 -25.5 -12t-10.5 -27q0 -17 10.5 -28t25.5 -11q17 0 29 11t12 28zM1194 653l-49 256q-4 25 -20.5 38.5t-39.5 13.5l-317 6v-385h365q28 0 47.5 21t13.5 50zM721 582v383q-8 2 -16 2q-85 0 -169 -33.5t-151 -104t-86 -163.5q-2 -6 -2 -23 q0 -27 18 -44t45 -17h361zM1073 1116h-651q-22 0 -35.5 -15.5t-13.5 -39.5q0 -22 13.5 -36.5t35.5 -14.5h651q20 0 34.5 14.5t14.5 36.5q0 23 -14.5 39t-34.5 16z" />
<glyph unicode="&#xe0b8;" horiz-adv-x="1488" d="M1157 479q0 17 -11 29t-26 12q-16 0 -28.5 -12t-12.5 -29q0 -14 13 -25.5t28 -11.5t26 11.5t11 25.5zM827 496q0 33 -25 56t-59 23q-33 0 -57 -23t-24 -56q0 -35 24 -58.5t57 -23.5q34 0 59 23.5t25 58.5zM1253 115l11 114h-1039l11 -114h1017zM1044 1180v51q0 14 -16 14 h-567q-17 0 -17 -14v-51q0 -15 17 -15h567q16 0 16 15zM1202 764l-28 289q-3 25 -20 40t-40 15h-352v-397h387q22 0 38 16t15 37zM410 479q0 17 -12.5 29t-28.5 12q-15 0 -26 -12t-11 -29q0 -14 11 -25.5t26 -11.5t28 11.5t13 25.5zM727 711v397h-352q-23 0 -40 -15t-20 -40 l-28 -289q-1 -21 15 -37t38 -16h387zM1294 80h-120v-80h-87v80h-686v-80h-86v80h-120q-15 146 -15 158q0 14 9 254t10 249l80 469q4 31 67 56.5t150 36.5l127 8v39q0 15 9.5 25.5t24.5 10.5h66v119h43v-119h70q15 0 24.5 -10.5t9.5 -25.5v-39q90 -4 123 -8 q88 -13 150.5 -37.5t66.5 -55.5l80 -469q1 -9 10 -249t9 -254z" />
<glyph unicode="&#xe0b9;" horiz-adv-x="1488" d="M1128 1092l54 -572q-209 27 -437 27q-229 0 -438 -27l53 572q3 6 9 15.5t35 33.5t67.5 43t111.5 34t162 15t161 -14.5t111.5 -35.5t66.5 -41.5t36 -35.5zM1030 0h-26v82q-142 -10 -259 -10q-53 0 -118 2.5t-103 5.5l-39 2v-82h-26v27h-21v59q-79 10 -104 16 q-18 5 -27.5 11t-11.5 10.5t-2 11.5v184l-21 3v86h945v-86l-21 -3v-184q0 -7 -2 -11.5t-11.5 -10.5t-27.5 -11l-104 -16v-59h-21v-27zM1022 598l-12 453q-112 32 -265 32q-154 0 -266 -32l-12 -453q235 10 278 10q15 0 55.5 -2t65.5 -2l111 160l-29 168q37 -123 45 -164 l17 -156l-29 138l-100 -146zM1184 195v122q-261 -16 -439 -16q-80 0 -190 4t-180 8l-70 4v-122q15 -12 53.5 -26.5t144.5 -32t242 -17.5q84 0 158 6.5t121 16t83.5 21t53 19t23.5 13.5zM1196 416h-903l8 94q166 29 444 29q123 0 233.5 -7.5t159.5 -14.5l50 -7zM369 1118 q5 36 14.5 64t35 60.5t64.5 53.5t106 35.5t156 14.5q88 0 155 -14t106 -35.5t64.5 -54t35 -60.5t14.5 -64q-12 17 -35.5 35.5t-65.5 40.5t-114 35.5t-160 13.5q-89 0 -161 -13.5t-114.5 -35.5t-65.5 -40.5t-35 -35.5zM973 1083v99q-94 32 -228 32q-135 0 -229 -32v-99 q91 31 229 31q137 0 228 -31zM442 596l11 446q-52 -18 -88 -38l-39 -412q50 2 116 4zM1163 592l-39 412q-36 20 -88 38l11 -446zM500 469q0 14 -9 23.5t-22 9.5q-12 0 -20.5 -9.5t-8.5 -23.5q0 -12 8.5 -21.5t20.5 -9.5q13 0 22 9.5t9 21.5zM403 438q12 0 20.5 9.5t8.5 21.5 q0 14 -8.5 23.5t-20.5 9.5t-20 -9.5t-8 -23.5q0 -12 8 -21.5t20 -9.5zM1020 438q12 0 20.5 9.5t8.5 21.5q0 14 -8.5 23.5t-20.5 9.5q-13 0 -22 -9.5t-9 -23.5q0 -12 9 -21.5t22 -9.5zM1085 438q12 0 20.5 9.5t8.5 21.5q0 14 -8.5 23.5t-20.5 9.5t-20 -9.5t-8 -23.5 q0 -12 8 -21.5t20 -9.5zM967 481h-115q-10 0 -10 -12q0 -8 10 -8h115q10 0 10 8q0 12 -10 12zM631 481h-109q-10 0 -10 -12q0 -8 10 -8h109q10 0 10 8q0 12 -10 12zM1006 1257q0 6 -5.5 11.5t-11.5 5.5t-11 -5.5t-5 -11.5t5 -11t11 -5t11.5 5t5.5 11zM516 1257q0 6 -5 11.5 t-11 5.5t-11.5 -5.5t-5.5 -11.5t5.5 -11t11.5 -5t11 5t5 11zM354 467l-45 -2q-8 0 -8 -8q0 -6 8 -6l45 2q8 0 8 6q0 8 -8 8zM1180 465l-45 2q-9 0 -9 -8q0 -6 9 -6l45 -2q8 0 8 6q0 8 -8 8z" />
<glyph unicode="&#xe0ba;" horiz-adv-x="1488" d="M1233 442q0 35 -23 57.5t-57 22.5q-35 0 -57.5 -22.5t-22.5 -57.5q0 -34 22.5 -57t57.5 -23q34 0 57 23t23 57zM334 362q34 0 57 23t23 57q0 35 -23 57.5t-57 22.5q-33 0 -56.5 -22.5t-23.5 -57.5q0 -33 23.5 -56.5t56.5 -23.5zM1233 719l-37 344q-3 26 -21.5 43.5 t-44.5 17.5h-776q-22 0 -40 -17.5t-21 -43.5l-39 -344q-1 -15 10 -25t27 -10h907q15 0 25.5 10t9.5 25zM985 1270h-483q-17 0 -28 -12t-11 -31q0 -18 10.5 -28.5t28.5 -10.5h483q39 0 39 39q0 19 -10.5 31t-28.5 12zM1337 195h-104v-136q0 -34 -24 -59t-58 -25 q-35 0 -59.5 25t-24.5 59v136h-647v-136q0 -34 -25 -59t-59 -25q-32 0 -57 25t-25 59v136h-102v510q0 17 25.5 232t33.5 239q9 31 49 65q53 48 195 86.5t286 38.5q148 0 290 -38.5t196 -86.5q39 -34 51 -65q8 -24 33.5 -239t25.5 -232v-510z" />
<glyph unicode="&#xe0bb;" horiz-adv-x="7133" d="M6982 170h-342v172h-512v-172h-5122v172h-512v-172h-342v1026l170 170h6490l170 -170v-1026zM1518 342v854h-342v-854h342zM1006 682v514h-684v-514h684zM1006 0h-512v170h512v-170zM2372 682v514h-684v-514h684zM3226 682v514h-684v-514h684zM3738 342v854h-342v-854 h342zM4592 682v514h-684v-514h684zM5446 682v514h-684v-514h684zM5958 342v854h-342v-854h342zM6812 682v514h-684v-514h684zM6640 0h-512v170h512v-170z" />
<glyph unicode="&#xe0bc;" horiz-adv-x="5425" d="M5274 170h-342v172h-682v-172h-3074v172h-682v-172h-342v342l258 854h4694l170 -170v-1026zM1176 0h-682v170h682v-170zM834 682v514h-340v-514h340zM1860 682v514h-854v-514h854zM2884 682v514h-854v-514h854zM3908 682v514h-854v-514h854zM4932 682v514h-852v-514h852z M4932 0h-682v170h682v-170z" />
<glyph unicode="&#xe0bd;" horiz-adv-x="6873" d="M6722 -379h-6570v1745h6570v-1745zM1991 270v424h-340v336l-758 -549l758 -549v338h340zM3379 53v144h-413v231h342v145h-342v220h413v143h-565v-883h565zM4528 53l-346 441l346 442h-190l-250 -322l-250 322h-191l347 -442l-347 -441h191l250 320l250 -320h190zM5011 53 v883h-151v-883h151zM5698 53v740h278v143h-711v-143h281v-740h152z" />
<glyph unicode="&#xe0be;" horiz-adv-x="6873" d="M6722 -379h-6570v1745h6570v-1745zM5980 481l-758 549v-338h-340v-424h340v-336zM1462 53v144h-413v231h342v145h-342v220h413v143h-565v-883h565zM3095 53v883h-152v-883h152zM3781 53v740h278v143h-711v-143h281v-740h152zM2611 53l-346 441l346 442h-190l-250 -322 l-250 322h-190l346 -442l-346 -441h190l250 320l250 -320h190z" />
<glyph unicode="&#xf633;" horiz-adv-x="1583" d="M1513 680q0 -191 -96.5 -354t-262.5 -258t-361 -95q-196 0 -362.5 95t-263.5 258t-97 354q0 145 57.5 277.5t154 227.5t230.5 151.5t281 56.5q146 0 279.5 -56.5t230 -151.5t153.5 -227.5t57 -277.5zM791 125q152 0 279 73.5t200 201.5t73 282q0 155 -73 283.5t-200 202 t-279 73.5q-151 0 -277.5 -73.5t-200 -202t-73.5 -283.5q0 -154 73 -282t200 -201.5t278 -73.5zM1180 319h-168v89q-39 -52 -99 -79.5t-129 -27.5q-161 0 -275 111.5t-114 269.5q0 160 114 272.5t275 112.5q140 0 228 -111v95h168v-732zM788 449q90 0 154 70t64 163 q0 96 -64 167t-154 71q-89 0 -153 -70.5t-64 -167.5q0 -95 64 -164t153 -69z" />
<glyph unicode="&#xf655;" horiz-adv-x="817" d="M410 -20q-141 0 -238.5 125t-97.5 305t97.5 305t238.5 125q138 0 235.5 -125t97.5 -305t-97.5 -305t-235.5 -125zM410 150q65 0 109 77t44 183q0 107 -44 183.5t-109 76.5q-64 0 -111 -77t-47 -183q0 -105 47 -182.5t111 -77.5z" />
<glyph unicode="&#xf656;" horiz-adv-x="464" d="M352 0h-194v618h-133l114 193h213v-811z" />
<glyph unicode="&#xf657;" horiz-adv-x="739" d="M666 0h-617v37l367 420q49 56 49 90q0 52 -34 88.5t-81 36.5q-49 0 -83 -36t-34 -89h-178q0 123 85.5 209t209.5 86q120 0 206.5 -86t86.5 -209q0 -62 -22.5 -107t-61.5 -88l-164 -182h271v-170z" />
<glyph unicode="&#xf658;" horiz-adv-x="776" d="M395 344h-28v170h14q37 0 63.5 22.5t26.5 55.5q0 32 -26.5 55t-63.5 23q-38 0 -68 -23t-30 -55v-14h-191q0 116 80.5 189t202.5 73q124 0 203 -72t79 -190q0 -39 -19 -78t-42 -58q42 -28 68 -75.5t26 -106.5q0 -121 -88 -200.5t-213 -79.5q-128 0 -215.5 79.5 t-87.5 200.5h193v-14q0 -40 35 -68t81 -28q44 0 76.5 28t32.5 68q0 41 -32 69.5t-77 28.5z" />
<glyph unicode="&#xf659;" horiz-adv-x="778" d="M612 0h-180v135h-383v170l387 506h176v-506h105v-170h-105v-135zM436 305v227l-174 -227h174z" />
<glyph unicode="&#xf65a;" horiz-adv-x="710" d="M578 635h-213l-15 -68q116 -7 195.5 -93.5t79.5 -201.5q0 -121 -93 -206.5t-225 -85.5q-87 0 -161 36.5t-119 98.5l129 116q57 -88 151 -88q60 0 99.5 37t39.5 94t-39.5 95.5t-99.5 38.5q-71 0 -114 -50l-72 23l92 430h365v-176z" />
<glyph unicode="&#xf65b;" horiz-adv-x="802" d="M604 811l-162 -233q114 -4 194.5 -93t80.5 -204q0 -124 -92.5 -212.5t-223.5 -88.5q-130 0 -222.5 88t-92.5 213q0 92 57 172l250 358h211zM401 152q51 0 87 37.5t36 91.5q0 53 -36 91t-87 38t-86.5 -38t-35.5 -91q0 -54 35.5 -91.5t86.5 -37.5z" />
<glyph unicode="&#xf65c;" horiz-adv-x="704" d="M209 -27l-148 97l365 565h-330v176h658z" />
<glyph unicode="&#xf65d;" horiz-adv-x="765" d="M588 436q92 -82 92 -190q0 -110 -87.5 -188t-209.5 -78q-123 0 -210 78t-87 188t90 190q-67 74 -67 158q0 103 80 174.5t194 71.5q111 0 191.5 -72t80.5 -174q0 -88 -67 -158zM477 596q0 37 -28 64.5t-66 27.5q-39 0 -67.5 -27.5t-28.5 -64.5q0 -38 28 -65t68 -27 q38 0 66 27t28 65zM496 242q0 44 -34 75t-79 31q-47 0 -80 -31t-33 -75q0 -43 33 -75t80 -32q44 0 78.5 32t34.5 75z" />
<glyph unicode="&#xf65e;" horiz-adv-x="757" d="M285 -23l-142 115l154 191q-92 23 -151.5 99t-59.5 171q0 120 85.5 203.5t209.5 83.5q122 0 206.5 -83.5t84.5 -203.5q0 -101 -66 -180zM379 442q42 0 73 33t31 78q0 46 -30.5 79.5t-73.5 33.5t-74 -33.5t-31 -79.5q0 -44 31 -77.5t74 -33.5z" />
<glyph unicode="&#xf661;" horiz-adv-x="817" d="M410 528q-141 0 -238.5 125t-97.5 305t97.5 305.5t238.5 125.5q138 0 235.5 -125.5t97.5 -305.5t-97.5 -305t-235.5 -125zM410 698q65 0 109 77t44 183q0 107 -44 184t-109 77q-64 0 -111 -77.5t-47 -183.5q0 -105 47 -182.5t111 -77.5z" />
<glyph unicode="&#xf662;" horiz-adv-x="464" d="M352 547h-194v618h-133l114 193h213v-811z" />
<glyph unicode="&#xf663;" horiz-adv-x="739" d="M666 547h-617v37l367 420q49 56 49 90q0 52 -34 88.5t-81 36.5q-49 0 -83 -36t-34 -89h-178q0 123 85.5 209t209.5 86q120 0 206.5 -86.5t86.5 -208.5q0 -62 -22.5 -107t-61.5 -88l-164 -182h271v-170z" />
<glyph unicode="&#xf664;" horiz-adv-x="776" d="M395 893h-28v170h14q37 0 63.5 22.5t26.5 55.5q0 32 -26.5 55t-63.5 23q-38 0 -68 -23t-30 -55v-15h-191q0 116 81 189.5t202 73.5q124 0 203 -72.5t79 -190.5q0 -39 -18.5 -77.5t-42.5 -57.5q42 -28 68 -75.5t26 -106.5q0 -121 -88 -201t-213 -80q-128 0 -215.5 79.5 t-87.5 201.5h193v-14q0 -40 35.5 -68.5t80.5 -28.5q44 0 76.5 28.5t32.5 68.5q0 41 -32 69.5t-77 28.5z" />
<glyph unicode="&#xf665;" horiz-adv-x="802" d="M612 547h-180v135h-383v170l387 506h176v-506h105v-170h-105v-135zM436 852v227l-174 -227h174z" />
<glyph unicode="&#xf666;" horiz-adv-x="710" d="M578 1182h-213l-15 -68q116 -7 195.5 -93.5t79.5 -201.5q0 -122 -93 -207.5t-225 -85.5q-86 0 -160.5 37t-119.5 99l129 116q57 -88 151 -88q60 0 99.5 37t39.5 94t-39.5 95t-99.5 38q-72 0 -114 -49l-72 23l92 430h365v-176z" />
<glyph unicode="&#xf667;" horiz-adv-x="802" d="M604 1358l-162 -234q114 -4 194.5 -93t80.5 -204q0 -124 -92.5 -212.5t-223.5 -88.5q-130 0 -222.5 88t-92.5 213q0 92 57 172l250 359h211zM401 698q51 0 87 37.5t36 91.5q0 53 -36 91t-87 38t-86.5 -38t-35.5 -91q0 -54 35.5 -91.5t86.5 -37.5z" />
<glyph unicode="&#xf668;" horiz-adv-x="704" d="M209 520l-148 96l365 566h-330v176h658z" />
<glyph unicode="&#xf669;" horiz-adv-x="765" d="M588 985q92 -82 92 -190q0 -110 -87.5 -188.5t-209.5 -78.5q-123 0 -210 78.5t-87 188.5t90 190q-67 74 -67 158q0 103 80 174.5t194 71.5q111 0 191.5 -72t80.5 -174q0 -88 -67 -158zM477 1145q0 37 -28 64.5t-66 27.5q-39 0 -67.5 -27.5t-28.5 -64.5q0 -38 28 -65 t68 -27q38 0 66 27t28 65zM496 791q0 44 -34 75t-79 31q-47 0 -80 -31t-33 -75q0 -43 33 -75t80 -32q44 0 78.5 32t34.5 75z" />
<glyph unicode="&#xf66a;" horiz-adv-x="757" d="M285 526l-142 115l154 190q-92 23 -151.5 99.5t-59.5 171.5q0 120 85.5 203.5t209.5 83.5q122 0 206.5 -83.5t84.5 -203.5q0 -101 -66 -180zM379 991q42 0 73 33t31 78q0 46 -30.5 79t-73.5 33t-74 -33t-31 -79q0 -44 31 -77.5t74 -33.5z" />
<glyph unicode="&#xf66b;" horiz-adv-x="366" />
<glyph unicode="&#xf66c;" horiz-adv-x="366" d="M180 -166v146h-6q-50 0 -81.5 32t-31.5 76q0 45 31.5 77t81.5 32q58 0 94.5 -47.5t36.5 -120.5q0 -75 -40 -135t-85 -60z" />
<glyph unicode="&#xf66d;" horiz-adv-x="366" d="M305 98q0 -50 -35 -84t-86 -34t-87 34.5t-36 83.5t36 83t87 34t86 -34t35 -83z" />
<glyph unicode="&#xf66e;" horiz-adv-x="366" d="M180 383v145h-6q-49 0 -81 32.5t-32 76.5q0 45 31.5 76.5t81.5 31.5q58 0 94.5 -47t36.5 -120q0 -75 -40 -135t-85 -60z" />
<glyph unicode="&#xf66f;" horiz-adv-x="366" d="M305 647q0 -50 -35 -84.5t-86 -34.5t-87 35t-36 84t36 83t87 34t86 -34t35 -83z" />
<glyph unicode="&#xf684;" horiz-adv-x="544" d="M158 1044h229v-1044h-229v1044zM129 1274q0 59 41.5 100t101.5 41t102 -41t42 -100t-42 -100t-102 -41t-101.5 41t-41.5 100z" />
<glyph unicode="&#xf6ae;" horiz-adv-x="618" d="M594 -168l-195 -119q-301 498 -301 967q0 460 301 967l195 -119q-264 -445 -264 -848q0 -415 264 -848z" />
<glyph unicode="&#xf6af;" horiz-adv-x="618" d="M219 -287l-194 119q264 433 264 848q0 403 -264 848l194 119q301 -507 301 -967q0 -469 -301 -967z" />
<glyph unicode="&#xf6b0;" horiz-adv-x="681" d="M614 -260h-467v1878h467v-217h-237v-1444h237v-217z" />
<glyph unicode="&#xf6b1;" horiz-adv-x="681" d="M537 -260h-467v217h237v1444h-237v217h467v-1878z" />
<glyph unicode="&#xf6b2;" horiz-adv-x="778" d="M729 -260h-119q-147 0 -247.5 99t-100.5 245v256q0 97 -67 163t-170 66v222q104 0 170.5 65t66.5 164v254q0 146 100.5 245t247.5 99h119v-217h-119q-51 0 -84.5 -35t-33.5 -86v-244q0 -102 -50.5 -197t-130.5 -159q82 -68 131.5 -161t49.5 -195v-246q0 -51 33.5 -86 t84.5 -35h119v-217z" />
<glyph unicode="&#xf6b3;" horiz-adv-x="778" d="M168 -260h-119v217h119q51 0 85 35t34 86v246q0 102 49 195.5t131 160.5q-80 64 -130 159t-50 197v244q0 51 -34 86t-85 35h-119v217h119q147 0 247.5 -99t100.5 -245v-254q0 -99 67 -164t171 -65v-222q-103 0 -170.5 -66.5t-67.5 -162.5v-256q0 -146 -100.5 -245 t-247.5 -99z" />
<glyph unicode="&#xf6b5;" horiz-adv-x="1017" d="M393 1274q0 59 42 100t102 41t101.5 -41t41.5 -100t-41.5 -100t-101.5 -41t-102 41t-42 100zM422 1044h229v-344q-56 29 -116 29q-106 0 -183.5 -79t-77.5 -189q0 -113 77.5 -193t183.5 -80q72 0 133.5 39t97.5 103l197 -113q-64 -111 -177.5 -177.5t-248.5 -66.5 q-204 0 -346 142t-142 346q0 172 105 303t268 170v110z" />
<glyph unicode="&#xf6b6;" horiz-adv-x="1210" d="M610 201h-276l-277 479l277 479h276l-282 -479zM1153 201h-276l-277 479l277 479h276l-283 -479z" />
<glyph unicode="&#xf6b7;" horiz-adv-x="1210" d="M877 201h-277l283 479l-283 479h277l276 -479zM334 201h-277l283 479l-283 479h277l276 -479z" />
<glyph unicode="&#xf6b8;" horiz-adv-x="647" d="M610 201h-276l-277 479l277 479h276l-282 -479z" />
<glyph unicode="&#xf6b9;" horiz-adv-x="647" d="M334 201h-277l283 479l-283 479h277l276 -479z" />
<glyph unicode="&#xfb06;" horiz-adv-x="1337" d="M961 0v958h229v-958q0 -167 -120.5 -286.5t-287.5 -119.5q-112 0 -205 55t-147 148l182 107q26 -41 67.5 -65.5t92.5 -24.5q78 0 133.5 54.5t55.5 131.5zM1219 1210q0 -59 -42 -100t-102 -41t-101.5 41t-41.5 100t41.5 100.5t101.5 41.5t102 -41.5t42 -100.5zM492 0h-230 v737h-250v221h250v125q0 182 128.5 310.5t311.5 128.5q116 0 213 -54l-108 -192q-56 29 -105 29q-87 0 -148.5 -65.5t-61.5 -156.5v-125h346v-221h-346v-737z" />
<glyph horiz-adv-x="1036" d="M516 -27q-92 0 -169.5 31t-137 91.5t-93.5 158.5t-34 223q0 126 34 224t93.5 159.5t137.5 93t169 31.5q193 0 315.5 -130.5t122.5 -377.5t-122.5 -375.5t-315.5 -128.5zM518 186q93 0 150 72t57 221t-57 221t-150 72q-91 0 -149 -72.5t-58 -220.5t58 -220.5t149 -72.5z " />
<glyph horiz-adv-x="589" d="M442 0h-231v737h-203l131 221h303v-958z" />
<glyph horiz-adv-x="958" d="M864 0h-815l518 557q33 38 33 82q0 54 -42.5 91.5t-104.5 37.5t-105 -37.5t-43 -91.5v-33h-229v33q0 145 110 245.5t267 100.5t266.5 -100.5t109.5 -245.5q0 -127 -88 -221l-211 -228h334v-190z" />
<glyph horiz-adv-x="884" d="M424 301h-82v217h61q51 0 86 36t35 87q0 53 -35 90t-86 37t-85.5 -37t-34.5 -90h-230q0 142 102 243t248 101t249.5 -101.5t103.5 -242.5q0 -64 -24 -122.5t-68 -92.5q66 -39 102.5 -112.5t36.5 -157.5q0 -151 -111.5 -257t-269.5 -106t-269.5 106t-111.5 257h233 q0 -60 43.5 -103t106.5 -43t106 43t43 103t-43 102.5t-106 42.5z" />
<glyph horiz-adv-x="948" d="M358 209h168v205zM752 0v-199h-226v199h-608l834 993v-784h131v-209h-131z" />
<glyph horiz-adv-x="901" d="M754 741h-353l-20 -98q180 -3 305 -126t125 -300t-127.5 -300.5t-310.5 -123.5q-121 0 -221 54.5t-160 148.5l194 117q28 -47 76.5 -75t104.5 -28q88 0 150.5 60.5t62.5 146.5t-62.5 147.5t-150.5 61.5q-89 0 -145.5 -13.5t-121.5 -41.5l119 587h535v-217z" />
<glyph horiz-adv-x="946" d="M727 1092l-201 -295q157 -20 261 -136t104 -274q0 -172 -122 -293t-298 -121q-173 0 -294.5 121t-121.5 293q0 127 84 250l314 455h274zM471 186q84 0 140.5 56.5t56.5 140.5q0 83 -56 139t-141 56q-82 0 -137 -56t-55 -139t55 -140t137 -57z" />
<glyph horiz-adv-x="866" d="M186 -207l-186 123l539 832h-463v210h864z" />
<glyph horiz-adv-x="937" d="M719 586q55 -39 86 -107.5t31 -144.5q0 -151 -107.5 -256t-259.5 -105t-259.5 105t-107.5 256q0 76 30 145t85 107q-42 31 -64 87t-22 120q0 136 98.5 231.5t239.5 95.5t239.5 -95.5t98.5 -231.5q0 -63 -22.5 -119.5t-65.5 -87.5zM467 184q61 0 104 45.5t43 108.5 q0 61 -42.5 100t-104.5 39q-60 0 -101.5 -39.5t-41.5 -99.5q0 -63 42 -108.5t101 -45.5zM586 795q0 53 -34 84.5t-81 31.5q-51 0 -85 -31t-34 -85q0 -44 35 -78.5t84 -34.5q44 0 79.5 35t35.5 78z" />
<glyph horiz-adv-x="946" d="M373 -207l-178 141l188 232q-143 31 -235.5 144t-92.5 261q0 172 122 293t298 121q173 0 294.5 -121t121.5 -293q0 -152 -107 -278zM471 381q84 0 140.5 56.5t56.5 140.5q0 83 -56 138.5t-141 55.5q-82 0 -137 -55.5t-55 -138.5t55 -140t137 -57z" />
<glyph horiz-adv-x="1359" d="M381 0h-234v1358h869v-221h-635v-338h442v-221h-442v-578zM1212 0h-229v958h229v-958z" />
<glyph horiz-adv-x="1449" d="M676 0h-234v1137h-430v221h1094v-221h-430v-1137zM1303 0h-230v958h230v-958z" />
<glyph horiz-adv-x="860" d="M512 817l-80 166l-80 -166h160zM856 547h-209l-49 98h-332l-51 -98h-211l428 835z" />
<glyph horiz-adv-x="1021" d="M893 547h-195v90q-98 -113 -260 -113q-157 0 -270 125t-113 303q0 179 112.5 304.5t270.5 125.5q164 0 260 -114v90h195v-811zM473 694q99 0 168.5 76t69.5 182q0 109 -69 185.5t-169 76.5q-94 0 -161.5 -77t-67.5 -185q0 -106 67.5 -182t161.5 -76z" />
<glyph horiz-adv-x="847" d="M358 547h-229v811h229q178 0 303 -119t125 -287t-125 -286.5t-303 -118.5zM317 725h39q101 0 170.5 67.5t69.5 161.5q0 92 -70 159t-170 67h-39v-455z" />
<glyph horiz-adv-x="1021" d="M893 547h-195v90q-98 -113 -260 -113q-157 0 -270 125t-113 303q0 179 112.5 304.5t270.5 125.5q164 0 260 -114v485h195v-1206zM473 692q99 0 168.5 76t69.5 182q0 110 -69 187t-169 77q-94 0 -161.5 -77t-67.5 -187q0 -106 67.5 -182t161.5 -76z" />
<glyph horiz-adv-x="790" d="M668 547h-539v811h539v-178h-351v-133h285v-179h-285v-143h351v-178z" />
<glyph horiz-adv-x="946" d="M887 905h-639q11 -79 78 -141t153 -62q54 0 102.5 22.5t80.5 59.5l131 -131q-126 -129 -308 -129q-180 0 -305 124.5t-125 303.5q0 180 122 305t296 125t296 -125t122 -305zM268 1067h410q-26 61 -83 99t-122 38q-64 0 -118 -36.5t-87 -100.5z" />
<glyph horiz-adv-x="786" d="M569 1419l-381 94l50 173l370 -125zM668 547h-539v811h539v-178h-351v-133h285v-179h-285v-143h351v-178z" />
<glyph horiz-adv-x="952" d="M672 1419l-381 94l49 173l371 -125zM887 905h-639q11 -79 78 -141t153 -62q54 0 102.5 22.5t80.5 59.5l131 -131q-126 -129 -308 -129q-180 0 -305 124.5t-125 303.5q0 180 122 305t296 125t296 -125t122 -305zM268 1067h410q-26 61 -83 99t-122 38q-64 0 -118 -36.5 t-87 -100.5z" />
<glyph horiz-adv-x="874" d="M588 725v55h-78v178h266v-323q-121 -111 -291 -111q-180 0 -305 125t-125 305q0 179 125 303.5t305 124.5q183 0 306 -120l-129 -138q-73 80 -177 80q-100 0 -170.5 -73.5t-70.5 -178.5t70.5 -177.5t170.5 -72.5q52 0 103 23z" />
<glyph horiz-adv-x="1021" d="M473 694q99 0 168.5 76t69.5 182q0 109 -69 185.5t-169 76.5q-94 0 -161.5 -77t-67.5 -185q0 -106 67.5 -182t161.5 -76zM698 606v31q-98 -113 -260 -113q-157 0 -270 125t-113 303q0 179 112.5 304.5t270.5 125.5q164 0 260 -114v90h195v-752q0 -169 -116.5 -286 t-289.5 -117q-114 0 -209.5 52.5t-152.5 141.5l162 97q28 -56 79 -89.5t113 -33.5q91 0 155 68.5t64 166.5z" />
<glyph horiz-adv-x="944" d="M813 547h-188v321h-308v-321h-188v811h188v-309h308v309h188v-811z" />
<glyph horiz-adv-x="1052" d="M924 547h-195v409q0 28 -0.5 45t-4.5 46.5t-11.5 48t-22.5 41t-36 36t-53.5 22.5t-74.5 9q-86 0 -147.5 -72.5t-61.5 -175.5v-409h-194v1206h194v-498q42 61 108 94t140 33q72 0 129.5 -18.5t94 -46t63.5 -68t40.5 -76t21 -80t9 -70t1.5 -54.5v-422z" />
<glyph horiz-adv-x="452" d="M324 547h-195v811h195v-811z" />
<glyph horiz-adv-x="1083" d="M1061 547h-201l-117 371l-202 -394l-203 391l-117 -368h-201l271 837l250 -483l250 483z" />
<glyph horiz-adv-x="1513" d="M1384 547h-194v420q0 65 -13 112t-30.5 70.5t-44 36.5t-43 15.5t-37.5 2.5q-70 0 -119 -69t-49 -168v-420h-195v420q0 38 -2 64t-11 61.5t-26 57.5t-49.5 38t-78.5 16q-70 0 -119 -69t-49 -168v-420h-195v811h195v-109q43 62 101 97.5t118 35.5q73 0 139 -40t98 -113 q45 69 115.5 111t144.5 42q22 0 41.5 -1.5t56.5 -10t67 -24t65 -47t58.5 -74t39.5 -110.5t16 -152v-416z" />
<glyph horiz-adv-x="983" d="M854 526l-530 439v-418h-195v831l530 -438v418h195v-832z" />
<glyph horiz-adv-x="972" d="M918 954q0 -180 -126 -305t-307 -125q-180 0 -305 125t-125 305q0 179 125 303.5t305 124.5q181 0 307 -124.5t126 -303.5zM485 702q100 0 171 72.5t71 177.5t-71 178.5t-171 73.5t-170.5 -73.5t-70.5 -178.5t70.5 -177.5t170.5 -72.5z" />
<glyph horiz-adv-x="972" d="M918 954q0 -180 -126 -305t-307 -125q-180 0 -305 125t-125 305q0 179 125 303.5t305 124.5q181 0 307 -124.5t126 -303.5zM485 702q100 0 171 72.5t71 177.5t-71 178.5t-171 73.5t-170.5 -73.5t-70.5 -178.5t70.5 -177.5t170.5 -72.5z" />
<glyph horiz-adv-x="796" d="M614 524l-198 197h-99v-174h-188v811h242q141 0 241.5 -94t100.5 -226q0 -143 -113 -235l148 -146zM317 899h60q60 0 100.5 40t40.5 99t-40.5 100.5t-100.5 41.5h-60v-281z" />
<glyph horiz-adv-x="747" d="M317 547h-194v811h194v-103q42 61 108 94t140 33q105 0 174 -53l-100 -168q-47 43 -113 43q-86 0 -147.5 -72.5t-61.5 -175.5v-409z" />
<glyph horiz-adv-x="692" d="M399 831l-174 97q-131 72 -131 213q0 102 73 171.5t181 69.5q159 0 236 -135l-170 -96q-24 49 -64 49q-22 0 -38.5 -17.5t-16.5 -39.5q0 -33 35 -51l186 -105q53 -30 87 -86.5t34 -120.5q0 -111 -78.5 -183.5t-189.5 -72.5q-58 0 -116.5 25.5t-101.5 63.5t-68.5 65.5 t-39.5 48.5l168 107q4 -5 11 -13.5t27 -30.5t38.5 -39t42 -30.5t41.5 -13.5q30 0 49.5 19t19.5 46q0 38 -41 59z" />
<glyph horiz-adv-x="686" d="M397 817l-202 123q-52 31 -79.5 85t-27.5 118q0 97 77 168t185 71q67 0 127.5 -30.5t95.5 -85.5l-161 -95q-18 35 -66 35q-29 0 -48 -17t-19 -42q0 -31 28 -47l199 -125q53 -34 84 -87.5t31 -115.5q0 -103 -79.5 -175.5t-191.5 -72.5t-190 72.5t-78 175.5h188v-8 q0 -27 22.5 -45.5t55.5 -18.5q34 0 57 18t23 46q0 32 -31 53z" />
<glyph horiz-adv-x="714" d="M455 547h-195v631h-248v180h690v-180h-247v-631z" />
<glyph horiz-adv-x="690" d="M442 547h-194v631h-203v180h203v289h194v-289h203v-180h-203v-631z" />
<glyph horiz-adv-x="735" d="M459 406h-185v133q-78 29 -126 89t-48 140v10h191v-22q0 -24 22.5 -43t53.5 -19q32 0 53.5 19.5t21.5 46.5q0 31 -26 47l-209 149q-103 75 -103 191q0 75 47.5 134.5t122.5 84.5v139h185v-137q74 -24 124 -85.5t50 -137.5v-8h-197v14q0 25 -20 43t-49 18 q-31 0 -51.5 -18.5t-20.5 -44.5t27 -45l213 -152q100 -71 100 -186q0 -78 -49 -139t-127 -88v-133z" />
<glyph horiz-adv-x="665" d="M449 547h-181v110q-97 29 -158 110t-61 185t61 184.5t158 108.5v113h181v-113q73 -21 129 -80l-134 -123q-31 39 -86 39q-51 0 -85.5 -37.5t-34.5 -91.5t34.5 -91.5t85.5 -37.5q50 0 91 41l129 -127q-52 -55 -129 -80v-110z" />
<glyph horiz-adv-x="710" d="M475 547h-409v172q30 0 52 12.5t25 32.5l15 104h-92v179h118l19 120q14 92 88 153.5t174 61.5q40 0 77 -11t54 -21l18 -11l-86 -149q-24 18 -63 18q-27 0 -47 -18.5t-25 -46.5l-14 -96h100v-179h-127l-20 -143h143q28 0 60 59l167 -88q-100 -149 -227 -149z" />
<glyph horiz-adv-x="851" d="M690 694h-172v-147h-194v147h-172v88h172v23l-31 51h-141v88h90l-240 414h213l205 -357l205 357h213l-244 -414h96v-88h-145l-27 -49v-25h172v-88z" />
<glyph horiz-adv-x="737" d="M643 950h-231l-125 -475q-22 -85 -94.5 -139.5t-163.5 -54.5q-48 0 -90.5 15.5t-70 37.5t-47.5 44.5t-29 37.5l-9 16l158 86q4 -7 11 -18t29.5 -29t45.5 -18q63 0 79 63l117 434h-127v180h174l31 125q22 90 100.5 149.5t178.5 59.5q37 0 73.5 -10.5t62 -25t45.5 -29 t30 -25.5l10 -10l-131 -125q-4 6 -12 15t-31.5 23.5t-46.5 14.5q-35 0 -62 -21.5t-37 -60.5l-22 -80h184v-180z" />
<glyph horiz-adv-x="874" d="M752 797l2 -230q-91 -43 -191 -43q-135 0 -243 73.5t-156 193.5h-117l35 108h53q-2 18 -2 55v13h-86l35 108h68q39 135 152.5 221t260.5 86q140 0 250 -77l-61 -195q-74 94 -189 94q-68 0 -125 -35t-88 -94h391l-34 -108h-385v-15q0 -21 4 -53h358l-35 -108h-272 q73 -89 186 -89q114 0 189 95z" />
<glyph horiz-adv-x="790" d="M457 653h-140v-106h-188v106h-88v109h88v596h539v-178h-351v-133h285v-179h-285v-106h140v-109z" />
<glyph horiz-adv-x="710" d="M475 547h-409v172q30 0 52 12.5t25 32.5l9 55h-86v109h102l10 67h-112v109h127l10 63q14 92 88 153.5t174 61.5q40 0 77 -11t54 -21l18 -11l-86 -149q-24 18 -63 18q-27 0 -47 -18.5t-25 -46.5l-6 -39h92v-109h-108l-11 -67h119v-109h-133l-14 -94h143q28 0 60 59 l167 -88q-100 -149 -227 -149z" />
<glyph horiz-adv-x="1667" d="M1405 723l-141 68q-47 22 -76.5 61.5t-32.5 87.5h-135v-393h-195v393h-127q-34 -98 -123.5 -158.5t-203.5 -60.5h-54v-174h-188v811h242q118 0 209.5 -67.5t121.5 -170.5h123v256h195v-256h168v-67q30 41 79.5 65.5t108.5 24.5q58 0 106.5 -22.5t78.5 -61.5l-158 -90 q-7 14 -25 14q-9 0 -16.5 -7.5t-7.5 -17.5q0 -15 10 -18l123 -57q55 -25 87 -69t32 -99q0 -79 -67.5 -135t-162.5 -56t-161 55.5t-66 135.5h188v-13q0 -12 11 -20t28 -8t29 8t12 20q0 15 -12 21zM317 899h60q60 0 100.5 40t40.5 99t-40.5 100.5t-100.5 41.5h-60v-281z" />
<glyph horiz-adv-x="677" d="M125 535v368l-66 -22v123l66 22v76l-66 -23v123l66 23v133h194v-62l107 39v-123l-107 -38v-76l107 39v-123l-107 -39v-252q66 28 106 89.5t40 139.5l190 2q0 -180 -125.5 -305t-306.5 -125q-41 0 -98 11z" />
<glyph horiz-adv-x="864" d="M543 618h-158v-71h-188v71h-95v166h95v45h-95v179h95v350h299q118 0 201 -77.5t83 -186.5q0 -110 -83 -187.5t-201 -77.5h-111v-45h158v-166zM385 1008h115q37 0 61.5 24.5t24.5 61.5q0 36 -25 61t-61 25h-115v-172z" />
<glyph horiz-adv-x="1148" d="M985 182h-174l-49 -182h-223l49 182h-185l-49 -182h-223l49 182h-119l-2 209h177l47 176h-117l-2 209h174l49 182h223l-49 -182h184l50 182h223l-49 -182h118l3 -209h-177l-47 -176h117zM643 391l47 176h-184l-47 -176h184z" />
<glyph horiz-adv-x="829" d="M524 -131h-229v141q-86 33 -139.5 102t-53.5 152v23h230v-29q0 -29 22.5 -48.5t55.5 -19.5q34 0 58 19.5t24 48.5q0 34 -29 53l-234 168q-55 40 -87.5 95.5t-32.5 119.5q0 81 51 149t133 101v146h229v-142q86 -31 139.5 -100t53.5 -154v-22h-230v28q0 28 -22.5 47 t-54.5 19q-29 0 -50.5 -19t-21.5 -47q0 -31 29 -49l239 -170q54 -39 84.5 -95.5t30.5 -121.5q0 -88 -53.5 -157.5t-141.5 -100.5v-137z" />
<glyph horiz-adv-x="1927" d="M748 -51l-193 110l623 1084l194 -113zM395 387q-137 0 -225 92.5t-88 270.5q0 179 88 272.5t225 93.5q140 0 229 -93.5t89 -272.5q0 -178 -89 -270.5t-229 -92.5zM395 582q49 0 79 42t30 128t-30 128t-79 42q-45 0 -74.5 -42.5t-29.5 -127.5t29.5 -127.5t74.5 -42.5z M1528 -27q-137 0 -225.5 92.5t-88.5 270.5q0 179 88.5 272.5t225.5 93.5q140 0 228.5 -93.5t88.5 -272.5q0 -178 -88.5 -270.5t-228.5 -92.5zM1528 168q49 0 78.5 42t29.5 128t-29.5 128t-78.5 42q-45 0 -75 -42.5t-30 -127.5t30 -127.5t75 -42.5z" />
<glyph horiz-adv-x="776" d="M557 0h-229v111q-121 37 -197 138t-76 232q0 129 76 230t197 137v110h229v-110q89 -26 162 -96l-154 -156q-47 53 -119 53q-68 0 -114.5 -49t-46.5 -121q0 -70 46.5 -119t114.5 -49q71 0 117 49l158 -147q-73 -76 -164 -102v-111z" />
<glyph horiz-adv-x="782" d="M727 403h-672v222h672v-222z" />
<glyph horiz-adv-x="866" d="M569 0h-467v211q35 0 60 14t28 35l17 115h-105v217h136l20 135q13 87 58.5 146.5t108 85.5t138.5 26q42 0 87.5 -13.5t69.5 -26.5l25 -13l-112 -187q-31 27 -70 27q-31 0 -52.5 -17.5t-27.5 -52.5l-18 -110h119v-217h-150l-22 -158h155q17 0 33 17t37 53l201 -105 q-117 -182 -269 -182z" />
<glyph horiz-adv-x="991" d="M838 182h-228v-182h-229v182h-227v103h227v18l-41 72h-186v102h127l-279 481h252l242 -419l241 419h252l-278 -481h127v-102h-187l-41 -72v-18h228v-103z" />
<glyph horiz-adv-x="989" d="M877 549h-328l-168 -627q-31 -115 -125 -189.5t-213 -74.5q-64 0 -119 17.5t-88 42.5t-57 50t-33 42l-10 18l190 113q4 -7 12 -18t37.5 -29.5t65.5 -18.5q44 0 79 26t46 66l153 582h-219v217h279l47 176q36 135 145 221t254 86q54 0 104.5 -12.5t84 -30.5t59 -36.5 t37.5 -31.5l12 -12l-157 -151q-6 6 -17.5 15.5t-48 25.5t-74.5 16q-65 0 -116 -40.5t-68 -104.5l-33 -121h269v-217z" />
<glyph horiz-adv-x="1490" d="M1436 403h-1381v222h1381v-222z" />
<glyph horiz-adv-x="1783" d="M1729 403h-1674v222h1674v-222z" />
<glyph horiz-adv-x="1026" d="M887 311l2 -284q-105 -54 -230 -54q-153 0 -282.5 87.5t-190.5 224.5h-137l43 135h62q-2 18 -2 69h-103l43 136h78q48 159 182 259.5t307 100.5q168 0 302 -94l-76 -242q-38 55 -99 87t-127 32q-76 0 -139.5 -39t-99.5 -104h457l-41 -136h-453q0 -21 1.5 -38t3.5 -24 l1 -7h422l-43 -135h-313q83 -95 204 -95q65 0 125.5 32.5t102.5 88.5z" />
<glyph horiz-adv-x="2703" d="M748 -51l-193 110l623 1084l194 -113zM395 387q-137 0 -225 92.5t-88 270.5q0 179 88 272.5t225 93.5q140 0 229 -93.5t89 -272.5q0 -178 -89 -270.5t-229 -92.5zM395 582q49 0 79 42t30 128t-30 128t-79 42q-45 0 -74.5 -42.5t-29.5 -127.5t29.5 -127.5t74.5 -42.5z M1528 -27q-137 0 -225.5 92.5t-88.5 270.5q0 179 88.5 272.5t225.5 93.5q140 0 228.5 -93.5t88.5 -272.5q0 -178 -88.5 -270.5t-228.5 -92.5zM1528 168q49 0 78.5 42t29.5 128t-29.5 128t-78.5 42q-45 0 -75 -42.5t-30 -127.5t30 -127.5t75 -42.5zM2304 -27 q-137 0 -225 92.5t-88 270.5q0 179 88 272.5t225 93.5q140 0 228.5 -93.5t88.5 -272.5q0 -178 -88.5 -270.5t-228.5 -92.5zM2304 168q49 0 79 42t30 128t-30 128t-79 42q-45 0 -74.5 -42.5t-29.5 -127.5t29.5 -127.5t74.5 -42.5z" />
<glyph horiz-adv-x="835" d="M530 125h-163v-125h-230v125h-104v135h104v698h643v-217h-413v-147h335v-217h-335v-117h163v-135z" />
<glyph horiz-adv-x="878" d="M582 0h-467v211q35 0 60 14t28 35l4 29h-92v155h114l13 84h-127v156h149l6 43q13 87 58.5 146.5t108 85.5t138.5 26q42 0 87.5 -13.5t70.5 -26.5l25 -13l-113 -187q-31 27 -70 27q-31 0 -52 -17.5t-27 -52.5l-4 -18h104v-156h-127l-12 -84h139v-155h-162l-10 -72h156 q17 0 32.5 17t36.5 53l201 -105q-117 -182 -268 -182z" />
<glyph horiz-adv-x="1992" d="M1653 209l-166 72q-56 25 -91 73t-38 109h-160v-463h-229v463h-152q-37 -117 -135.5 -187.5t-232.5 -70.5h-72v-205h-230v958h302q139 0 240 -77.5t134 -200.5h146v301h229v-301h199v-80q35 49 93.5 78t131.5 29q68 0 125.5 -27t91.5 -74l-188 -108q-7 18 -29 18 q-11 0 -20 -8.5t-9 -20.5q0 -15 13 -22l143 -59q65 -26 103 -81t38 -122q0 -98 -78.5 -164t-191.5 -66q-114 0 -192 65.5t-78 160.5h223v-15q0 -15 13.5 -24.5t33.5 -9.5t33.5 9.5t13.5 24.5q0 19 -14 25zM377 422h67q67 0 114.5 47t47.5 113t-47.5 112.5t-114.5 46.5h-67 v-319z" />
<glyph horiz-adv-x="856" d="M170 -14v436l-78 -27v146l78 26v88l-78 -26v145l78 27v157h229v-71l127 45v-146l-127 -45v-90l127 45v-143l-127 -47v-293q76 32 124 105.5t48 156.5l230 2q0 -139 -68.5 -255t-186.5 -182.5t-259 -66.5q-57 0 -117 13z" />
<glyph horiz-adv-x="966" d="M614 80h-182v-80h-229v80h-111v201h111v53h-111v217h111v407h356q139 0 237.5 -92t98.5 -221q0 -130 -98 -220.5t-238 -90.5h-127v-53h182v-201zM432 551h137q41 0 69 27t28 67t-28 68t-69 28h-137v-190z" />
</font>
</defs>
</svg>
